<?xml version="1.0" standalone="no"?>
<!DOCTYPE svg PUBLIC "-//W3C//DTD SVG 1.1//EN" "http://www.w3.org/Graphics/SVG/1.1/DTD/svg11.dtd" >
<svg xmlns="http://www.w3.org/2000/svg">
<metadata></metadata>
<defs>
<font id="proba_proitalic" horiz-adv-x="450" >
<font-face units-per-em="2048" ascent="1536" descent="-512" />
<missing-glyph horiz-adv-x="471" />
<glyph unicode="&#xfb01;" horiz-adv-x="1017" d="M635 0l139 799h-364l-232 -1311h-158l232 1311h-129l22 123h129l56 317q25 141 126 226t242 85q62 0 109 -20l-25 -131q-33 20 -82 20q-80 0 -139 -50.5t-72 -129.5l-57 -317h518l-162 -922h-153zM819 1198q7 43 42.5 72.5t78.5 29.5t67.5 -29.5t16.5 -72.5 q-7 -43 -42.5 -72.5t-78.5 -29.5t-67.5 29.5t-16.5 72.5z" />
<glyph unicode="&#xfb02;" horiz-adv-x="1079" d="M948 102l-16 -102q-27 -10 -80 -10q-102 0 -148 61.5t-26 175.5l100 572h-368l-232 -1311h-158l232 1311h-129l22 123h129l56 317q25 141 126 226t242 85q62 0 109 -20l-25 -131q-33 20 -82 20q-80 0 -139 -50.5t-72 -129.5l-57 -317h369l108 614h154l-229 -1305 q-12 -67 17 -98t97 -31z" />
<glyph unicode="&#xfb03;" horiz-adv-x="1540" d="M1157 0l139 799h-364l-232 -1311h-157l231 1311h-364l-232 -1311h-158l232 1311h-129l22 123h129l56 317q25 141 126 226t242 85q62 0 109 -20l-25 -131q-33 20 -82 20q-80 0 -139 -50.5t-72 -129.5l-57 -317h365l55 317q25 141 126.5 226t242.5 85q61 0 108 -20 l-24 -131q-33 20 -82 20q-80 0 -139 -50.5t-72 -129.5l-58 -317h519l-162 -922h-154zM1341 1198q7 43 42.5 72.5t78.5 29.5t67.5 -29.5t16.5 -72.5q-7 -43 -42.5 -72.5t-78.5 -29.5t-67.5 29.5t-16.5 72.5z" />
<glyph unicode="&#xfb04;" horiz-adv-x="1601" d="M1470 102l-16 -102q-27 -10 -80 -10q-102 0 -148 61.5t-26 175.5l100 572h-368l-232 -1311h-157l231 1311h-364l-232 -1311h-158l232 1311h-129l22 123h129l56 317q25 141 126 226t242 85q62 0 109 -20l-25 -131q-33 20 -82 20q-80 0 -139 -50.5t-72 -129.5l-57 -317h365 l55 317q25 141 126.5 226t242.5 85q61 0 108 -20l-24 -131q-33 20 -82 20q-80 0 -139 -50.5t-72 -129.5l-58 -317h369l109 614h153l-229 -1305q-12 -67 17 -98t97 -31z" />
<glyph horiz-adv-x="0" />
<glyph horiz-adv-x="682" />
<glyph unicode=" "  horiz-adv-x="471" />
<glyph unicode="&#x09;" horiz-adv-x="471" />
<glyph unicode="&#xa0;" horiz-adv-x="471" />
<glyph unicode="!" d="M55 86q6 42 41 72t78 30t67.5 -29.5t18.5 -72.5q-7 -43 -42.5 -72.5t-78.5 -29.5t-67.5 29.5t-16.5 72.5zM135 393l182 1041h154l-182 -1041h-154z" />
<glyph unicode="&#x22;" horiz-adv-x="747" d="M227 922l90 512h134l-91 -512h-133zM545 922l90 512h133l-90 -512h-133z" />
<glyph unicode="#" horiz-adv-x="1241" d="M680 0l57 358h-348l-55 -358h-156l58 358h-154v123h172l74 471h-172v123h190l57 359h156l-59 -359h348l57 359h156l-60 -359h158v-123h-174l-76 -471h178v-123h-196l-55 -358h-156zM483 952l-75 -471h348l73 471h-346z" />
<glyph unicode="$" horiz-adv-x="1107" d="M383 -205l33 191q-118 7 -214 55.5t-159 132.5l115 100q45 -64 121 -102.5t163 -44.5l93 532q-30 12 -51 21.5t-49.5 23t-48.5 26.5t-43.5 29.5t-39.5 34t-32.5 39t-25.5 46t-15 52.5t-5.5 60.5t6.5 69.5q27 156 142.5 267t300.5 120l35 190h92l-35 -194 q98 -11 181 -53.5t138 -112.5l-116 -100q-36 46 -98 79.5t-132 42.5l-88 -507q145 -61 202 -103q139 -99 122 -263q-1 -16 -4 -32q-13 -75 -50 -144.5t-93.5 -126.5t-139.5 -94t-180 -44l-33 -191h-92zM807 391q7 44 -3.5 80t-39 63.5t-61.5 47.5t-82 41l-86 -492 q116 20 187 97.5t85 162.5zM397 1065q-16 -84 29.5 -138t138.5 -98l84 474q-74 -8 -130.5 -48t-84.5 -88.5t-37 -101.5z" />
<glyph unicode="%" horiz-adv-x="1755" d="M340 0l1008 1434h155l-1005 -1434h-158zM193 1100q28 155 141 251.5t268 96.5t235 -96.5t52 -251.5t-141.5 -251.5t-268.5 -96.5t-234.5 96.5t-51.5 251.5zM330 1100q-17 -101 30.5 -165.5t139.5 -64.5q94 0 163.5 64.5t86.5 165.5q19 102 -28 166.5t-140 64.5 q-94 0 -163.5 -64t-88.5 -167zM952 332q28 155 141.5 251.5t268.5 96.5t235 -96.5t52 -251.5q-26 -155 -139.5 -251.5t-268.5 -96.5t-235 96.5t-54 251.5zM1092 332q-19 -101 28.5 -165.5t139.5 -64.5q93 0 162.5 64t88.5 166q19 103 -28.5 167t-141.5 64q-92 0 -161 -64 t-88 -167z" />
<glyph unicode="&#x26;" horiz-adv-x="1253" d="M739 713l23 131h465l-23 -131h-153l-52 -297q-34 -192 -179.5 -312t-346.5 -120t-305 120t-70 312q23 131 102 225.5t197 138.5q-75 41 -108 118t-13 179q28 164 155 267.5t300 103.5t262.5 -103t61.5 -268h-160q19 103 -34 168.5t-156 65.5q-101 0 -176.5 -65.5 t-94.5 -168.5t34.5 -168t154.5 -65h57l-23 -131h-57q-129 0 -225 -83t-119 -214q-23 -130 44 -211.5t196 -81.5q130 0 225.5 81t118.5 212l53 297h-154z" />
<glyph unicode="'" horiz-adv-x="430" d="M227 922l90 512h134l-91 -512h-133z" />
<glyph unicode="(" horiz-adv-x="608" d="M709 1550l-23 -116q-45 0 -99.5 -68t-108 -187t-104 -293.5t-85.5 -373.5q-46 -265 -51 -479t28 -328.5t94 -114.5l-18 -118q-108 0 -175.5 132.5t-78 363.5t42.5 544q39 226 104.5 421.5t143 329.5t163.5 210.5t167 76.5z" />
<glyph unicode=")" horiz-adv-x="608" d="M262 1434l21 116q108 0 175.5 -132t77.5 -363t-42 -543q-53 -302 -148.5 -541.5t-208 -369t-219.5 -129.5l19 118q45 0 99.5 68t108.5 187t104.5 293.5t86.5 373.5q46 265 49.5 479t-29.5 328.5t-94 114.5z" />
<glyph unicode="*" horiz-adv-x="913" d="M545 971l-207 -232l-82 70l207 229l-256 88l57 111l254 -88l49 285h117l-51 -285l289 90l14 -111l-287 -90l129 -231l-108 -68z" />
<glyph unicode="+" horiz-adv-x="890" d="M123 537v122h260v263h123v-263h262v-122h-262v-261h-123v261h-260z" />
<glyph unicode="," d="M45 -219l-45 55q97 82 123 150q-35 6 -54.5 34t-13.5 66q6 43 41.5 72.5t79.5 29.5q41 0 66.5 -28.5t15.5 -89.5q-23 -129 -213 -289z" />
<glyph unicode="-" horiz-adv-x="696" d="M123 481v123h450v-123h-450z" />
<glyph unicode="." d="M55 86q6 42 41 72t78 30t67.5 -29.5t18.5 -72.5q-7 -43 -42.5 -72.5t-78.5 -29.5t-67.5 29.5t-16.5 72.5z" />
<glyph unicode="/" horiz-adv-x="1126" d="M6 -102l1045 1638h155l-1044 -1638h-156z" />
<glyph unicode="0" horiz-adv-x="1157" d="M145 717q38 215 127 381t214 258t266 92q140 0 232.5 -93t120.5 -255.5t-7 -382.5q-59 -327 -225.5 -530t-378.5 -203q-141 0 -234.5 93t-122 256t7.5 384zM303 717q-29 -178 -14 -310t74.5 -208t152.5 -76q141 0 258.5 165t163.5 429q47 264 -12.5 429t-200.5 165 t-258 -165t-164 -429z" />
<glyph unicode="1" horiz-adv-x="649" d="M205 1253l22 123l389 66l-254 -1442h-153l227 1296z" />
<glyph unicode="2" horiz-adv-x="1058" d="M41 135l731 621q99 86 123 239q25 138 -37.5 226t-185.5 88q-124 0 -216.5 -87.5t-117.5 -226.5h-160q37 203 180 328t338 125q196 0 295 -125t64 -328q-38 -215 -189 -344l-610 -518h647l-22 -133h-863z" />
<glyph unicode="3" horiz-adv-x="1089" d="M492 713l22 131h94q101 0 177.5 65t95.5 168q17 103 -36.5 168.5t-154.5 65.5q-102 0 -177.5 -65.5t-92.5 -168.5h-160q29 164 155.5 267.5t299.5 103.5t262.5 -103.5t60.5 -267.5q-18 -103 -77.5 -180t-147.5 -117q102 -44 147.5 -138.5t22.5 -225.5 q-34 -192 -179.5 -312t-346.5 -120t-305 120t-70 312h160q-23 -131 43 -212t196 -81q129 0 225 81.5t119 211.5q23 131 -43.5 214t-195.5 83h-94z" />
<glyph unicode="4" horiz-adv-x="1122" d="M653 0l47 276h-653l12 76l836 1082h158l-181 -1024h127l-22 -134h-123l-47 -276h-154zM262 410h467l139 790z" />
<glyph unicode="5" horiz-adv-x="1058" d="M956 438q-35 -203 -178.5 -328.5t-339.5 -125.5q-195 0 -295.5 118.5t-66.5 309.5h153q-23 -127 42.5 -208t191.5 -81q123 0 216 88t118 227q28 152 -43.5 247t-212.5 95q-143 0 -250 -86l-105 43l211 697h629l-25 -134h-491l-133 -426q87 46 198 46q209 0 314 -133.5 t67 -348.5z" />
<glyph unicode="6" horiz-adv-x="1085" d="M772 1448l117 -76q-270 -301 -438 -530q73 39 165 39q199 0 302.5 -123.5t68.5 -323.5q-35 -201 -181.5 -325.5t-348.5 -124.5q-203 0 -305 125t-64 337q32 185 154 358t496 604q22 27 34 40zM244 434q-25 -138 41 -224.5t196 -86.5q129 0 225 86.5t121 224.5 q25 139 -40.5 226.5t-194.5 87.5q-130 0 -226.5 -87t-121.5 -227z" />
<glyph unicode="7" horiz-adv-x="1073" d="M248 1300l24 134h869l-11 -58l-757 -1376h-164l711 1300h-672z" />
<glyph unicode="8" horiz-adv-x="1095" d="M266 1077q28 164 155 267.5t300 103.5t262 -103t61 -268q-20 -103 -79.5 -180t-147.5 -117q103 -43 149 -137.5t23 -226.5q-34 -192 -179.5 -312t-346.5 -120t-305 120t-70 312q23 132 101.5 226.5t195.5 137.5q-75 41 -107 118t-12 179zM246 416q-23 -130 43.5 -211.5 t195.5 -81.5q130 0 225.5 81t118.5 212t-43 213t-196 82q-129 0 -225 -82t-119 -213zM424 1077q-19 -102 33.5 -166.5t154.5 -64.5q103 0 178.5 64t94.5 167t-34.5 168.5t-156.5 65.5q-101 0 -176 -65.5t-94 -168.5z" />
<glyph unicode="9" horiz-adv-x="1085" d="M401 -16l-120 75q267 298 440 533q-76 -39 -166 -39q-201 0 -303.5 122t-67.5 324q35 200 183 324.5t350 124.5t303 -124.5t63 -336.5q-31 -182 -151 -353t-480 -590zM928 997q23 140 -43 227t-195 87q-130 0 -226.5 -87t-119.5 -227q-25 -138 41.5 -224.5t196.5 -86.5 q129 0 225 86.5t121 224.5z" />
<glyph unicode=":" d="M55 86q6 42 41 72t78 30t67.5 -29.5t18.5 -72.5q-7 -43 -42.5 -72.5t-78.5 -29.5t-67.5 29.5t-16.5 72.5zM186 834q7 43 42.5 72.5t78.5 29.5t67.5 -29.5t16.5 -72.5t-43 -73t-78 -30t-67.5 30t-16.5 73z" />
<glyph unicode=";" d="M186 834q7 43 42.5 72.5t78.5 29.5t67.5 -29.5t16.5 -72.5t-43 -73t-78 -30t-67.5 30t-16.5 73zM45 -219l-45 55q97 82 123 150q-35 6 -54.5 34t-13.5 66q6 43 41.5 72.5t79.5 29.5q41 0 66.5 -28.5t15.5 -89.5q-23 -129 -213 -289z" />
<glyph unicode="&#x3c;" horiz-adv-x="839" d="M647 223l-575 391l575 392l90 -91l-448 -301l448 -301z" />
<glyph unicode="=" horiz-adv-x="972" d="M123 666v122h727v-122h-727zM123 307v123h727v-123h-727z" />
<glyph unicode="&#x3e;" horiz-adv-x="839" d="M758 614l-576 -391l-90 90l447 301l-447 301l90 91z" />
<glyph unicode="?" horiz-adv-x="964" d="M305 1196l-84 100q190 152 422 152q78 0 141 -20t103 -55t66.5 -82t31 -100.5t-3.5 -111.5q-11 -62 -37 -111t-60 -81.5t-73.5 -61.5t-79 -57.5t-73.5 -61.5t-60 -82.5t-37 -111.5l-20 -119h-154l21 119q13 76 41.5 137t63 101t74 73t77.5 59.5t70.5 53t56 62.5t30.5 79 q7 42 -0.5 82t-30 74.5t-68 56t-108.5 21.5q-80 0 -164 -31.5t-145 -83.5zM307 86q6 42 41 72t78 30t67.5 -29.5t18.5 -72.5q-7 -43 -42.5 -72.5t-78.5 -29.5t-67.5 29.5t-16.5 72.5z" />
<glyph unicode="@" horiz-adv-x="2150" d="M1602 -150l79 -96q-152 -136 -353.5 -209t-420.5 -73q-174 0 -319 46.5t-248 132.5t-169.5 208t-83 273.5t12.5 328.5q50 290 212 514.5t406.5 348.5t532.5 124q218 0 389 -71t272.5 -194t141 -288.5t6.5 -353.5q-21 -121 -67 -218.5t-103 -159.5t-125.5 -103.5 t-133 -58.5t-128.5 -17q-85 0 -142.5 28t-76.5 80q-133 -108 -307 -108q-198 0 -298 131.5t-63 345.5q38 213 194 344t372 131q122 0 214 -39.5t142 -112.5l-96 -555q-10 -52 22.5 -79t91.5 -27q48 0 97.5 21.5t98.5 66t88 125.5t58 188q29 165 -2.5 309t-115.5 250 t-226 167t-325 61q-241 0 -446.5 -107t-342.5 -300.5t-182 -442.5q-44 -250 25 -443t238 -300t413 -107q188 0 364.5 62t303.5 177zM776 461q-26 -151 46.5 -244.5t215.5 -93.5t246 86l90 518q-78 72 -221 72q-142 0 -246.5 -93.5t-130.5 -244.5z" />
<glyph unicode="A" horiz-adv-x="1497" d="M1169 0l-98 410h-668l-239 -410h-184l864 1434h149l359 -1434h-183zM883 1231l-398 -678h553z" />
<glyph unicode="B" horiz-adv-x="1136" d="M82 0l252 1434h393q172 0 260.5 -101.5t59.5 -269.5q-19 -105 -77 -184.5t-145 -122.5q107 -39 156 -134t25 -227q-32 -180 -163 -287.5t-315 -107.5h-446zM850 406q22 118 -36.5 191t-174.5 73h-277l-94 -533h277q116 0 199.5 74t105.5 195zM885 1051 q20 110 -33.5 176.5t-159.5 66.5h-219l-86 -485h221q106 0 182 66.5t95 175.5z" />
<glyph unicode="C" horiz-adv-x="1452" d="M319 717q-46 -262 82 -426t379 -164q257 0 445 164l86 -101q-239 -206 -561 -206q-213 0 -361.5 92t-210 258.5t-22.5 382.5q38 215 158 381.5t300.5 258t393.5 91.5q159 0 283.5 -53.5t203.5 -153.5l-121 -102q-61 79 -159.5 122.5t-225.5 43.5q-252 0 -438 -163.5 t-232 -424.5z" />
<glyph unicode="D" horiz-adv-x="1437" d="M82 0l252 1434h440q324 0 488 -196.5t106 -520.5q-57 -326 -289.5 -521.5t-556.5 -195.5h-440zM1204 717q46 260 -79 418.5t-375 158.5h-277l-205 -1157h277q250 0 431.5 159t227.5 421z" />
<glyph unicode="E" horiz-adv-x="1038" d="M469 1300l-90 -512h532l-24 -133h-533l-92 -522h610l-22 -133h-768l252 1434h758l-25 -134h-598z" />
<glyph unicode="F" horiz-adv-x="985" d="M469 1300l-90 -512h495l-22 -133h-498l-114 -655h-158l252 1434h727l-25 -134h-567z" />
<glyph unicode="G" horiz-adv-x="1523" d="M862 625l23 133h524l-100 -568q-236 -206 -559 -206q-213 0 -361.5 92t-210 258.5t-22.5 382.5q38 215 158 381.5t300.5 258t393.5 91.5q159 0 283.5 -53.5t203.5 -153.5l-121 -102q-61 79 -159.5 122.5t-225.5 43.5q-252 0 -438 -163.5t-232 -424.5q-46 -262 82 -426 t379 -164q217 0 381 121l68 377h-367z" />
<glyph unicode="H" horiz-adv-x="1433" d="M492 1434l-113 -646h788l113 646h160l-252 -1434h-160l115 655h-789l-114 -655h-158l252 1434h158z" />
<glyph unicode="I" horiz-adv-x="475" d="M76 0l252 1434h159l-251 -1434h-160z" />
<glyph unicode="J" horiz-adv-x="946" d="M614 389l185 1045h159l-184 -1045q-32 -181 -163.5 -293t-311.5 -112q-182 0 -272 114l120 103q58 -74 170 -74t194.5 72.5t102.5 189.5z" />
<glyph unicode="K" horiz-adv-x="1243" d="M76 0l252 1434h159l-251 -1434h-160zM885 0l-502 735l713 699h198l-710 -699l506 -735h-205z" />
<glyph unicode="L" horiz-adv-x="972" d="M492 1434l-230 -1301h559l-22 -133h-717l252 1434h158z" />
<glyph unicode="M" horiz-adv-x="1675" d="M1270 0l194 1106l-618 -778h-70l-342 778l-194 -1106h-158l252 1434h121l397 -883l709 883h120l-251 -1434h-160z" />
<glyph unicode="N" horiz-adv-x="1478" d="M334 1434h106l686 -1133l201 1133h158l-252 -1434h-107l-688 1133l-198 -1133h-158z" />
<glyph unicode="O" horiz-adv-x="1650" d="M154 717q38 215 157 381.5t298 258t390 91.5t357 -92t205.5 -258t21.5 -381q-59 -328 -291 -530.5t-551 -202.5q-211 0 -358 92t-207.5 258.5t-21.5 382.5zM317 717q-46 -263 78.5 -426.5t370.5 -163.5t426.5 163.5t226.5 426.5q46 262 -77.5 425t-368.5 163 t-427.5 -163.5t-228.5 -424.5z" />
<glyph unicode="P" horiz-adv-x="1083" d="M82 0l252 1434h389q188 0 283.5 -110t64.5 -294q-34 -183 -167.5 -292t-321.5 -109h-226l-110 -629h-164zM907 1030q20 120 -37.5 192t-171.5 72h-225l-94 -526h225q115 0 198 71.5t105 190.5z" />
<glyph unicode="Q" horiz-adv-x="1652" d="M1372 -53l-151 186q-214 -149 -480 -149q-211 0 -358 92t-207.5 258.5t-21.5 382.5q38 215 157 381.5t298 258t390 91.5t357 -92t205.5 -258t21.5 -381q-52 -289 -244 -481l152 -187zM317 717q-46 -262 78 -426t369 -164q217 0 369 113l-189 233l119 100l178 -221 q138 144 176 365q46 262 -76.5 425t-367.5 163q-246 0 -428 -163.5t-228 -424.5z" />
<glyph unicode="R" horiz-adv-x="1114" d="M780 0l-229 629h-195l-110 -629h-164l252 1434h403q188 0 284 -110t64 -294q-28 -153 -127 -255.5t-245 -133.5l250 -641h-183zM922 1030q22 120 -35.5 192t-173.5 72h-240l-94 -526h242q114 0 197.5 72t103.5 190z" />
<glyph unicode="S" horiz-adv-x="1107" d="M1085 1278l-116 -100q-42 56 -119.5 91.5t-161.5 35.5q-64 0 -118 -22t-88.5 -58.5t-56 -77t-28.5 -82.5q-12 -67 17.5 -117t85 -82t124.5 -60.5t137 -61.5t121.5 -75.5t79.5 -112t9 -161.5q-14 -80 -54 -152.5t-103 -131t-155 -93t-200 -34.5q-131 0 -239 49.5 t-177 140.5l115 100q50 -69 134 -108t177 -39q75 0 138.5 25t103.5 65.5t64.5 85t31.5 88.5q9 51 -7.5 92t-51.5 69t-83 51.5t-101.5 45.5t-107 45.5t-100 56t-79.5 73.5t-46 101.5t0 135.5q13 77 49.5 145t94 123t141.5 87t184 32q119 0 220 -44t165 -126z" />
<glyph unicode="T" horiz-adv-x="1161" d="M807 1300l-229 -1300h-158l227 1300h-409l24 134h977l-22 -134h-410z" />
<glyph unicode="U" horiz-adv-x="1396" d="M1083 522l160 912h160l-160 -912q-43 -241 -218 -389.5t-413 -148.5q-239 0 -360 148t-80 390l162 912h158l-160 -912q-31 -177 53 -286t250 -109q169 0 293 109t155 286z" />
<glyph unicode="V" horiz-adv-x="1497" d="M1604 1434l-863 -1434h-149l-361 1434h189l282 -1227l715 1227h187z" />
<glyph unicode="W" horiz-adv-x="2240" d="M2349 1434l-766 -1434h-162l-180 1161l-586 -1161h-161l-263 1434h185l200 -1190l590 1190h166l172 -1190l621 1190h184z" />
<glyph unicode="X" horiz-adv-x="1441" d="M1090 0l-345 616l-557 -616h-202l663 725l-397 709h205l325 -598l543 598h205l-649 -709l411 -725h-202z" />
<glyph unicode="Y" horiz-adv-x="1386" d="M530 0l109 616l-403 818h184l325 -660l560 660h184l-692 -820l-107 -614h-160z" />
<glyph unicode="Z" horiz-adv-x="1300" d="M272 1300l23 134h1059l-11 -58l-1060 -1243h845l-22 -133h-1075l8 57l1061 1243h-828z" />
<glyph unicode="[" horiz-adv-x="608" d="M694 1536l-22 -123h-205l-317 -1802h204l-22 -123h-359l363 2048h358z" />
<glyph unicode="\" horiz-adv-x="1126" d="M451 1536l467 -1638h-156l-467 1638h156z" />
<glyph unicode="]" horiz-adv-x="608" d="M268 1413l23 123h358l-362 -2048h-359l23 123h205l317 1802h-205z" />
<glyph unicode="^" horiz-adv-x="925" d="M625 1384l321 -391l-94 -80l-256 312l-367 -312l-65 80z" />
<glyph unicode="_" horiz-adv-x="921" d="M0 -328v123h922v-123h-922z" />
<glyph unicode="`" horiz-adv-x="542" d="M344 1384l211 -258l-92 -79l-215 258z" />
<glyph unicode="a" horiz-adv-x="1103" d="M668 936q113 0 205 -33.5t143 -97.5l-142 -805h-153l12 74q-129 -90 -284 -90q-198 0 -297 132t-62 343q37 216 193 346.5t385 130.5zM248 461q-26 -151 46.5 -244.5t217.5 -93.5q140 0 246 86l90 520q-34 32 -92 51t-121 19q-152 0 -255.5 -92.5t-131.5 -245.5z" />
<glyph unicode="b" horiz-adv-x="1103" d="M430 -16q-238 0 -346 129l252 1423h153l-118 -674q123 74 270 74q203 0 305 -132t64 -345q-37 -216 -191.5 -345.5t-388.5 -129.5zM852 457q26 154 -45.5 248t-214.5 94q-148 0 -250 -99l-90 -512q68 -65 213 -65q154 0 257 91.5t130 242.5z" />
<glyph unicode="c" horiz-adv-x="976" d="M248 461q-26 -151 46.5 -244.5t215.5 -93.5q148 0 256 94l78 -96q-156 -137 -365 -137q-212 0 -319.5 131.5t-69.5 345.5q37 212 191 343.5t366 131.5q209 0 316 -139l-113 -95q-74 97 -221 97q-142 0 -247.5 -93.5t-133.5 -244.5z" />
<glyph unicode="d" horiz-adv-x="1107" d="M877 0h-154l12 76q-128 -92 -286 -92q-198 0 -297.5 132t-61.5 345q37 212 189.5 343.5t361.5 131.5q135 0 233 -66l119 666h154zM248 461q-26 -151 46.5 -244.5t215.5 -93.5q141 0 250 88l88 500q-75 88 -219 88q-142 0 -247.5 -93.5t-133.5 -244.5z" />
<glyph unicode="e" horiz-adv-x="1040" d="M944 418h-698q-14 -135 58 -215t212 -80q152 0 260 94l76 -96q-156 -137 -369 -137q-215 0 -323 132t-68 349q35 210 180.5 340.5t345.5 130.5q203 0 285.5 -137.5t40.5 -380.5zM594 801q-114 0 -203.5 -73.5t-124.5 -197.5h543q9 127 -46 199t-169 72z" />
<glyph unicode="f" horiz-adv-x="659" d="M123 799l22 123h129l56 317q25 141 126 226t242 85q62 0 109 -20l-25 -131q-33 20 -82 20q-80 0 -139 -50.5t-72 -129.5l-57 -317h266l-22 -123h-266l-232 -1311h-158l232 1311h-129z" />
<glyph unicode="g" horiz-adv-x="1013" d="M-80 -242q17 89 84.5 154t169.5 98q-109 51 -90 154q9 50 48.5 90.5t107.5 64.5q-71 39 -98.5 113t-12.5 168q28 152 145.5 244t280.5 92q145 0 229 -78q91 78 189 78q17 0 49 -4l-21 -123q-24 4 -38 4q-58 0 -119 -37q30 -73 14 -172q-26 -149 -144 -241.5t-282 -92.5 q-86 0 -138.5 -28.5t-60.5 -73.5t45.5 -73.5t151.5 -28.5q198 0 303 -77.5t82 -205.5q-25 -137 -173 -224t-351 -87q-191 0 -291.5 79t-79.5 207zM78 -242q-12 -75 49.5 -120.5t181.5 -45.5q132 0 232.5 53.5t115.5 135.5q12 74 -56 119t-191 45q-136 0 -226.5 -51.5 t-105.5 -135.5zM285 604q-17 -94 31.5 -152.5t142.5 -58.5t163.5 58.5t86.5 152.5q17 92 -33 150.5t-144 58.5q-93 0 -161.5 -58t-85.5 -151z" />
<glyph unicode="h" horiz-adv-x="1071" d="M336 1536h153l-122 -690q133 90 286 90q157 0 233.5 -104.5t45.5 -274.5l-96 -557h-154l96 557q20 107 -31.5 174.5t-154.5 67.5q-150 0 -250 -94l-123 -705h-153z" />
<glyph unicode="i" d="M66 0l161 922h154l-162 -922h-153zM252 1198q6 42 41 72t78 30t67.5 -29.5t18.5 -72.5q-9 -43 -44.5 -72.5t-78.5 -29.5t-67 29.5t-15 72.5z" />
<glyph unicode="j" d="M252 1198q6 42 41 72t78 30t67.5 -29.5t18.5 -72.5q-9 -43 -44.5 -72.5t-78.5 -29.5t-67 29.5t-15 72.5zM-158 -512l19 102q62 0 102.5 32.5t52.5 96.5l211 1203h154l-213 -1207q-20 -112 -88.5 -174.5t-167.5 -62.5q-47 0 -70 10z" />
<glyph unicode="k" horiz-adv-x="940" d="M219 0h-153l270 1536h153l-180 -1028l436 414h185l-461 -433l342 -489h-182l-328 469z" />
<glyph unicode="l" horiz-adv-x="505" d="M375 102l-17 -102q-27 -10 -79 -10q-99 0 -147 63t-28 174l232 1309h153l-229 -1305q-12 -65 18.5 -97t96.5 -32z" />
<glyph unicode="m" horiz-adv-x="1558" d="M1174 0l108 618q14 80 -24 130.5t-111 50.5q-151 0 -258 -90q0 -45 -6 -91l-109 -618h-153l108 618q14 80 -24 130.5t-113 50.5q-150 0 -250 -94l-123 -705h-153l161 922h154l-14 -76q133 90 286 90q77 0 131.5 -33t81.5 -92q147 125 342 125q128 0 190.5 -88t37.5 -230 l-109 -618h-153z" />
<glyph unicode="n" horiz-adv-x="1064" d="M227 922h154l-14 -76q133 90 286 90q157 0 233.5 -104.5t45.5 -274.5l-96 -557h-154l96 557q20 107 -31.5 174.5t-154.5 67.5q-150 0 -250 -94l-123 -705h-153z" />
<glyph unicode="o" horiz-adv-x="1124" d="M88 461q37 212 191 343.5t366 131.5q209 0 316.5 -131.5t70.5 -343.5q-38 -213 -191.5 -345t-363.5 -132q-212 0 -319.5 131.5t-69.5 345.5zM246 461q-26 -151 44 -244.5t210 -93.5q138 0 242 94t130 244q28 150 -43.5 244t-210.5 94t-241.5 -93.5t-130.5 -244.5z" />
<glyph unicode="p" horiz-adv-x="1107" d="M227 922h154l-14 -76q133 90 288 90q198 0 297 -131.5t62 -343.5q-38 -214 -190 -345.5t-359 -131.5q-145 0 -240 65l-98 -561h-154zM854 461q28 150 -45.5 244t-216.5 94q-150 0 -250 -94l-88 -496q70 -86 219 -86q143 0 249 94t132 244z" />
<glyph unicode="q" horiz-adv-x="1103" d="M664 936q116 0 210.5 -35t141.5 -96l-234 -1317h-153l100 569q-121 -73 -268 -73q-203 0 -305.5 131.5t-65.5 345.5t193 344.5t381 130.5zM248 461q-26 -151 46 -244.5t214 -93.5q149 0 250 94l90 514q-33 33 -90.5 50.5t-122.5 17.5q-152 0 -255.5 -92.5t-131.5 -245.5z " />
<glyph unicode="r" horiz-adv-x="686" d="M633 934q25 0 61 -4l-22 -135q-34 6 -70 6q-74 0 -143 -34t-121 -93h-2l-117 -674h-153l161 922h154l-21 -113q131 125 273 125z" />
<glyph unicode="s" horiz-adv-x="782" d="M729 825l-106 -90q-24 32 -72.5 52t-95.5 20q-68 0 -109.5 -39.5t-50.5 -89.5q-5 -29 1.5 -50t36.5 -42t45 -29t69 -32q7 -3 10 -5q20 -9 34 -15.5t32.5 -16t31 -18t28 -20t25.5 -22.5t20 -25t16 -29t10 -32.5t3.5 -37.5t-4.5 -42q-21 -112 -115.5 -195t-240.5 -83 q-89 0 -163.5 33t-117.5 92l105 90q28 -40 80 -63t108 -23q83 0 131.5 44t59.5 99q8 51 -27 80.5t-131 71.5q-21 9 -35.5 16t-33.5 16t-32.5 18t-29 20t-26 23t-20.5 26t-16 29.5t-9.5 34t-3 39.5t4.5 44q19 109 104.5 185.5t221.5 76.5q80 0 150 -29t112 -82z" />
<glyph unicode="t" horiz-adv-x="649" d="M113 799l22 123h119l35 204h157l-34 -204h245l-22 -123h-246l-88 -512q-14 -76 22 -123t109 -47q50 0 86 20l-22 -133q-53 -20 -113 -20q-135 0 -201 83t-41 220l90 512h-118z" />
<glyph unicode="u" horiz-adv-x="1085" d="M1018 922l-96 -543q-32 -177 -160 -286t-305 -109q-175 0 -266 109t-60 286l96 543h160l-96 -543q-20 -114 33.5 -185t160.5 -71q106 0 185.5 71t99.5 185l96 543h152z" />
<glyph unicode="v" horiz-adv-x="1009" d="M1057 922l-563 -922h-144l-239 922h172l170 -732l434 732h170z" />
<glyph unicode="w" horiz-adv-x="1525" d="M1573 922l-504 -922h-160l-106 707l-350 -707h-162l-180 922h176l116 -736l361 736h156l102 -736l375 736h176z" />
<glyph unicode="x" horiz-adv-x="980" d="M680 0l-209 371l-334 -371h-178l430 469l-254 453h180l191 -353l319 353h179l-414 -453l268 -469h-178z" />
<glyph unicode="y" horiz-adv-x="1009" d="M1057 922l-885 -1434h-170l348 512l-239 922h172l170 -738l434 738h170z" />
<glyph unicode="z" horiz-adv-x="952" d="M162 799l22 123h752l-10 -58l-668 -741h537l-21 -123h-760l11 57l665 742h-528z" />
<glyph unicode="{" horiz-adv-x="649" d="M412 -410l-19 -118q-138 0 -208 126.5t-35 323.5l32 195q27 146 -4.5 240t-99.5 94l20 116q68 0 133 94t91 240l34 199q35 197 150.5 323.5t253.5 126.5l-23 -116q-67 0 -131.5 -94t-91.5 -240l-35 -199q-24 -139 -88.5 -242t-152.5 -151q71 -47 99.5 -150t4.5 -241 l-35 -195q-26 -145 5.5 -238.5t99.5 -93.5z" />
<glyph unicode="|" d="M147 -512v2048h154v-2048h-154z" />
<glyph unicode="}" horiz-adv-x="649" d="M-92 -528l18 118q67 0 132 93.5t92 238.5l32 195q24 138 90 241t154 150q-71 48 -99.5 151.5t-4.5 241.5l34 199q26 146 -5 240t-99 94l20 116q138 0 208 -126.5t34 -323.5l-35 -199q-24 -146 7.5 -240t99.5 -94l-21 -116q-68 0 -132.5 -94t-90.5 -240l-35 -195 q-35 -197 -148.5 -323.5t-250.5 -126.5z" />
<glyph unicode="~" horiz-adv-x="884" d="M182 508h-104q17 98 90.5 159.5t167.5 61.5q44 0 77.5 -13.5t54.5 -32.5t40.5 -37.5t46.5 -32t61 -13.5q51 0 90 33.5t48 87.5h104q-19 -99 -91.5 -160t-168.5 -61q-45 0 -78.5 13.5t-54.5 33t-40 38.5t-45.5 32.5t-60.5 13.5q-51 0 -89.5 -34t-47.5 -89z" />
<glyph unicode="&#xa1;" d="M186 834q7 43 42.5 72.5t78.5 29.5t67.5 -29.5t16.5 -72.5t-43 -73t-78 -30t-67.5 30t-16.5 73zM158 526h153l-184 -1038h-154z" />
<glyph unicode="&#xa2;" horiz-adv-x="976" d="M377 -205l33 193q-180 22 -267.5 150t-52.5 323q34 193 165.5 320.5t319.5 150.5l35 194h92l-34 -190q190 -9 295 -139l-113 -95q-71 91 -205 97l-119 -676q139 3 240 94l78 -96q-147 -128 -342 -137l-33 -189h-92zM248 461q-23 -129 28 -217.5t158 -112.5l117 660 q-116 -25 -198 -113.5t-105 -216.5z" />
<glyph unicode="&#xa3;" horiz-adv-x="1069" d="M123 655l22 123h156l49 281q30 176 161 282.5t308 106.5q186 0 275 -113l-119 -104q-58 74 -174 74q-110 0 -191.5 -67t-101.5 -179l-49 -281h362l-22 -123h-363l-71 -413q46 -13 98.5 -46t98.5 -57t91 -24q55 0 94 33.5t48 87.5h125q-20 -114 -98.5 -183t-186.5 -69 q-56 0 -109.5 21.5t-88.5 47t-80.5 47t-86.5 21.5q-56 0 -94 -33t-47 -88h-125q15 88 69 151.5t132 88.5l74 415h-156z" />
<glyph unicode="&#xa4;" horiz-adv-x="1085" d="M195 614q0 119 57 201l-170 172l86 88l174 -174q84 62 201 62q116 0 200 -62l175 174l86 -88l-173 -172q60 -82 60 -201t-60 -204l173 -170l-89 -86l-172 172q-82 -60 -200 -60q-119 0 -201 60l-172 -172l-88 86l170 170q-57 85 -57 204zM334 614q0 -103 58.5 -167 t150.5 -64q94 0 152.5 64t58.5 167q0 101 -58.5 165.5t-152.5 64.5q-92 0 -150.5 -64.5t-58.5 -165.5z" />
<glyph unicode="&#xa5;" horiz-adv-x="1386" d="M324 451l14 92h287l14 73l-403 818h184l325 -660l560 660h184l-692 -820l-13 -71h287l-16 -92h-287l-29 -170h285l-14 -93h-287l-33 -188h-160l33 188h-287l17 93h287l28 170h-284z" />
<glyph unicode="&#xa6;" d="M147 -512v922h154v-922h-154zM301 1536v-922h-154v922h154z" />
<glyph unicode="&#xa7;" horiz-adv-x="866" d="M408 899l344 -418l-119 -102l-350 422q-109 135 -80 299q28 155 149.5 251.5t288.5 96.5q198 0 293 -137l-117 -99q-65 97 -201 97q-97 0 -168 -58.5t-88 -150.5q-19 -125 48 -201zM455 20l-344 420l120 103l349 -422q111 -137 79 -301q-28 -155 -148.5 -251.5 t-287.5 -96.5q-196 0 -293 137l115 100q66 -98 201 -98q97 0 169 59.5t87 151.5q19 120 -47 198z" />
<glyph unicode="&#xa8;" horiz-adv-x="876" d="M266 1171q8 41 41 70t74 29q40 0 63.5 -29t16.5 -70q-8 -40 -41 -68t-74 -28q-40 0 -63.5 28t-16.5 68zM651 1171q6 41 40 70t75 29t64.5 -29t15.5 -70q-8 -40 -41 -68t-74 -28t-64.5 28t-15.5 68z" />
<glyph unicode="&#xa9;" horiz-adv-x="1648" d="M145 717q38 215 158 381.5t300.5 258t393.5 91.5t360.5 -92t208.5 -258t23 -381q-59 -327 -293.5 -530t-556.5 -203q-213 0 -361.5 92t-210 258.5t-22.5 382.5zM264 717q-51 -284 86 -461.5t404 -177.5q268 0 466.5 177t249.5 462q33 187 -17.5 332t-173.5 225t-300 80 q-176 0 -327.5 -80t-253 -225.5t-134.5 -331.5zM616 717q-22 -125 40 -204t182 -79q123 0 211 78l51 -59q-119 -103 -283 -103q-162 0 -244.5 101t-54.5 266q29 163 148 264.5t282 101.5q160 0 244 -104l-72 -59q-61 77 -182 77t-210 -77.5t-112 -202.5z" />
<glyph unicode="&#xaa;" horiz-adv-x="532" d="M567 989l-12 -63q-12 -6 -37 -6q-69 0 -82 55q-73 -60 -153 -60q-69 0 -100 42.5t-21 99.5q13 79 89.5 123.5t182.5 44.5q19 0 35 -4l10 53q5 34 -14.5 61t-65.5 27q-66 0 -114 -41l-43 51q80 70 180 70q85 0 126 -49t30 -119l-43 -244q-9 -41 32 -41zM328 997 q65 0 110 45l21 113q-8 2 -31 2q-65 0 -112 -24t-54 -66q-6 -27 9.5 -48.5t56.5 -21.5z" />
<glyph unicode="&#xab;" horiz-adv-x="962" d="M367 162l-287 350l412 350l63 -80l-315 -270l221 -270zM715 162l-287 350l412 350l63 -80l-315 -270l221 -270z" />
<glyph unicode="&#xac;" horiz-adv-x="1024" d="M123 553v123h778v-359h-123v236h-655z" />
<glyph unicode="&#xad;" horiz-adv-x="696" d="M123 481v123h450v-123h-450z" />
<glyph unicode="&#xae;" horiz-adv-x="1648" d="M145 717q38 215 158 381.5t300.5 258t393.5 91.5t360.5 -92t208.5 -258t23 -381q-59 -327 -293.5 -530t-556.5 -203q-213 0 -361.5 92t-210 258.5t-22.5 382.5zM264 717q-51 -284 86 -461.5t404 -177.5q268 0 466.5 177t249.5 462q33 187 -17.5 332t-173.5 225t-300 80 q-176 0 -327.5 -80t-253 -225.5t-134.5 -331.5zM946 356l-106 308h-88l-56 -308h-98l127 717h209q97 0 147 -56t33 -149q-13 -74 -61 -125.5t-119 -70.5l121 -316h-109zM1016 868q9 55 -17 88t-79 33h-111l-45 -244h113q52 0 90 33.5t49 89.5z" />
<glyph unicode="&#xaf;" horiz-adv-x="768" d="M246 1110l16 98h502l-16 -98h-502z" />
<glyph unicode="&#xb0;" horiz-adv-x="593" d="M92 1233q0 95 57 153t148 58q94 0 150.5 -58t56.5 -153q0 -94 -56.5 -151.5t-150.5 -57.5q-91 0 -148 58t-57 151zM176 1233q0 -57 33.5 -91t87.5 -34q56 0 89.5 34t33.5 91t-34 91t-89 34q-54 0 -87.5 -34t-33.5 -91z" />
<glyph unicode="&#xb1;" horiz-adv-x="890" d="M123 557v123h260v262h123v-262h262v-123h-262v-260h-123v260h-260zM123 106v123h645v-123h-645z" />
<glyph unicode="&#xb2;" horiz-adv-x="571" d="M123 795l362 307q47 40 56 110q12 65 -16 105.5t-85 40.5t-100 -40.5t-55 -105.5h-95q19 102 92.5 166t172.5 64q100 0 150.5 -64.5t31.5 -165.5q-17 -101 -98 -172l-289 -245h313l-14 -78h-440z" />
<glyph unicode="&#xb3;" horiz-adv-x="587" d="M350 1065l15 78h47q47 0 82 30.5t43 77.5q9 47 -15 77t-71 30t-82.5 -30t-42.5 -77h-97q15 85 81 138t155 53t136 -53t32 -138q-18 -100 -109 -145q101 -50 80 -178q-19 -99 -92.5 -159t-175.5 -60q-103 0 -156.5 60.5t-34.5 158.5h95q-11 -62 19.5 -99.5t90.5 -37.5 t104 38t54 99q11 60 -20 98.5t-91 38.5h-47z" />
<glyph unicode="&#xb4;" horiz-adv-x="542" d="M217 1126l305 258l64 -79l-301 -258z" />
<glyph unicode="&#xb5;" horiz-adv-x="1085" d="M-119 -410l19 103q51 0 86 27t45 81l94 543l6 35l96 543h160l-96 -543q-20 -114 33.5 -185t160.5 -71q106 0 185.5 71t99.5 185l96 543h152l-96 -543q-32 -177 -160 -286t-305 -109q-140 0 -230 71l-45 -258q-17 -101 -80.5 -159t-154.5 -58q-43 0 -66 10z" />
<glyph unicode="&#xb6;" horiz-adv-x="1181" d="M895 1434l-252 -1434h-147l112 649h-61q-184 0 -277 106.5t-61 284.5q31 179 162 286.5t315 107.5h209zM803 0l252 1434h147l-252 -1434h-147z" />
<glyph unicode="&#xb7;" d="M131 512q6 42 41 72t78 30t67.5 -29.5t18.5 -72.5q-9 -43 -44.5 -72.5t-78.5 -29.5t-67 29.5t-15 72.5z" />
<glyph unicode="&#xb8;" horiz-adv-x="540" d="M205 0l-23 -121q61 -11 90 -52t19 -106q-13 -72 -69.5 -116.5t-131.5 -44.5q-72 0 -115 49l62 53q26 -29 67 -29q42 0 74 25.5t39 67.5q6 43 -22 68.5t-95 25.5l33 180h72z" />
<glyph unicode="&#xb9;" horiz-adv-x="374" d="M205 1331l12 74l211 33l-127 -721h-92l113 635z" />
<glyph unicode="&#xba;" horiz-adv-x="645" d="M184 1180q20 117 106.5 189.5t203.5 72.5t178 -72.5t39 -189.5q-20 -118 -106.5 -191.5t-203.5 -73.5t-178 73.5t-39 191.5zM285 1180q-13 -79 23 -127.5t108 -48.5q74 0 127.5 48.5t66.5 127.5q14 77 -23 125.5t-110 48.5q-72 0 -125 -48.5t-67 -125.5z" />
<glyph unicode="&#xbb;" horiz-adv-x="962" d="M889 512l-414 -350l-65 80l319 270l-225 270l96 80zM541 512l-414 -350l-66 80l320 270l-225 270l96 80z" />
<glyph unicode="&#xbc;" horiz-adv-x="1298" d="M205 1331l12 74l211 33l-127 -721h-92l113 635zM117 0l1007 1434h115l-1006 -1434h-116zM991 0l23 133h-324l6 43l416 541h92l-88 -504h62l-13 -80h-59l-23 -133h-92zM819 213h211l66 365z" />
<glyph unicode="&#xbd;" horiz-adv-x="1404" d="M205 1331l12 74l211 33l-127 -721h-92l113 635zM117 0l1007 1434h115l-1006 -1434h-116zM829 78l363 307q44 38 57 111q11 65 -17 105t-85 40t-100.5 -40.5t-53.5 -104.5h-94q17 102 90 165.5t174 63.5q98 0 149 -64t34 -165q-20 -101 -101 -172l-287 -246h314l-15 -78 h-440z" />
<glyph unicode="&#xbe;" horiz-adv-x="1335" d="M350 1065l15 78h47q47 0 82 30.5t43 77.5q9 47 -15 77t-71 30t-82.5 -30t-42.5 -77h-97q15 85 81 138t155 53t136 -53t32 -138q-18 -100 -109 -145q101 -50 80 -178q-19 -99 -92.5 -159t-175.5 -60q-103 0 -156.5 60.5t-34.5 158.5h95q-11 -62 19.5 -99.5t90.5 -37.5 t104 38t54 99q11 60 -20 98.5t-91 38.5h-47zM205 0l1005 1434h117l-1008 -1434h-114zM1028 0l23 133h-324l6 43l416 541h92l-88 -504h61l-12 -80h-59l-23 -133h-92zM856 213h211l66 365z" />
<glyph unicode="&#xbf;" horiz-adv-x="964" d="M657 -276l82 -101q-190 -151 -420 -151q-129 0 -213 53t-113 135.5t-11 181.5q11 62 37 111t60 82t73 61.5t77.5 57.5t72.5 62t60 82.5t37 111.5l23 116h153l-22 -116q-13 -76 -41.5 -137.5t-63 -101.5t-73.5 -73t-77.5 -59.5t-71 -53.5t-56 -62.5t-31.5 -78.5 q-7 -42 0.5 -81.5t30 -74.5t68 -56t108.5 -21q79 0 163.5 31t147.5 82zM653 834q-6 -43 -40.5 -73t-77.5 -30t-67.5 30t-18.5 73q9 43 44 72.5t78 29.5t67 -29.5t15 -72.5z" />
<glyph unicode="&#xc0;" horiz-adv-x="1497" d="M1169 0l-98 410h-668l-239 -410h-184l864 1434h149l359 -1434h-183zM883 1231l-398 -678h553zM862 1845l211 -258l-92 -80l-213 258z" />
<glyph unicode="&#xc1;" horiz-adv-x="1497" d="M1169 0l-98 410h-668l-239 -410h-184l864 1434h149l359 -1434h-183zM883 1231l-398 -678h553zM815 1587l305 258l66 -80l-303 -258z" />
<glyph unicode="&#xc2;" horiz-adv-x="1497" d="M1169 0l-98 410h-668l-239 -410h-184l864 1434h149l359 -1434h-183zM883 1231l-398 -678h553zM989 1845l213 -258l-94 -80l-145 179l-211 -179l-66 80z" />
<glyph unicode="&#xc3;" horiz-adv-x="1497" d="M1169 0l-98 410h-668l-239 -410h-184l864 1434h149l359 -1434h-183zM883 1231l-398 -678h553zM745 1563h-90q13 81 71 130.5t134 49.5q41 0 70.5 -15.5t43.5 -33.5t37 -33.5t52 -15.5q37 0 66 25t36 65h88q-13 -81 -70.5 -131t-135.5 -50q-34 0 -59 10t-40 25t-28 29.5 t-31.5 24.5t-42.5 10q-39 0 -67 -24.5t-34 -65.5z" />
<glyph unicode="&#xc4;" horiz-adv-x="1497" d="M1169 0l-98 410h-668l-239 -410h-184l864 1434h149l359 -1434h-183zM883 1231l-398 -678h553zM666 1632q6 41 39 70t73 29q41 0 64.5 -28.5t17.5 -70.5q-8 -40 -42 -68t-75 -28q-40 0 -62.5 28t-14.5 68zM1049 1632q8 42 40.5 70.5t73.5 28.5t64.5 -28.5t17.5 -70.5 q-8 -40 -42 -68t-75 -28t-64 28t-15 68z" />
<glyph unicode="&#xc5;" horiz-adv-x="1497" d="M1169 0l-98 410h-668l-239 -410h-184l864 1434h149l359 -1434h-183zM883 1231l-398 -678h553zM782 1679q13 83 73 134t140 51q81 0 121.5 -50.5t26.5 -134.5q-15 -83 -73 -133.5t-140 -50.5q-80 0 -121.5 50.5t-26.5 133.5zM856 1677q-9 -49 15.5 -78.5t70.5 -29.5 q48 0 84 29.5t43 78.5q9 50 -16 80.5t-72 30.5q-46 0 -81 -30.5t-44 -80.5z" />
<glyph unicode="&#xc6;" horiz-adv-x="1601" d="M1083 1300l-90 -512h486l-23 -133h-487l-92 -522h563l-23 -133h-721l72 410h-350l-250 -410h-184l888 1434h787l-23 -134h-553zM500 553h293l120 678z" />
<glyph unicode="&#xc7;" horiz-adv-x="1452" d="M319 717q-46 -262 82 -426t379 -164q257 0 445 164l86 -101q-225 -194 -531 -206l-18 -105q61 -11 89.5 -52t18.5 -106q-13 -72 -69 -116.5t-131 -44.5q-72 0 -115 49l61 53q26 -29 68 -29t74 25.5t39 67.5q6 43 -22 68.5t-95 25.5l29 166q-200 8 -338.5 101t-195.5 257 t-19 373q38 215 158 381.5t300.5 258t393.5 91.5q159 0 283.5 -53.5t203.5 -153.5l-121 -102q-61 79 -159.5 122.5t-225.5 43.5q-252 0 -438 -163.5t-232 -424.5z" />
<glyph unicode="&#xc8;" horiz-adv-x="1038" d="M469 1300l-90 -512h532l-24 -133h-533l-92 -522h610l-22 -133h-768l252 1434h758l-25 -134h-598zM657 1845l211 -258l-92 -80l-213 258z" />
<glyph unicode="&#xc9;" horiz-adv-x="1038" d="M469 1300l-90 -512h532l-24 -133h-533l-92 -522h610l-22 -133h-768l252 1434h758l-25 -134h-598zM612 1587l306 258l65 -80l-303 -258z" />
<glyph unicode="&#xca;" horiz-adv-x="1038" d="M469 1300l-90 -512h532l-24 -133h-533l-92 -522h610l-22 -133h-768l252 1434h758l-25 -134h-598zM786 1845l213 -258l-94 -80l-145 179l-211 -179l-66 80z" />
<glyph unicode="&#xcb;" horiz-adv-x="1038" d="M469 1300l-90 -512h532l-24 -133h-533l-92 -522h610l-22 -133h-768l252 1434h758l-25 -134h-598zM461 1632q6 41 39 70t73 29q41 0 64.5 -28.5t17.5 -70.5q-8 -40 -41.5 -68t-74.5 -28q-40 0 -62.5 28t-15.5 68zM844 1632q8 42 40.5 70.5t73.5 28.5t64.5 -28.5 t17.5 -70.5q-8 -40 -41.5 -68t-74.5 -28t-64.5 28t-15.5 68z" />
<glyph unicode="&#xcc;" horiz-adv-x="475" d="M76 0l252 1434h159l-251 -1434h-160zM350 1845l213 -258l-94 -80l-213 258z" />
<glyph unicode="&#xcd;" horiz-adv-x="475" d="M76 0l252 1434h159l-251 -1434h-160zM307 1587l303 258l66 -80l-303 -258z" />
<glyph unicode="&#xce;" horiz-adv-x="475" d="M76 0l252 1434h159l-251 -1434h-160zM481 1845l211 -258l-92 -80l-147 179l-209 -179l-68 80z" />
<glyph unicode="&#xcf;" horiz-adv-x="475" d="M76 0l252 1434h159l-251 -1434h-160zM184 1632q6 41 40 70t75 29q40 0 63 -29t17 -70q-7 -40 -41 -68t-74 -28q-41 0 -64.5 28t-15.5 68zM508 1632q6 41 39.5 70t73.5 29q41 0 64.5 -29t16.5 -70q-8 -40 -41.5 -68t-74.5 -28q-40 0 -62.5 28t-15.5 68z" />
<glyph unicode="&#xd0;" horiz-adv-x="1468" d="M133 655l23 123h112l117 656h420q324 0 488 -196.5t106 -520.5q-57 -326 -289.5 -521.5t-556.5 -195.5h-420l113 655h-113zM1235 717q46 260 -79.5 418.5t-375.5 158.5h-256l-92 -516h328l-23 -123h-327l-91 -518h256q250 0 432 159t228 421z" />
<glyph unicode="&#xd1;" horiz-adv-x="1478" d="M334 1434h106l686 -1133l201 1133h158l-252 -1434h-107l-688 1133l-198 -1133h-158zM737 1563h-90q13 81 71 130.5t134 49.5q41 0 70.5 -15.5t43.5 -33.5t37 -33.5t52 -15.5q37 0 66 25t36 65h88q-13 -81 -71 -131t-136 -50q-34 0 -59 10t-39.5 25t-28 29.5t-31.5 24.5 t-42 10q-39 0 -67 -24.5t-34 -65.5z" />
<glyph unicode="&#xd2;" horiz-adv-x="1650" d="M154 717q38 215 157 381.5t298 258t390 91.5t357 -92t205.5 -258t21.5 -381q-59 -328 -291 -530.5t-551 -202.5q-211 0 -358 92t-207.5 258.5t-21.5 382.5zM317 717q-46 -263 78.5 -426.5t370.5 -163.5t426.5 163.5t226.5 426.5q46 262 -77.5 425t-368.5 163 t-427.5 -163.5t-228.5 -424.5zM938 1845l213 -258l-94 -80l-213 258z" />
<glyph unicode="&#xd3;" horiz-adv-x="1650" d="M154 717q38 215 157 381.5t298 258t390 91.5t357 -92t205.5 -258t21.5 -381q-59 -328 -291 -530.5t-551 -202.5q-211 0 -358 92t-207.5 258.5t-21.5 382.5zM317 717q-46 -263 78.5 -426.5t370.5 -163.5t426.5 163.5t226.5 426.5q46 262 -77.5 425t-368.5 163 t-427.5 -163.5t-228.5 -424.5zM893 1587l303 258l66 -80l-304 -258z" />
<glyph unicode="&#xd4;" horiz-adv-x="1650" d="M154 717q38 215 157 381.5t298 258t390 91.5t357 -92t205.5 -258t21.5 -381q-59 -328 -291 -530.5t-551 -202.5q-211 0 -358 92t-207.5 258.5t-21.5 382.5zM317 717q-46 -263 78.5 -426.5t370.5 -163.5t426.5 163.5t226.5 426.5q46 262 -77.5 425t-368.5 163 t-427.5 -163.5t-228.5 -424.5zM1069 1845l211 -258l-92 -80l-148 179l-209 -179l-67 80z" />
<glyph unicode="&#xd5;" horiz-adv-x="1650" d="M154 717q38 215 157 381.5t298 258t390 91.5t357 -92t205.5 -258t21.5 -381q-59 -328 -291 -530.5t-551 -202.5q-211 0 -358 92t-207.5 258.5t-21.5 382.5zM317 717q-46 -263 78.5 -426.5t370.5 -163.5t426.5 163.5t226.5 426.5q46 262 -77.5 425t-368.5 163 t-427.5 -163.5t-228.5 -424.5zM823 1563h-88q13 81 70 130.5t133 49.5q41 0 70.5 -15.5t43.5 -33.5t37 -33.5t52 -15.5q38 0 67 25t35 65h90q-15 -81 -72.5 -131t-134.5 -50q-34 0 -59 10t-40 25t-28.5 29.5t-32 24.5t-42.5 10q-37 0 -65.5 -24.5t-35.5 -65.5z" />
<glyph unicode="&#xd6;" horiz-adv-x="1650" d="M154 717q38 215 157 381.5t298 258t390 91.5t357 -92t205.5 -258t21.5 -381q-59 -328 -291 -530.5t-551 -202.5q-211 0 -358 92t-207.5 258.5t-21.5 382.5zM317 717q-46 -263 78.5 -426.5t370.5 -163.5t426.5 163.5t226.5 426.5q46 262 -77.5 425t-368.5 163 t-427.5 -163.5t-228.5 -424.5zM741 1632q6 41 40 70t75 29q40 0 63 -29t17 -70q-7 -40 -41 -68t-74 -28q-41 0 -64.5 28t-15.5 68zM1126 1632q6 41 39.5 70t73.5 29q41 0 65 -29t17 -70q-8 -40 -42 -68t-75 -28q-40 0 -62.5 28t-15.5 68z" />
<glyph unicode="&#xd7;" horiz-adv-x="890" d="M205 266l-88 86l241 242l-241 240l88 88l239 -242l242 242l86 -88l-240 -240l240 -242l-86 -86l-242 240z" />
<glyph unicode="&#xd8;" horiz-adv-x="1650" d="M31 -16l219 213q-73 97 -98.5 227.5t2.5 292.5q38 215 157 381.5t298 258t390 91.5q251 0 410 -131l135 131h164l-221 -213q151 -203 96 -518q-59 -328 -291 -530.5t-551 -202.5q-252 0 -411 131l-135 -131h-164zM317 717q-44 -240 60 -400l909 881q-123 107 -313 107 q-245 0 -427.5 -163.5t-228.5 -424.5zM1419 717q41 240 -57 395l-911 -881q119 -104 315 -104q246 0 426.5 163.5t226.5 426.5z" />
<glyph unicode="&#xd9;" horiz-adv-x="1396" d="M1083 522l160 912h160l-160 -912q-43 -241 -218 -389.5t-413 -148.5q-239 0 -360 148t-80 390l162 912h158l-160 -912q-31 -177 53 -286t250 -109q169 0 293 109t155 286zM811 1845l211 -258l-92 -80l-213 258z" />
<glyph unicode="&#xda;" horiz-adv-x="1396" d="M1083 522l160 912h160l-160 -912q-43 -241 -218 -389.5t-413 -148.5q-239 0 -360 148t-80 390l162 912h158l-160 -912q-31 -177 53 -286t250 -109q169 0 293 109t155 286zM766 1587l305 258l66 -80l-303 -258z" />
<glyph unicode="&#xdb;" horiz-adv-x="1396" d="M1083 522l160 912h160l-160 -912q-43 -241 -218 -389.5t-413 -148.5q-239 0 -360 148t-80 390l162 912h158l-160 -912q-31 -177 53 -286t250 -109q169 0 293 109t155 286zM940 1845l213 -258l-94 -80l-146 179l-211 -179l-65 80z" />
<glyph unicode="&#xdc;" horiz-adv-x="1396" d="M1083 522l160 912h160l-160 -912q-43 -241 -218 -389.5t-413 -148.5q-239 0 -360 148t-80 390l162 912h158l-160 -912q-31 -177 53 -286t250 -109q169 0 293 109t155 286zM614 1632q6 41 39.5 70t73.5 29q41 0 64.5 -28.5t17.5 -70.5q-8 -40 -42 -68t-75 -28 q-40 0 -62.5 28t-15.5 68zM997 1632q8 41 41 70t74 29t64.5 -28.5t17.5 -70.5q-8 -40 -42 -68t-75 -28t-64.5 28t-15.5 68z" />
<glyph unicode="&#xdd;" horiz-adv-x="1386" d="M530 0l109 616l-403 818h184l325 -660l560 660h184l-692 -820l-107 -614h-160zM762 1587l303 258l65 -80l-303 -258z" />
<glyph unicode="&#xde;" horiz-adv-x="1083" d="M82 0l252 1434h164l-54 -297h226q188 0 284 -110t64 -294q-32 -182 -167 -291.5t-323 -109.5h-225l-57 -332h-164zM854 733q22 120 -35.5 192t-173.5 72h-225l-92 -526h225q114 0 196.5 72t104.5 190z" />
<glyph unicode="&#xdf;" horiz-adv-x="1228" d="M430 1167l-205 -1167h-159l204 1167q31 170 162 276.5t311 106.5q181 0 274 -106t64 -277q-23 -132 -108 -227t-207 -127q-10 -60 6 -104t49 -71t74.5 -50t82 -48t72.5 -57t46 -85.5t2 -125.5q-22 -117 -117.5 -202.5t-241.5 -85.5q-89 0 -163 33t-117 92l110 94 q29 -41 79.5 -64.5t103.5 -23.5q82 0 131.5 47t58.5 102q7 41 -5.5 74t-38.5 54t-60.5 42.5t-71.5 40.5t-70 47t-57 63t-32.5 88t3.5 122l23 127q109 0 189.5 67.5t99.5 175.5q20 109 -37 178.5t-166 69.5q-108 0 -189 -69t-100 -177z" />
<glyph unicode="&#xe0;" horiz-adv-x="1103" d="M668 936q113 0 205 -33.5t143 -97.5l-142 -805h-153l12 74q-129 -90 -284 -90q-198 0 -297 132t-62 343q37 216 193 346.5t385 130.5zM248 461q-26 -151 46.5 -244.5t217.5 -93.5q140 0 246 86l90 520q-34 32 -92 51t-121 19q-152 0 -255.5 -92.5t-131.5 -245.5z M602 1384l211 -258l-92 -79l-215 258z" />
<glyph unicode="&#xe1;" horiz-adv-x="1103" d="M668 936q113 0 205 -33.5t143 -97.5l-142 -805h-153l12 74q-129 -90 -284 -90q-198 0 -297 132t-62 343q37 216 193 346.5t385 130.5zM248 461q-26 -151 46.5 -244.5t217.5 -93.5q140 0 246 86l90 520q-34 32 -92 51t-121 19q-152 0 -255.5 -92.5t-131.5 -245.5z M557 1126l303 258l66 -79l-303 -258z" />
<glyph unicode="&#xe2;" horiz-adv-x="1103" d="M668 936q113 0 205 -33.5t143 -97.5l-142 -805h-153l12 74q-129 -90 -284 -90q-198 0 -297 132t-62 343q37 216 193 346.5t385 130.5zM248 461q-26 -151 46.5 -244.5t217.5 -93.5q140 0 246 86l90 520q-34 32 -92 51t-121 19q-152 0 -255.5 -92.5t-131.5 -245.5z M733 1384l211 -258l-92 -79l-147 178l-209 -178l-68 79z" />
<glyph unicode="&#xe3;" horiz-adv-x="1103" d="M668 936q113 0 205 -33.5t143 -97.5l-142 -805h-153l12 74q-129 -90 -284 -90q-198 0 -297 132t-62 343q37 216 193 346.5t385 130.5zM248 461q-26 -151 46.5 -244.5t217.5 -93.5q140 0 246 86l90 520q-34 32 -92 51t-121 19q-152 0 -255.5 -92.5t-131.5 -245.5z M487 1102h-88q13 81 71 130.5t134 49.5q41 0 70.5 -15.5t43.5 -33.5t37 -33.5t52 -15.5q37 0 65.5 25.5t34.5 64.5h90q-13 -81 -71 -130.5t-135 -49.5q-41 0 -70.5 15.5t-43 33.5t-36 33.5t-51.5 15.5q-37 0 -66.5 -24.5t-36.5 -65.5z" />
<glyph unicode="&#xe4;" horiz-adv-x="1103" d="M668 936q113 0 205 -33.5t143 -97.5l-142 -805h-153l12 74q-129 -90 -284 -90q-198 0 -297 132t-62 343q37 216 193 346.5t385 130.5zM248 461q-26 -151 46.5 -244.5t217.5 -93.5q140 0 246 86l90 520q-34 32 -92 51t-121 19q-152 0 -255.5 -92.5t-131.5 -245.5z M786 1171q7 41 41 70t74 29q41 0 64.5 -28.5t17.5 -70.5q-8 -40 -42 -68t-75 -28q-40 0 -63.5 28t-16.5 68zM403 1171q6 41 39.5 70t73.5 29q41 0 64.5 -28.5t17.5 -70.5q-7 -40 -41 -68t-74 -28q-41 0 -64.5 28t-15.5 68z" />
<glyph unicode="&#xe5;" horiz-adv-x="1103" d="M668 936q113 0 205 -33.5t143 -97.5l-142 -805h-153l12 74q-129 -90 -284 -90q-198 0 -297 132t-62 343q37 216 193 346.5t385 130.5zM248 461q-26 -151 46.5 -244.5t217.5 -93.5q140 0 246 86l90 520q-34 32 -92 51t-121 19q-152 0 -255.5 -92.5t-131.5 -245.5z M524 1219q13 82 73 133t140 51q81 0 121.5 -50t26.5 -134q-15 -83 -73 -134t-140 -51q-80 0 -121.5 51t-26.5 134zM598 1217q-9 -49 15.5 -79t70.5 -30q48 0 83 30t44 79q9 50 -16 80t-72 30t-82.5 -30t-42.5 -80z" />
<glyph unicode="&#xe6;" horiz-adv-x="1472" d="M616 532l21 109q10 66 -28.5 117t-127.5 51q-55 0 -117.5 -21.5t-101.5 -54.5l-69 86q66 56 150.5 86.5t172.5 30.5q158 0 227 -105q130 105 306 105q202 0 286 -135.5t41 -382.5h-626l-33 -189q67 -106 231 -106q154 0 262 94l76 -96q-159 -137 -371 -137 q-227 0 -331 141q-67 -67 -148.5 -104t-163.5 -37q-129 0 -184.5 75.5t-36.5 178.5q17 94 89 162.5t177.5 102.5t231.5 34q32 0 67 -5zM791 641l-21 -111h473q8 127 -47.5 199t-167.5 72q-138 0 -233 -101q0 -19 -4 -59zM559 209l39 217q-28 4 -59 4q-130 0 -222.5 -48 t-107.5 -130q-6 -21 -0.5 -45.5t17 -45.5t41.5 -34.5t73 -13.5q54 0 112.5 25t106.5 71z" />
<glyph unicode="&#xe7;" horiz-adv-x="976" d="M248 461q-26 -151 46.5 -244.5t215.5 -93.5q148 0 256 94l78 -96q-143 -128 -340 -137l-19 -105q60 -11 89.5 -52t17.5 -106q-13 -72 -68.5 -116.5t-130.5 -44.5q-74 0 -114 49l61 53q23 -29 66 -29t74 25.5t38 67.5q8 42 -20 68t-95 26l29 166q-190 14 -284.5 144.5 t-57.5 330.5q37 212 191 343.5t366 131.5q209 0 316 -139l-113 -95q-74 97 -221 97q-142 0 -247.5 -93.5t-133.5 -244.5z" />
<glyph unicode="&#xe8;" horiz-adv-x="1040" d="M944 418h-698q-14 -135 58 -215t212 -80q152 0 260 94l76 -96q-156 -137 -369 -137q-215 0 -323 132t-68 349q35 210 180.5 340.5t345.5 130.5q203 0 285.5 -137.5t40.5 -380.5zM594 801q-114 0 -203.5 -73.5t-124.5 -197.5h543q9 127 -46 199t-169 72zM565 1384 l213 -258l-94 -79l-213 258z" />
<glyph unicode="&#xe9;" horiz-adv-x="1040" d="M944 418h-698q-14 -135 58 -215t212 -80q152 0 260 94l76 -96q-156 -137 -369 -137q-215 0 -323 132t-68 349q35 210 180.5 340.5t345.5 130.5q203 0 285.5 -137.5t40.5 -380.5zM594 801q-114 0 -203.5 -73.5t-124.5 -197.5h543q9 127 -46 199t-169 72zM518 1126l305 258 l64 -79l-301 -258z" />
<glyph unicode="&#xea;" horiz-adv-x="1040" d="M944 418h-698q-14 -135 58 -215t212 -80q152 0 260 94l76 -96q-156 -137 -369 -137q-215 0 -323 132t-68 349q35 210 180.5 340.5t345.5 130.5q203 0 285.5 -137.5t40.5 -380.5zM594 801q-114 0 -203.5 -73.5t-124.5 -197.5h543q9 127 -46 199t-169 72zM694 1384 l213 -258l-94 -79l-147 178l-209 -178l-66 79z" />
<glyph unicode="&#xeb;" horiz-adv-x="1040" d="M944 418h-698q-14 -135 58 -215t212 -80q152 0 260 94l76 -96q-156 -137 -369 -137q-215 0 -323 132t-68 349q35 210 180.5 340.5t345.5 130.5q203 0 285.5 -137.5t40.5 -380.5zM594 801q-114 0 -203.5 -73.5t-124.5 -197.5h543q9 127 -46 199t-169 72zM369 1171 q6 41 39 70t73 29q41 0 64.5 -28.5t17.5 -70.5q-8 -40 -41 -68t-73 -28q-41 0 -64.5 28t-15.5 68zM752 1171q7 41 40.5 70t73.5 29q41 0 64.5 -28.5t17.5 -70.5q-8 -40 -42 -68t-75 -28q-40 0 -63 28t-16 68z" />
<glyph unicode="&#xec;" d="M256 1384l213 -258l-94 -79l-213 258zM66 0l161 922h154l-162 -922h-153z" />
<glyph unicode="&#xed;" d="M213 1126l303 258l66 -79l-303 -258zM66 0l161 922h154l-162 -922h-153z" />
<glyph unicode="&#xee;" d="M66 0l161 922h154l-162 -922h-153zM387 1384l211 -258l-92 -79l-148 178l-208 -178l-68 79z" />
<glyph unicode="&#xef;" d="M66 0l161 922h154l-162 -922h-153zM94 1171q8 41 41 70t74 29q40 0 63.5 -29t16.5 -70q-8 -40 -41 -68t-74 -28q-40 0 -63.5 28t-16.5 68zM408 1171q6 41 39.5 70t74.5 29t64.5 -29t15.5 -70q-8 -40 -41 -68t-74 -28t-64 28t-15 68z" />
<glyph unicode="&#xf0;" horiz-adv-x="1136" d="M453 1098l-43 106l194 101l-98 170l151 75q43 -80 95 -168l206 107l43 -105l-190 -100q48 -98 74.5 -153t60 -130t49.5 -121t33 -104.5t21.5 -103.5t4 -95.5t-9.5 -101.5q-39 -225 -193 -358t-368 -133q-213 0 -321.5 132.5t-71.5 346.5q38 212 194.5 342.5t364.5 130.5 q95 0 166 -43q-82 186 -149 315zM883 461q28 150 -44.5 244t-213.5 94t-245 -93.5t-132 -244.5q-26 -151 45.5 -244.5t212.5 -93.5t246 93.5t131 244.5z" />
<glyph unicode="&#xf1;" horiz-adv-x="1064" d="M227 922h154l-14 -76q133 90 286 90q157 0 233.5 -104.5t45.5 -274.5l-96 -557h-154l96 557q20 107 -31.5 174.5t-154.5 67.5q-150 0 -250 -94l-123 -705h-153zM438 1102h-88q13 81 71 130.5t134 49.5q41 0 70.5 -15.5t43.5 -33.5t37 -33.5t52 -15.5q37 0 65.5 25.5 t34.5 64.5h90q-13 -81 -71.5 -130.5t-135.5 -49.5q-41 0 -70.5 15.5t-43 33.5t-35.5 33.5t-51 15.5q-37 0 -66.5 -24.5t-36.5 -65.5z" />
<glyph unicode="&#xf2;" horiz-adv-x="1124" d="M88 461q37 212 191 343.5t366 131.5q209 0 316.5 -131.5t70.5 -343.5q-38 -213 -191.5 -345t-363.5 -132q-212 0 -319.5 131.5t-69.5 345.5zM246 461q-26 -151 44 -244.5t210 -93.5q138 0 242 94t130 244q28 150 -43.5 244t-210.5 94t-241.5 -93.5t-130.5 -244.5z M594 1384l211 -258l-92 -79l-215 258z" />
<glyph unicode="&#xf3;" horiz-adv-x="1124" d="M88 461q37 212 191 343.5t366 131.5q209 0 316.5 -131.5t70.5 -343.5q-38 -213 -191.5 -345t-363.5 -132q-212 0 -319.5 131.5t-69.5 345.5zM246 461q-26 -151 44 -244.5t210 -93.5q138 0 242 94t130 244q28 150 -43.5 244t-210.5 94t-241.5 -93.5t-130.5 -244.5z M549 1126l305 258l64 -79l-302 -258z" />
<glyph unicode="&#xf4;" horiz-adv-x="1124" d="M88 461q37 212 191 343.5t366 131.5q209 0 316.5 -131.5t70.5 -343.5q-38 -213 -191.5 -345t-363.5 -132q-212 0 -319.5 131.5t-69.5 345.5zM246 461q-26 -151 44 -244.5t210 -93.5q138 0 242 94t130 244q28 150 -43.5 244t-210.5 94t-241.5 -93.5t-130.5 -244.5z M723 1384l213 -258l-94 -79l-148 178l-209 -178l-65 79z" />
<glyph unicode="&#xf5;" horiz-adv-x="1124" d="M88 461q37 212 191 343.5t366 131.5q209 0 316.5 -131.5t70.5 -343.5q-38 -213 -191.5 -345t-363.5 -132q-212 0 -319.5 131.5t-69.5 345.5zM246 461q-26 -151 44 -244.5t210 -93.5q138 0 242 94t130 244q28 150 -43.5 244t-210.5 94t-241.5 -93.5t-130.5 -244.5z M477 1102h-88q13 81 71 130.5t134 49.5q41 0 70.5 -15.5t43.5 -33.5t37 -33.5t52 -15.5q37 0 65.5 25.5t34.5 64.5h90q-13 -81 -71.5 -130.5t-135.5 -49.5q-41 0 -70.5 15.5t-43 33.5t-35.5 33.5t-51 15.5q-37 0 -66.5 -24.5t-36.5 -65.5z" />
<glyph unicode="&#xf6;" horiz-adv-x="1124" d="M88 461q37 212 191 343.5t366 131.5q209 0 316.5 -131.5t70.5 -343.5q-38 -213 -191.5 -345t-363.5 -132q-212 0 -319.5 131.5t-69.5 345.5zM246 461q-26 -151 44 -244.5t210 -93.5q138 0 242 94t130 244q28 150 -43.5 244t-210.5 94t-241.5 -93.5t-130.5 -244.5z M395 1171q8 41 41 70t74 29q40 0 63.5 -29t16.5 -70q-8 -40 -41 -68t-74 -28q-40 0 -63.5 28t-16.5 68zM780 1171q6 41 40 70t75 29t64.5 -29t15.5 -70q-8 -40 -41 -68t-74 -28t-64.5 28t-15.5 68z" />
<glyph unicode="&#xf7;" horiz-adv-x="1024" d="M123 485v123h778v-123h-778zM416 209q0 40 28 67t68 27t67 -27t27 -67t-27 -67t-67 -27t-68 27t-28 67zM416 885q0 40 28 67t68 27t67 -27t27 -67t-27 -67t-67 -27t-68 27t-28 67z" />
<glyph unicode="&#xf8;" horiz-adv-x="1124" d="M20 -16l132 137q-101 135 -64 340q37 212 191 343.5t366 131.5q140 0 232 -59l67 69h158l-139 -143q107 -132 69 -342q-38 -214 -191 -345.5t-364 -131.5q-145 0 -239 61l-60 -61h-158zM883 461q24 133 -29 227l-512 -534q62 -41 156 -41q145 0 252 96.5t133 251.5z M236 461q-24 -131 26 -223l512 532q-67 39 -153 39q-145 0 -251 -96.5t-134 -251.5z" />
<glyph unicode="&#xf9;" horiz-adv-x="1085" d="M1018 922l-96 -543q-32 -177 -160 -286t-305 -109q-175 0 -266 109t-60 286l96 543h160l-96 -543q-20 -114 33.5 -185t160.5 -71q106 0 185.5 71t99.5 185l96 543h152zM573 1384l213 -258l-94 -79l-213 258z" />
<glyph unicode="&#xfa;" horiz-adv-x="1085" d="M1018 922l-96 -543q-32 -177 -160 -286t-305 -109q-175 0 -266 109t-60 286l96 543h160l-96 -543q-20 -114 33.5 -185t160.5 -71q106 0 185.5 71t99.5 185l96 543h152zM530 1126l304 258l65 -79l-303 -258z" />
<glyph unicode="&#xfb;" horiz-adv-x="1085" d="M1018 922l-96 -543q-32 -177 -160 -286t-305 -109q-175 0 -266 109t-60 286l96 543h160l-96 -543q-20 -114 33.5 -185t160.5 -71q106 0 185.5 71t99.5 185l96 543h152zM705 1384l210 -258l-92 -79l-147 178l-209 -178l-68 79z" />
<glyph unicode="&#xfc;" horiz-adv-x="1085" d="M1018 922l-96 -543q-32 -177 -160 -286t-305 -109q-175 0 -266 109t-60 286l96 543h160l-96 -543q-20 -114 33.5 -185t160.5 -71q106 0 185.5 71t99.5 185l96 543h152zM377 1171q6 41 39 70t73 29q41 0 64.5 -28.5t17.5 -70.5q-8 -40 -41 -68t-73 -28q-41 0 -64.5 28 t-15.5 68zM760 1171q7 41 40.5 70t73.5 29q41 0 64.5 -28.5t17.5 -70.5q-8 -40 -41.5 -68t-74.5 -28q-40 0 -63.5 28t-16.5 68z" />
<glyph unicode="&#xfd;" horiz-adv-x="1009" d="M1057 922l-885 -1434h-170l348 512l-239 922h172l170 -738l434 738h170zM492 1126l303 258l65 -79l-303 -258z" />
<glyph unicode="&#xfe;" horiz-adv-x="1107" d="M336 1536h153l-122 -692q128 92 288 92q198 0 297 -131.5t62 -343.5q-38 -214 -190 -345.5t-359 -131.5q-145 0 -240 65l-98 -561h-154zM854 461q28 150 -45.5 244t-216.5 94q-150 0 -250 -94l-88 -496q70 -86 219 -86q143 0 249 94t132 244z" />
<glyph unicode="&#xff;" horiz-adv-x="1009" d="M1057 922l-885 -1434h-170l348 512l-239 922h172l170 -738l434 738h170zM340 1171q6 41 39.5 70t73.5 29q41 0 64.5 -28.5t17.5 -70.5q-7 -40 -41 -68t-74 -28q-41 0 -64.5 28t-15.5 68zM723 1171q7 41 41 70t74 29q41 0 64.5 -28.5t17.5 -70.5q-8 -40 -42 -68t-75 -28 q-40 0 -63.5 28t-16.5 68z" />
<glyph unicode="&#x152;" horiz-adv-x="1814" d="M1296 1300l-90 -512h486l-25 -133h-485l-92 -522h563l-23 -133h-715q-88 -16 -165 -16q-213 0 -361.5 92t-210 258.5t-22.5 382.5q38 215 158 381.5t300.5 258t393.5 91.5q68 0 157 -14h707l-25 -134h-551zM774 127q80 0 160 25l201 1130q-77 23 -154 23 q-248 0 -432 -163.5t-230 -424.5q-46 -263 80 -426.5t375 -163.5z" />
<glyph unicode="&#x153;" horiz-adv-x="1699" d="M1606 418h-691q-14 -135 57.5 -215t209.5 -80q151 0 256 94l75 -96q-153 -137 -366 -137q-207 0 -311 133q-152 -133 -359 -133q-212 0 -319.5 131.5t-69.5 345.5q37 212 191 343.5t366 131.5q198 0 305 -129q142 129 332 129q201 0 284 -135.5t40 -382.5zM500 123 q159 0 268 119q-29 102 -6 223q17 115 80 217q-31 55 -89 86t-135 31q-139 0 -241.5 -93.5t-130.5 -244.5q-26 -151 44 -244.5t210 -93.5zM1260 801q-113 0 -201 -73.5t-123 -197.5h534q9 127 -44.5 199t-165.5 72z" />
<glyph unicode="&#x178;" horiz-adv-x="1386" d="M530 0l109 616l-403 818h184l325 -660l560 660h184l-692 -820l-107 -614h-160zM608 1632q6 41 40 70t75 29q40 0 63 -29t17 -70q-7 -40 -41 -68t-74 -28q-41 0 -64.5 28t-15.5 68zM993 1632q6 41 39.5 70t73.5 29q41 0 65 -29t17 -70q-8 -40 -42 -68t-75 -28 q-40 0 -62.5 28t-15.5 68z" />
<glyph unicode="&#x2c6;" horiz-adv-x="720" d="M522 1384l211 -258l-92 -79l-147 178l-209 -178l-68 79z" />
<glyph unicode="&#x2dc;" horiz-adv-x="690" d="M262 1102h-90q13 81 71 130.5t134 49.5q41 0 70.5 -15.5t43.5 -33.5t37 -33.5t52 -15.5q38 0 66 25t36 65h88q-13 -81 -70.5 -130.5t-136.5 -49.5q-41 0 -70 15.5t-42 33.5t-35 33.5t-51 15.5q-39 0 -68 -24.5t-35 -65.5z" />
<glyph unicode="&#x2000;" horiz-adv-x="932" />
<glyph unicode="&#x2001;" horiz-adv-x="1864" />
<glyph unicode="&#x2002;" horiz-adv-x="932" />
<glyph unicode="&#x2003;" horiz-adv-x="1864" />
<glyph unicode="&#x2004;" horiz-adv-x="621" />
<glyph unicode="&#x2005;" horiz-adv-x="466" />
<glyph unicode="&#x2006;" horiz-adv-x="310" />
<glyph unicode="&#x2007;" horiz-adv-x="310" />
<glyph unicode="&#x2008;" horiz-adv-x="233" />
<glyph unicode="&#x2009;" horiz-adv-x="372" />
<glyph unicode="&#x200a;" horiz-adv-x="103" />
<glyph unicode="&#x2010;" horiz-adv-x="696" d="M123 481v123h450v-123h-450z" />
<glyph unicode="&#x2011;" horiz-adv-x="696" d="M123 481v123h450v-123h-450z" />
<glyph unicode="&#x2012;" horiz-adv-x="696" d="M123 481v123h450v-123h-450z" />
<glyph unicode="&#x2013;" horiz-adv-x="1024" d="M123 481v123h778v-123h-778z" />
<glyph unicode="&#x2014;" horiz-adv-x="1433" d="M123 481v123h1188v-123h-1188z" />
<glyph unicode="&#x2018;" d="M457 1448l45 -53q-97 -83 -123 -152q36 -6 55 -34t12 -66q-8 -43 -42.5 -73t-77.5 -30q-42 0 -66.5 29.5t-13.5 89.5q21 129 211 289z" />
<glyph unicode="&#x2019;" d="M266 1040l-45 56q94 80 125 149q-37 6 -56.5 34.5t-13.5 66.5q8 43 43.5 72.5t79.5 29.5q41 0 66 -29t14 -90q-23 -129 -213 -289z" />
<glyph unicode="&#x201a;" d="M45 -219l-45 55q97 82 123 150q-35 6 -54.5 34t-13.5 66q6 43 41.5 72.5t79.5 29.5q41 0 66.5 -28.5t15.5 -89.5q-23 -129 -213 -289z" />
<glyph unicode="&#x201c;" horiz-adv-x="727" d="M743 1499l43 -53q-97 -86 -122 -152q37 -6 56 -34t13 -66q-8 -43 -43.5 -72.5t-79.5 -29.5q-41 0 -66 29.5t-14 88.5q24 133 213 289zM467 1499l43 -53q-99 -87 -123 -152q37 -6 56.5 -34t13.5 -66q-8 -43 -43.5 -72.5t-79.5 -29.5q-41 0 -66 29.5t-14 88.5 q24 133 213 289z" />
<glyph unicode="&#x201d;" horiz-adv-x="727" d="M276 1092l-45 55q97 83 123 149q-36 6 -55.5 34.5t-13.5 66.5q9 43 44.5 72.5t78.5 29.5q42 0 66 -29t13 -90q-12 -74 -69 -144t-142 -144zM553 1092l-45 55q97 83 123 149q-36 6 -56 34.5t-14 66.5q9 43 44.5 72.5t78.5 29.5q42 0 66.5 -29t13.5 -90q-12 -74 -69 -144 t-142 -144z" />
<glyph unicode="&#x201e;" horiz-adv-x="727" d="M45 -219l-45 55q97 82 123 150q-35 6 -54.5 34t-13.5 66q6 43 41.5 72.5t79.5 29.5q41 0 66.5 -28.5t15.5 -89.5q-23 -129 -213 -289zM322 -219l-46 55q97 82 123 150q-35 6 -54 34t-13 66q6 43 41.5 72.5t79.5 29.5q41 0 66.5 -28.5t15.5 -89.5q-23 -129 -213 -289z" />
<glyph unicode="&#x2022;" horiz-adv-x="530" d="M133 563q10 61 61 104.5t113 43.5t97 -43t24 -105q-10 -63 -60.5 -105t-113.5 -42q-62 0 -96.5 42t-24.5 105z" />
<glyph unicode="&#x2026;" horiz-adv-x="1351" d="M55 86q6 42 41 72t78 30t67.5 -29.5t18.5 -72.5q-7 -43 -42.5 -72.5t-78.5 -29.5t-67.5 29.5t-16.5 72.5zM506 86q6 42 41 72t78 30t67.5 -29.5t18.5 -72.5q-7 -43 -42.5 -72.5t-78.5 -29.5t-67.5 29.5t-16.5 72.5zM956 86q6 42 41 72t78 30t67.5 -29.5t18.5 -72.5 q-7 -43 -42.5 -72.5t-78.5 -29.5t-67.5 29.5t-16.5 72.5z" />
<glyph unicode="&#x202f;" horiz-adv-x="372" />
<glyph unicode="&#x2039;" horiz-adv-x="614" d="M367 162l-287 350l412 350l63 -80l-315 -270l221 -270z" />
<glyph unicode="&#x203a;" horiz-adv-x="614" d="M541 512l-414 -350l-66 80l320 270l-225 270l96 80z" />
<glyph unicode="&#x205f;" horiz-adv-x="466" />
<glyph unicode="&#x20ac;" horiz-adv-x="1548" d="M152 809l16 92h135q99 251 313.5 399t487.5 148q161 0 285.5 -53.5t203.5 -153.5l-120 -102q-131 166 -388 166q-202 0 -366 -109t-248 -295h547l-17 -92h-565q-16 -63 -20 -92q-10 -55 -10 -92h563l-17 -93h-546q19 -188 144 -296.5t329 -108.5q256 0 444 164l84 -101 q-236 -206 -561 -206q-274 0 -436.5 148t-171.5 400h-136l17 93h121q3 42 12 92q11 58 20 92h-120z" />
<glyph unicode="&#x2122;" horiz-adv-x="1400" d="M500 1354l-115 -637h-96l114 637h-198l12 80h494l-13 -80h-198zM1268 717l92 522l-291 -365h-39l-162 365l-92 -522h-96l127 717h72l194 -422l344 422h74l-127 -717h-96z" />
<glyph unicode="&#x25fc;" horiz-adv-x="921" d="M0 922h922v-922h-922v922z" />
</font>
</defs>
</svg>
