<?xml version="1.0" standalone="no"?>
<!DOCTYPE svg PUBLIC "-//W3C//DTD SVG 1.1//EN" "http://www.w3.org/Graphics/SVG/1.1/DTD/svg11.dtd" >
<svg xmlns="http://www.w3.org/2000/svg">
<metadata></metadata>
<defs>
<font id="proba_proregular" horiz-adv-x="450" >
<font-face units-per-em="2048" ascent="1536" descent="-512" />
<missing-glyph horiz-adv-x="471" />
<glyph unicode="&#xfb01;" horiz-adv-x="1017" d="M717 0v799h-365v-799h-157v799h-129v123h129v317q0 141 86 226t227 85q63 0 110 -20v-131q-38 20 -83 20q-80 0 -131.5 -50.5t-51.5 -129.5v-317h518v-922h-153zM690 1198q0 43 30 72.5t73 29.5t72.5 -29.5t29.5 -72.5t-29.5 -72.5t-72.5 -29.5t-73 29.5t-30 72.5z" />
<glyph unicode="&#xfb02;" horiz-adv-x="1079" d="M1014 102v-102q-23 -10 -78 -10q-101 0 -158 61.5t-57 175.5v572h-369v-799h-157v799h-129v123h129v317q0 141 86 226t227 85q63 0 110 -20v-131q-38 20 -86 20q-78 0 -129 -50.5t-51 -129.5v-317h369v614h153v-1305q0 -129 140 -129z" />
<glyph unicode="&#xfb03;" horiz-adv-x="1540" d="M1239 0v799h-365v-799h-157v799h-365v-799h-157v799h-129v123h129v317q0 141 86 226t227 85q63 0 110 -20v-131q-38 20 -83 20q-80 0 -131.5 -50.5t-51.5 -129.5v-317h365v317q0 141 86 226t227 85q64 0 111 -20v-131q-38 20 -84 20q-80 0 -131.5 -50.5t-51.5 -129.5 v-317h519v-922h-154zM1212 1198q0 43 30 72.5t73 29.5t72.5 -29.5t29.5 -72.5t-29.5 -72.5t-72.5 -29.5t-73 29.5t-30 72.5z" />
<glyph unicode="&#xfb04;" horiz-adv-x="1601" d="M1536 102v-102q-23 -10 -78 -10q-101 0 -158 61.5t-57 175.5v572h-369v-799h-157v799h-365v-799h-157v799h-129v123h129v317q0 141 86 226t227 85q63 0 110 -20v-131q-38 20 -86 20q-78 0 -129 -50.5t-51 -129.5v-317h365v317q0 141 86 226t227 85q64 0 111 -20v-131 q-38 20 -86 20q-78 0 -129.5 -50.5t-51.5 -129.5v-317h369v614h154v-1305q0 -129 139 -129z" />
<glyph horiz-adv-x="0" />
<glyph horiz-adv-x="682" />
<glyph unicode=" "  horiz-adv-x="471" />
<glyph unicode="&#x09;" horiz-adv-x="471" />
<glyph unicode="&#xa0;" horiz-adv-x="471" />
<glyph unicode="!" d="M123 86q0 43 29.5 72.5t72.5 29.5t73 -29.5t30 -72.5t-30 -72.5t-73 -29.5t-72.5 29.5t-29.5 72.5zM147 393v1041h154v-1041h-154z" />
<glyph unicode="&#x22;" horiz-adv-x="747" d="M147 922v512h134v-512h-134zM465 922v512h133v-512h-133z" />
<glyph unicode="#" horiz-adv-x="1241" d="M680 0l57 358h-348l-55 -358h-156l58 358h-154v123h172l74 471h-172v123h190l57 359h156l-59 -359h348l57 359h156l-60 -359h158v-123h-174l-76 -471h178v-123h-196l-55 -358h-156zM483 952l-75 -471h348l73 471h-346z" />
<glyph unicode="$" horiz-adv-x="1107" d="M502 -205v191q-121 8 -226.5 56t-181.5 132l99 100q57 -64 139.5 -102.5t169.5 -44.5v532q-68 26 -110.5 45t-98.5 55t-88 74t-55 97t-23 131q0 156 96 267t279 120v190h92v-194q99 -11 190.5 -53.5t159.5 -112.5l-100 -100q-43 46 -111 79.5t-139 42.5v-507 q159 -63 224 -105q156 -101 166 -268q1 -12 1 -25q0 -75 -24.5 -144.5t-71.5 -126.5t-123 -94t-172 -44v-191h-92zM821 391q0 84 -58 135.5t-169 96.5v-492q58 10 103.5 38.5t71.5 66t39 77t13 78.5zM291 1065q0 -84 55 -138.5t156 -97.5v474q-72 -8 -121.5 -48t-69.5 -88.5 t-20 -101.5z" />
<glyph unicode="%" horiz-adv-x="1755" d="M422 0l756 1434h155l-753 -1434h-158zM82 1100q0 155 96.5 251.5t251.5 96.5t251.5 -96.5t96.5 -251.5t-96.5 -251.5t-251.5 -96.5t-251.5 96.5t-96.5 251.5zM219 1100q0 -101 58.5 -165.5t152.5 -64.5q92 0 150.5 64.5t58.5 165.5q0 103 -58.5 167t-150.5 64 q-94 0 -152.5 -64t-58.5 -167zM977 332q0 155 96.5 251.5t251.5 96.5t251.5 -96.5t96.5 -251.5t-96.5 -251.5t-251.5 -96.5t-251.5 96.5t-96.5 251.5zM1116 332q0 -101 58.5 -165.5t150.5 -64.5q94 0 152.5 64.5t58.5 165.5q0 103 -58.5 167t-152.5 64q-92 0 -150.5 -64 t-58.5 -167z" />
<glyph unicode="&#x26;" horiz-adv-x="1253" d="M696 713v131h465v-131h-153v-297q0 -192 -125 -312t-326 -120t-326 120t-125 312q0 131 63 225.5t173 138.5q-81 41 -127.5 118t-46.5 179q0 164 108 267.5t281 103.5t281 -103.5t108 -267.5h-158q0 103 -64.5 168.5t-166.5 65.5q-101 0 -165 -65.5t-64 -168.5t64 -168 t165 -65h57v-131h-57q-129 0 -210 -83t-81 -214q0 -130 81 -211.5t210 -81.5q131 0 212 81.5t81 211.5v297h-154z" />
<glyph unicode="'" horiz-adv-x="430" d="M147 922v512h134v-512h-134z" />
<glyph unicode="(" horiz-adv-x="608" d="M516 1550v-116q-61 0 -114.5 -114.5t-87 -328.5t-33.5 -479t33.5 -479t87 -328.5t114.5 -114.5v-118q-107 0 -196.5 129.5t-143 369.5t-53.5 541t53.5 540t143 368.5t196.5 129.5z" />
<glyph unicode=")" horiz-adv-x="608" d="M92 1434v116q107 0 196.5 -129.5t143 -368.5t53.5 -540t-53.5 -541t-143 -369.5t-196.5 -129.5v118q61 0 114.5 114.5t87.5 329t34 478.5t-34 478.5t-87.5 329t-114.5 114.5z" />
<glyph unicode="*" horiz-adv-x="913" d="M457 971l-168 -232l-92 70l165 229l-270 88l37 111l268 -88v285h117v-285l270 90l37 -111l-272 -90l170 -231l-96 -68z" />
<glyph unicode="+" horiz-adv-x="890" d="M123 537v122h260v263h123v-263h262v-122h-262v-261h-123v261h-260z" />
<glyph unicode="," d="M166 -219l-53 55q80 84 96 150q-37 6 -61.5 34t-24.5 66q0 43 29.5 72.5t72.5 29.5q42 0 72.5 -28.5t30.5 -89.5q0 -127 -162 -289z" />
<glyph unicode="-" horiz-adv-x="696" d="M123 481v123h450v-123h-450z" />
<glyph unicode="." d="M123 86q0 43 29.5 72.5t72.5 29.5t73 -29.5t30 -72.5t-30 -72.5t-73 -29.5t-72.5 29.5t-29.5 72.5z" />
<glyph unicode="/" horiz-adv-x="1126" d="M106 -102l756 1638h156l-756 -1638h-156z" />
<glyph unicode="0" horiz-adv-x="1157" d="M102 717q0 215 59.5 381t168 258t248.5 92q213 0 345 -202.5t132 -528.5q0 -216 -59.5 -382.5t-168 -258.5t-249.5 -92q-212 0 -344 203t-132 530zM260 717q0 -264 88.5 -429t229.5 -165t229 165t88 429t-88 429t-229 165t-229.5 -165t-88.5 -429z" />
<glyph unicode="1" horiz-adv-x="649" d="M66 1253v123l378 66v-1442h-153v1296z" />
<glyph unicode="2" horiz-adv-x="1058" d="M100 135l621 621q82 82 82 239q0 138 -78 226t-201 88q-124 0 -201 -87.5t-77 -226.5h-160q0 202 121.5 327.5t316.5 125.5t317 -125.5t122 -327.5q0 -215 -129 -344l-519 -518h648v-133h-863v135z" />
<glyph unicode="3" horiz-adv-x="1089" d="M449 713v131h94q101 0 165 65t64 168t-64 168.5t-165 65.5q-103 0 -167.5 -65.5t-64.5 -168.5h-157q0 164 108 267.5t281 103.5t281 -103.5t108 -267.5q0 -102 -46.5 -179t-127.5 -118q109 -44 172 -138.5t63 -225.5q0 -192 -124.5 -312t-325.5 -120t-326 120t-125 312 h158q0 -130 81 -211.5t212 -81.5q129 0 210 81.5t81 211.5q0 131 -81 214t-210 83h-94z" />
<glyph unicode="4" horiz-adv-x="1122" d="M735 0v276h-653v76l643 1082h158v-1024h129v-134h-123v-276h-154zM272 410h467v790z" />
<glyph unicode="5" horiz-adv-x="1058" d="M963 438q0 -202 -122 -328t-317 -126t-316.5 118.5t-121.5 309.5h154q0 -128 79 -208.5t205 -80.5q123 0 201 88t78 227q0 152 -88 247t-228 95q-146 0 -235 -86l-113 43l88 697h629v-134h-491l-60 -426q81 46 191 46q209 0 338 -133.5t129 -348.5z" />
<glyph unicode="6" horiz-adv-x="1085" d="M598 1448l133 -76q-205 -279 -346 -530q67 39 160 39q199 0 323.5 -123.5t124.5 -323.5q0 -201 -125 -325.5t-327 -124.5q-201 0 -325 125t-124 337q0 80 18.5 157t48 148t96.5 180.5t131.5 206.5t186.5 274q17 24 25 36zM250 434q0 -138 81.5 -224.5t211.5 -86.5 q129 0 210 86.5t81 224.5q0 139 -81 226.5t-210 87.5q-130 0 -211.5 -87t-81.5 -227z" />
<glyph unicode="7" horiz-adv-x="1073" d="M102 1300v134h869v-58l-516 -1376h-164l481 1300h-670z" />
<glyph unicode="8" horiz-adv-x="1095" d="M158 1077q0 164 108 267.5t281 103.5t281 -103.5t108 -267.5q0 -102 -46.5 -179t-127.5 -118q110 -43 172.5 -137.5t62.5 -226.5q0 -192 -124.5 -312t-325.5 -120t-326 120t-125 312q0 131 62.5 225.5t171.5 138.5q-81 40 -126.5 117t-45.5 180zM256 416 q0 -130 81 -211.5t210 -81.5q131 0 212 81.5t81 211.5q0 131 -81.5 213t-211.5 82q-129 0 -210 -82t-81 -213zM317 1077q0 -103 64.5 -167t165.5 -64q103 0 167 64t64 167t-64.5 168.5t-166.5 65.5q-101 0 -165.5 -65.5t-64.5 -168.5z" />
<glyph unicode="9" horiz-adv-x="1085" d="M485 -16l-131 75q219 307 346 533q-70 -39 -159 -39q-201 0 -325 122.5t-124 323.5q0 200 124.5 324.5t326.5 124.5q203 0 326.5 -124.5t123.5 -336.5q0 -79 -18 -155t-48.5 -149t-94.5 -177.5t-132 -206t-183 -269.5q-21 -30 -32 -46zM834 997q0 139 -81 226.5 t-210 87.5q-130 0 -211.5 -87t-81.5 -227q0 -138 81.5 -224.5t211.5 -86.5q129 0 210 86.5t81 224.5z" />
<glyph unicode=":" d="M123 86q0 43 29.5 72.5t72.5 29.5t73 -29.5t30 -72.5t-30 -72.5t-73 -29.5t-72.5 29.5t-29.5 72.5zM123 834q0 43 29.5 72.5t72.5 29.5t73 -29.5t30 -72.5t-30 -73t-73 -30t-72.5 30t-29.5 73z" />
<glyph unicode=";" d="M123 834q0 43 29.5 72.5t72.5 29.5t73 -29.5t30 -72.5t-30 -73t-73 -30t-72.5 30t-29.5 73zM166 -219l-53 55q80 84 96 150q-37 6 -61.5 34t-24.5 66q0 43 29.5 72.5t72.5 29.5q42 0 72.5 -28.5t30.5 -89.5q0 -127 -162 -289z" />
<glyph unicode="&#x3c;" horiz-adv-x="839" d="M647 223l-575 391l575 392l90 -91l-448 -301l448 -301z" />
<glyph unicode="=" horiz-adv-x="972" d="M123 666v122h727v-122h-727zM123 307v123h727v-123h-727z" />
<glyph unicode="&#x3e;" horiz-adv-x="839" d="M758 614l-576 -391l-90 90l447 301l-447 301l90 91z" />
<glyph unicode="?" horiz-adv-x="964" d="M176 1196l-100 100q161 152 395 152q97 0 175 -30.5t126.5 -83t74 -117.5t25.5 -138q0 -62 -17.5 -111t-45.5 -81.5t-62.5 -61.5t-68.5 -57.5t-62 -61.5t-45.5 -82.5t-17.5 -111.5v-119h-154v119q0 76 17.5 137t45.5 101t61.5 73t67 59.5t61.5 53t45.5 62.5t17.5 79 q0 42 -14.5 82t-43 74.5t-78 56t-112.5 21.5q-80 0 -159.5 -31.5t-131.5 -83.5zM375 86q0 43 29.5 72.5t72.5 29.5t73 -29.5t30 -72.5t-30 -72.5t-73 -29.5t-72.5 29.5t-29.5 72.5z" />
<glyph unicode="@" horiz-adv-x="2150" d="M1710 -150l98 -96q-129 -136 -317.5 -209t-409.5 -73q-290 0 -512.5 124t-344.5 349t-122 516q0 217 71.5 401t198.5 313t309 201t398 72q175 0 328.5 -46t269.5 -129t200.5 -195.5t127.5 -249.5t43 -287q0 -121 -29 -218.5t-75 -159.5t-107.5 -103.5t-123 -58.5 t-124.5 -17q-85 0 -147.5 27t-91.5 79q-118 -106 -289 -106q-198 0 -320.5 131.5t-122.5 345.5q0 212 132.5 343.5t347.5 131.5q124 0 223.5 -39.5t161.5 -112.5v-555q0 -52 38 -79t97 -27q48 0 93.5 21.5t86.5 66t65.5 125.5t24.5 188q0 165 -56.5 308.5t-159.5 250 t-255.5 167.5t-335.5 61q-241 0 -428 -107t-290 -300.5t-103 -442.5q0 -250 102.5 -443t290.5 -300t432 -107q188 0 353 62t272 177zM778 461q0 -150 89.5 -244t232.5 -94q142 0 229 84v520q-91 72 -233 72t-230 -93.5t-88 -244.5z" />
<glyph unicode="A" horiz-adv-x="1497" d="M1251 0l-170 410h-667l-168 -410h-185l613 1434h149l611 -1434h-183zM750 1231l-279 -678h553z" />
<glyph unicode="B" horiz-adv-x="1136" d="M164 0v1434h393q173 0 279 -101.5t106 -269.5q0 -104 -44 -183.5t-122 -123.5q112 -39 178 -134.5t66 -226.5q0 -180 -113 -287.5t-297 -107.5h-446zM860 406q0 119 -70.5 191.5t-185.5 72.5h-276v-533h276q116 0 186 74t70 195zM782 1051q0 110 -64.5 176.5t-170.5 66.5 h-219v-485h219q106 0 170.5 66.5t64.5 175.5z" />
<glyph unicode="C" horiz-adv-x="1452" d="M276 717q0 -263 157 -426.5t409 -163.5q257 0 415 164l103 -101q-200 -206 -526 -206q-322 0 -521.5 203t-199.5 530q0 215 90 381t254 258t377 92q161 0 295 -53.5t231 -153.5l-103 -102q-160 166 -415 166q-252 0 -409 -163.5t-157 -424.5z" />
<glyph unicode="D" horiz-adv-x="1437" d="M164 0v1434h440q324 0 522.5 -196.5t198.5 -520.5q0 -215 -90.5 -378.5t-253.5 -251t-377 -87.5h-440zM1161 717q0 260 -153.5 418.5t-403.5 158.5h-276v-1157h276q250 0 403.5 159t153.5 421z" />
<glyph unicode="E" horiz-adv-x="1038" d="M322 1300v-512h532v-133h-532v-522h610v-133h-768v1434h758v-134h-600z" />
<glyph unicode="F" horiz-adv-x="985" d="M322 1300v-512h497v-133h-497v-655h-158v1434h727v-134h-569z" />
<glyph unicode="G" horiz-adv-x="1523" d="M834 625v133h526v-568q-96 -99 -231 -152.5t-295 -53.5q-322 0 -521.5 203t-199.5 530q0 215 90 381t254 258t377 92q161 0 295 -53.5t231 -153.5l-103 -102q-160 166 -415 166q-252 0 -409 -163.5t-157 -424.5q0 -263 157 -426.5t409 -163.5q215 0 358 121v377h-366z " />
<glyph unicode="H" horiz-adv-x="1433" d="M322 1434v-646h788v646h160v-1434h-160v655h-788v-655h-158v1434h158z" />
<glyph unicode="I" horiz-adv-x="475" d="M158 0v1434h159v-1434h-159z" />
<glyph unicode="J" horiz-adv-x="946" d="M629 389v1045h159v-1045q0 -181 -112 -293t-291 -112q-182 0 -293 114l103 103q71 -74 184 -74q111 0 180.5 72.5t69.5 189.5z" />
<glyph unicode="K" horiz-adv-x="1243" d="M158 0v1434h159v-1434h-159zM967 0l-631 735l590 699h198l-587 -699l634 -735h-204z" />
<glyph unicode="L" horiz-adv-x="972" d="M322 1434v-1301h559v-133h-717v1434h158z" />
<glyph unicode="M" horiz-adv-x="1675" d="M1352 0v1106l-480 -778h-69l-481 778v-1106h-158v1434h121l553 -883l553 883h120v-1434h-159z" />
<glyph unicode="N" horiz-adv-x="1478" d="M164 1434h106l887 -1133v1133h158v-1434h-107l-886 1133v-1133h-158v1434z" />
<glyph unicode="O" horiz-adv-x="1650" d="M111 717q0 215 89 381t251.5 258t373.5 92t373.5 -92t252 -258t89.5 -381q0 -327 -198 -530t-517 -203t-516.5 203t-197.5 530zM274 717q0 -262 153 -426t398 -164q246 0 398.5 163.5t152.5 426.5q0 261 -152.5 424.5t-398.5 163.5q-245 0 -398 -163.5t-153 -424.5z" />
<glyph unicode="P" horiz-adv-x="1083" d="M164 0v1434h389q188 0 303 -110t115 -294q0 -182 -115 -291.5t-303 -109.5h-225v-629h-164zM807 1030q0 120 -70 192t-184 72h-225v-526h225q114 0 184 72t70 190z" />
<glyph unicode="Q" horiz-adv-x="1652" d="M1464 -53l-184 186q-189 -149 -455 -149q-319 0 -516.5 203t-197.5 530q0 215 89 381t251.5 258t373.5 92t373.5 -92t252 -258t89.5 -381q0 -288 -160 -481l185 -187zM274 717q0 -263 152.5 -426.5t398.5 -163.5q218 0 349 113l-230 233l100 100l218 -221 q112 142 112 365q0 262 -152 425t-397 163q-246 0 -398.5 -163.5t-152.5 -424.5z" />
<glyph unicode="R" horiz-adv-x="1114" d="M862 0l-340 629h-194v-629h-164v1434h403q189 0 304.5 -110t115.5 -294q0 -152 -81.5 -255t-221.5 -134l360 -641h-182zM823 1030q0 120 -70 192t-186 72h-239v-526h239q116 0 186 72t70 190z" />
<glyph unicode="S" horiz-adv-x="1107" d="M944 1278l-100 -100q-51 56 -135 91.5t-168 35.5q-64 0 -114.5 -22t-78.5 -58.5t-42.5 -77t-14.5 -82.5q0 -67 38.5 -117t99.5 -82t135 -60.5t148 -61.5t135 -75.5t99.5 -112t38.5 -161.5q0 -80 -27.5 -152.5t-80.5 -131t-139.5 -93t-194.5 -34.5q-130 0 -247 49.5 t-202 140.5l99 100q62 -69 153 -108t182 -39q75 0 134 25t92 65.5t50 85t17 88.5q0 65 -38.5 113.5t-99.5 79t-135 58t-148 61t-135 76.5t-99.5 115t-38.5 167q0 77 24.5 145t72 123t125.5 87t177 32q119 0 229.5 -44t188.5 -126z" />
<glyph unicode="T" horiz-adv-x="1161" d="M659 1300v-1300h-157v1300h-410v134h977v-134h-410z" />
<glyph unicode="U" horiz-adv-x="1396" d="M1073 522v912h160v-912q0 -241 -148.5 -389.5t-388.5 -148.5q-239 0 -385.5 148t-146.5 390v912h158v-912q0 -177 104 -286t270 -109q168 0 272.5 109t104.5 286z" />
<glyph unicode="V" horiz-adv-x="1497" d="M1434 1434l-611 -1434h-149l-613 1434h189l500 -1227l497 1227h187z" />
<glyph unicode="W" horiz-adv-x="2240" d="M2179 1434l-514 -1434h-162l-385 1161l-381 -1161h-162l-514 1434h185l409 -1190l381 1190h166l383 -1190l410 1190h184z" />
<glyph unicode="X" horiz-adv-x="1441" d="M1171 0l-452 616l-449 -616h-202l536 725l-522 709h205l432 -598l436 598h205l-524 -709l538 -725h-203z" />
<glyph unicode="Y" horiz-adv-x="1386" d="M612 0v616l-546 818h184l442 -660l443 660h184l-547 -820v-614h-160z" />
<glyph unicode="Z" horiz-adv-x="1300" d="M125 1300v134h1059v-58l-842 -1243h846v-133h-1075v57l839 1243h-827z" />
<glyph unicode="[" horiz-adv-x="608" d="M506 1536v-123h-205v-1802h205v-123h-359v2048h359z" />
<glyph unicode="\" horiz-adv-x="1126" d="M262 1536l756 -1638h-156l-756 1638h156z" />
<glyph unicode="]" horiz-adv-x="608" d="M102 1413v123h359v-2048h-359v123h205v1802h-205z" />
<glyph unicode="^" horiz-adv-x="925" d="M463 1384l391 -391l-80 -80l-311 312l-311 -312l-80 80z" />
<glyph unicode="_" horiz-adv-x="921" d="M0 -328v123h922v-123h-922z" />
<glyph unicode="`" horiz-adv-x="542" d="M182 1384l258 -258l-80 -79l-258 258z" />
<glyph unicode="a" horiz-adv-x="927" d="M856 100v-102q-23 -10 -65 -10q-131 0 -170 104q-111 -108 -265 -108q-129 0 -198.5 77t-69.5 189q0 139 103.5 213t275.5 74q39 0 74 -3.5t50 -7.5l15 -4v123q0 68 -47 116t-145 48q-59 0 -117 -19t-94 -55l-80 80q121 121 303 121q162 0 248 -82.5t86 -208.5v-465 q0 -80 96 -80zM401 113q55 0 110 22.5t95 63.5v215q-47 14 -127 14q-237 0 -237 -162q0 -65 38 -109t121 -44z" />
<glyph unicode="b" horiz-adv-x="1103" d="M514 -16q-238 0 -367 129v1423h154v-676q109 76 256 76q203 0 329 -132t126 -345q0 -216 -131.5 -345.5t-366.5 -129.5zM854 457q0 154 -88 248t-231 94q-149 0 -234 -99v-512q84 -65 225 -65q154 0 241 91.5t87 242.5z" />
<glyph unicode="c" horiz-adv-x="976" d="M250 461q0 -151 89 -244.5t232 -93.5q150 0 238 94l96 -96q-134 -137 -342 -137q-211 0 -341 131.5t-130 345.5q0 212 130 343.5t341 131.5q209 0 342 -139l-96 -95q-90 97 -238 97q-143 0 -232 -93.5t-89 -244.5z" />
<glyph unicode="d" horiz-adv-x="1107" d="M958 0h-153v74q-117 -90 -270 -90q-198 0 -320.5 131.5t-122.5 345.5q0 212 129 343.5t338 131.5q133 0 246 -66v666h153v-1536zM250 461q0 -151 89 -244.5t232 -93.5q146 0 234 88v500q-88 88 -234 88q-143 0 -232 -93.5t-89 -244.5z" />
<glyph unicode="e" horiz-adv-x="1040" d="M952 418h-698q11 -135 97.5 -215t226.5 -80q152 0 243 94l92 -96q-134 -137 -346 -137q-213 0 -344 132t-131 349q0 210 122 340.5t323 130.5q202 0 308.5 -138t106.5 -380zM537 801q-116 0 -193 -73.5t-90 -197.5h545q-14 127 -82 199t-180 72z" />
<glyph unicode="f" horiz-adv-x="659" d="M66 799v123h129v317q0 141 86 226t227 85q63 0 110 -20v-131q-38 20 -83 20q-80 0 -131.5 -50.5t-51.5 -129.5v-317h266v-123h-266v-799h-157v799h-129z" />
<glyph unicode="g" horiz-adv-x="1013" d="M45 -242q0 89 56.5 154t154.5 98q-119 52 -119 154q0 50 32.5 90.5t96.5 64.5q-77 39 -118.5 113.5t-41.5 167.5q0 151 101.5 243.5t263.5 92.5q146 0 246 -78q72 78 172 78q17 0 53 -4v-123q-24 4 -41 4q-59 0 -113 -37q46 -78 46 -172q0 -149 -101.5 -241.5 t-265.5 -92.5q-85 0 -132.5 -28t-47.5 -74q0 -45 58.5 -73.5t156.5 -28.5q197 0 315.5 -77.5t118.5 -205.5q0 -137 -133.5 -224t-337.5 -87q-192 0 -306 79.5t-114 206.5zM205 -242q0 -75 69.5 -120.5t190.5 -45.5q132 0 222.5 53.5t90.5 135.5q0 73 -76.5 118.5 t-199.5 45.5q-135 0 -216 -51.5t-81 -135.5zM260 604q0 -94 59.5 -152.5t153.5 -58.5t152.5 58.5t58.5 152.5q0 92 -58.5 150.5t-152.5 58.5t-153.5 -58.5t-59.5 -150.5z" />
<glyph unicode="h" horiz-adv-x="1071" d="M147 1536h154v-692q112 92 270 92q156 0 251.5 -105t95.5 -274v-557h-154v557q0 108 -63.5 175t-165.5 67q-145 0 -234 -92v-707h-154v1536z" />
<glyph unicode="i" d="M147 0v922h154v-922h-154zM123 1198q0 43 29.5 72.5t72.5 29.5t73 -29.5t30 -72.5t-30 -72.5t-73 -29.5t-72.5 29.5t-29.5 72.5z" />
<glyph unicode="j" d="M123 1198q0 43 29.5 72.5t72.5 29.5t73 -29.5t30 -72.5t-30 -72.5t-73 -29.5t-72.5 29.5t-29.5 72.5zM14 -512v102q63 0 98 32.5t35 96.5v1203h154v-1207q0 -111 -58 -174t-157 -63q-49 0 -72 10z" />
<glyph unicode="k" horiz-adv-x="940" d="M301 0h-154v1536h154v-1030l365 416h184l-385 -433l428 -489h-182l-410 473v-473z" />
<glyph unicode="l" horiz-adv-x="505" d="M440 102v-102q-23 -10 -75 -10q-101 0 -159.5 62.5t-58.5 174.5v1309h154v-1305q0 -65 36.5 -97t102.5 -32z" />
<glyph unicode="m" horiz-adv-x="1558" d="M1255 0v618q0 80 -46 130.5t-119 50.5q-151 0 -244 -90q10 -48 10 -91v-618h-154v618q0 80 -46 130.5t-121 50.5q-145 0 -234 -92v-707h-154v922h154v-78q112 92 270 92t236 -127q121 127 317 127q130 0 207.5 -88t77.5 -230v-618h-154z" />
<glyph unicode="n" horiz-adv-x="1064" d="M147 922h154v-78q112 92 270 92q156 0 251.5 -105t95.5 -274v-557h-154v557q0 108 -63.5 175t-165.5 67q-145 0 -234 -92v-707h-154v922z" />
<glyph unicode="o" horiz-adv-x="1124" d="M90 461q0 212 130 343.5t341 131.5t342 -131.5t131 -343.5q0 -213 -131 -345t-342 -132t-341 131.5t-130 345.5zM248 461q0 -151 86.5 -244.5t226.5 -93.5q138 0 225.5 94t87.5 244t-87.5 244t-225.5 94q-140 0 -226.5 -93.5t-86.5 -244.5z" />
<glyph unicode="p" horiz-adv-x="1107" d="M147 922h154v-78q112 92 272 92q198 0 320.5 -131.5t122.5 -343.5q0 -214 -129 -345.5t-338 -131.5q-142 0 -248 65v-561h-154v1434zM856 461q0 151 -89 244.5t-232 93.5q-145 0 -234 -92v-498q86 -86 234 -86q143 0 232 93.5t89 244.5z" />
<glyph unicode="q" horiz-adv-x="1103" d="M582 936q115 0 215.5 -35t158.5 -96v-1317h-153v571q-107 -75 -256 -75q-203 0 -329 132t-126 345q0 215 132 345t358 130zM250 461q0 -151 88.5 -244.5t230.5 -93.5q146 0 234 94v514q-40 33 -100.5 50.5t-124.5 17.5q-152 0 -240 -92.5t-88 -245.5z" />
<glyph unicode="r" horiz-adv-x="686" d="M551 934q23 0 63 -4v-135q-35 6 -71 6q-73 0 -136.5 -34t-105.5 -93v-674h-154v922h154v-113q109 125 250 125z" />
<glyph unicode="s" horiz-adv-x="782" d="M666 825l-91 -90q-29 31 -81 51.5t-99 20.5q-67 0 -102 -39.5t-35 -89.5q0 -24 11 -44.5t23 -33t44.5 -29.5t49 -24.5t63.5 -26.5q45 -19 72.5 -32.5t63.5 -37t56 -48t34.5 -61t14.5 -79.5q0 -112 -80.5 -195t-226.5 -83q-89 0 -169 33t-134 92l90 90q34 -40 90.5 -63 t112.5 -23q83 0 123.5 44t40.5 99q0 51 -40 80t-143 72q-46 18 -76 32t-66.5 38t-57.5 49t-35.5 63t-14.5 84q0 108 72.5 185t206.5 77q81 0 156 -29t127 -82z" />
<glyph unicode="t" horiz-adv-x="649" d="M55 799v123h119v204h158v-204h246v-123h-246v-512q0 -75 45.5 -122.5t118.5 -47.5q49 0 82 20v-133q-47 -20 -109 -20q-134 0 -214.5 83t-80.5 220v512h-119z" />
<glyph unicode="u" horiz-adv-x="1085" d="M938 922v-543q0 -177 -109 -286t-286 -109t-286.5 109t-109.5 286v543h160v-543q0 -114 66.5 -185t173.5 -71q106 0 172.5 71t66.5 185v543h152z" />
<glyph unicode="v" horiz-adv-x="1009" d="M977 922l-402 -922h-143l-401 922h172l301 -732l303 732h170z" />
<glyph unicode="w" horiz-adv-x="1525" d="M1493 922l-342 -922h-160l-229 707l-227 -707h-162l-342 922h176l246 -736l231 736h156l231 -736l246 736h176z" />
<glyph unicode="x" horiz-adv-x="980" d="M762 0l-273 371l-270 -371h-178l348 469l-334 453h181l253 -353l256 353h179l-334 -453l350 -469h-178z" />
<glyph unicode="y" horiz-adv-x="1009" d="M977 922l-631 -1434h-170l256 512l-401 922h172l301 -738l303 738h170z" />
<glyph unicode="z" horiz-adv-x="952" d="M104 799v123h752v-58l-537 -741h537v-123h-760v57l537 742h-529z" />
<glyph unicode="{" horiz-adv-x="649" d="M567 -410v-118q-137 0 -229 126.5t-92 323.5v195q0 146 -48 240t-116 94v116q68 0 116 94t48 240v199q0 197 92 323.5t229 126.5v-116q-68 0 -116 -94t-48 -240v-199q0 -138 -46.5 -241.5t-125.5 -151.5q78 -47 125 -150t47 -241v-195q0 -145 48 -238.5t116 -93.5z" />
<glyph unicode="|" d="M147 -512v2048h154v-2048h-154z" />
<glyph unicode="}" horiz-adv-x="649" d="M82 -528v118q68 0 116 93.5t48 238.5v195q0 138 47 241t125 150q-79 48 -125.5 151.5t-46.5 241.5v199q0 146 -48 240t-116 94v116q137 0 229 -126.5t92 -323.5v-199q0 -146 48 -240t116 -94v-116q-68 0 -116 -94t-48 -240v-195q0 -197 -92 -323.5t-229 -126.5z" />
<glyph unicode="~" horiz-adv-x="884" d="M176 508h-104q0 99 62 160t157 61q44 0 80 -13.5t60.5 -32.5t47 -37.5t51 -32t62.5 -13.5q51 0 84 33.5t33 87.5h104q0 -99 -62 -160t-159 -61q-45 0 -81 13.5t-59.5 33t-46 38.5t-50.5 32.5t-62 13.5q-51 0 -84 -34t-33 -89z" />
<glyph unicode="&#xa1;" d="M123 834q0 43 29.5 72.5t72.5 29.5t73 -29.5t30 -72.5t-30 -73t-73 -30t-72.5 30t-29.5 73zM147 526h154v-1038h-154v1038z" />
<glyph unicode="&#xa2;" horiz-adv-x="976" d="M496 -205v193q-184 22 -294 149.5t-110 323.5q0 193 110.5 321t293.5 150v194h92v-190q190 -9 317 -139l-96 -95q-88 91 -221 97v-676q136 3 221 94l96 -96q-125 -128 -317 -137v-189h-92zM250 461q0 -130 66.5 -218.5t179.5 -111.5v660q-113 -25 -179.5 -113.5 t-66.5 -216.5z" />
<glyph unicode="&#xa3;" horiz-adv-x="1069" d="M92 655v123h154v281q0 176 112 282.5t289 106.5q182 0 295 -113l-102 -104q-68 74 -187 74q-110 0 -178.5 -66.5t-68.5 -179.5v-281h362v-123h-362v-413q48 -13 106.5 -46t109 -57t95.5 -24q55 0 88 33.5t33 87.5h125q0 -113 -67.5 -182.5t-174.5 -69.5 q-56 0 -113.5 21.5t-97 47t-88.5 47t-90 21.5q-56 0 -88.5 -32.5t-32.5 -88.5h-125q0 88 43.5 152t116.5 88v415h-154z" />
<glyph unicode="&#xa4;" horiz-adv-x="1085" d="M195 614q0 119 57 201l-170 172l86 88l174 -174q84 62 201 62q116 0 200 -62l175 174l86 -88l-173 -172q60 -82 60 -201t-60 -204l173 -170l-89 -86l-172 172q-82 -60 -200 -60q-119 0 -201 60l-172 -172l-88 86l170 170q-57 85 -57 204zM334 614q0 -103 58.5 -167 t150.5 -64q94 0 152.5 64t58.5 167q0 101 -58.5 165.5t-152.5 64.5q-92 0 -150.5 -64.5t-58.5 -165.5z" />
<glyph unicode="&#xa5;" horiz-adv-x="1386" d="M326 451v92h286v73l-546 818h184l442 -660l443 660h184l-547 -820v-71h287v-92h-287v-170h287v-93h-287v-188h-160v188h-286v93h286v170h-286z" />
<glyph unicode="&#xa6;" d="M147 -512v922h154v-922h-154zM301 1536v-922h-154v922h154z" />
<glyph unicode="&#xa7;" horiz-adv-x="866" d="M332 899l418 -418l-103 -102l-422 422q-133 133 -133 299q0 155 104 251.5t273 96.5q197 0 315 -137l-98 -99q-81 97 -217 97q-97 0 -158 -58.5t-61 -150.5q0 -122 82 -201zM535 20l-418 420l102 103l422 -422q133 -133 133 -301q0 -155 -104 -251.5t-273 -96.5 q-194 0 -315 137l98 100q82 -98 217 -98q97 0 158 59.5t61 151.5q0 117 -81 198z" />
<glyph unicode="&#xa8;" horiz-adv-x="876" d="M143 1171q0 41 28.5 70t68.5 29q41 0 69.5 -29t28.5 -70q0 -40 -28.5 -68t-69.5 -28q-40 0 -68.5 28t-28.5 68zM526 1171q0 41 29 70t70 29t69.5 -29t28.5 -70q0 -40 -28.5 -68t-69.5 -28t-70 28t-29 68z" />
<glyph unicode="&#xa9;" horiz-adv-x="1648" d="M102 717q0 215 90 381t254 258t377 92t377.5 -92t255 -258t90.5 -381q0 -216 -90.5 -382.5t-255 -258.5t-377.5 -92q-322 0 -521.5 203t-199.5 530zM221 717q0 -284 167.5 -461.5t434.5 -177.5q269 0 436.5 177.5t167.5 461.5q0 283 -168 460t-436 177 q-267 0 -434.5 -177t-167.5 -460zM573 717q0 -125 75.5 -204t195.5 -79q121 0 196 78l62 -59q-98 -103 -262 -103q-163 0 -264 101.5t-101 265.5q0 163 101 264.5t264 101.5t262 -104l-62 -59q-74 77 -196 77q-120 0 -195.5 -78t-75.5 -202z" />
<glyph unicode="&#xaa;" horiz-adv-x="532" d="M475 989v-63q-12 -6 -37 -6q-66 0 -92 53q-58 -58 -141 -58q-71 0 -109.5 42.5t-38.5 99.5q0 79 69 123.5t175 44.5q21 0 37 -4v53q0 34 -24.5 61t-71.5 27q-66 0 -107 -41l-53 51q70 70 168 70q87 0 135.5 -49t48.5 -119v-244q0 -41 41 -41zM236 997q65 0 102 45v113 q-8 2 -33 2q-65 0 -107 -24t-42 -66q0 -27 19.5 -48.5t60.5 -21.5z" />
<glyph unicode="&#xab;" horiz-adv-x="962" d="M422 162l-350 350l350 350l80 -80l-271 -270l271 -270zM770 162l-350 350l350 350l80 -80l-270 -270l270 -270z" />
<glyph unicode="&#xac;" horiz-adv-x="1024" d="M123 553v123h778v-359h-123v236h-655z" />
<glyph unicode="&#xad;" horiz-adv-x="696" d="M123 481v123h450v-123h-450z" />
<glyph unicode="&#xae;" horiz-adv-x="1648" d="M102 717q0 215 90 381t254 258t377 92t377.5 -92t255 -258t90.5 -381q0 -216 -90.5 -382.5t-255 -258.5t-377.5 -92q-322 0 -521.5 203t-199.5 530zM221 717q0 -284 167.5 -461.5t434.5 -177.5q269 0 436.5 177.5t167.5 461.5q0 283 -168 460t-436 177 q-267 0 -434.5 -177t-167.5 -460zM967 356l-164 308h-86v-308h-99v717h209q97 0 157 -56t60 -149q0 -74 -39 -125.5t-106 -70.5l176 -316h-108zM946 868q0 54 -32.5 87.5t-86.5 33.5h-110v-244h110q54 0 86.5 33.5t32.5 89.5z" />
<glyph unicode="&#xaf;" horiz-adv-x="768" d="M133 1110v98h502v-98h-502z" />
<glyph unicode="&#xb0;" horiz-adv-x="593" d="M92 1233q0 95 57 153t148 58q94 0 150.5 -58t56.5 -153q0 -94 -56.5 -151.5t-150.5 -57.5q-91 0 -148 58t-57 151zM176 1233q0 -57 33.5 -91t87.5 -34q56 0 89.5 34t33.5 91t-34 91t-89 34q-54 0 -87.5 -34t-33.5 -91z" />
<glyph unicode="&#xb1;" horiz-adv-x="890" d="M123 557v123h260v262h123v-262h262v-123h-262v-260h-123v260h-260zM123 106v123h645v-123h-645z" />
<glyph unicode="&#xb2;" horiz-adv-x="571" d="M66 795l307 307q39 39 39 110q0 64 -35.5 105t-91.5 41q-58 0 -93.5 -40.5t-35.5 -105.5h-97q0 102 62.5 166t163.5 64q98 0 159.5 -64.5t61.5 -165.5t-68 -172l-245 -245h313v-78h-440v78z" />
<glyph unicode="&#xb3;" horiz-adv-x="587" d="M246 1065v78h47q47 0 76.5 30.5t29.5 77.5t-29.5 77t-76.5 30q-46 0 -75.5 -30t-29.5 -77h-96q0 85 56 138t145 53q91 0 147 -53t56 -138q0 -100 -82 -145q108 -49 108 -178q0 -98 -63 -158.5t-166 -60.5q-102 0 -166 60.5t-64 158.5h97q0 -61 37 -99t96 -38 q60 0 97.5 38t37.5 99q0 60 -37.5 98.5t-97.5 38.5h-47z" />
<glyph unicode="&#xb4;" horiz-adv-x="542" d="M102 1126l258 258l80 -79l-258 -258z" />
<glyph unicode="&#xb5;" horiz-adv-x="1085" d="M35 -410v103q53 0 82.5 27t29.5 81v1121h160v-543q0 -114 66.5 -185t173.5 -71q106 0 172.5 71t66.5 185v543h152v-543q0 -177 -109 -286t-286 -109q-147 0 -242 71v-258q0 -101 -53.5 -159t-143.5 -58q-46 0 -69 10z" />
<glyph unicode="&#xb6;" horiz-adv-x="1181" d="M725 1434v-1434h-147v649h-62q-184 0 -297 106.5t-113 284.5q0 179 113 286.5t297 107.5h209zM885 0v1434h147v-1434h-147z" />
<glyph unicode="&#xb7;" d="M123 512q0 43 29.5 72.5t72.5 29.5t73 -29.5t30 -72.5t-30 -72.5t-73 -29.5t-72.5 29.5t-29.5 72.5z" />
<glyph unicode="&#xb8;" horiz-adv-x="540" d="M287 0v-121q63 -11 99 -52t36 -106q0 -72 -47.5 -116.5t-122.5 -44.5q-76 0 -125 49l53 53q29 -29 72 -29q42 0 69 25.5t27 67.5t-33 68t-100 26v180h72z" />
<glyph unicode="&#xb9;" horiz-adv-x="374" d="M53 1331v74l205 33v-721h-92v635z" />
<glyph unicode="&#xba;" horiz-adv-x="645" d="M59 1180q0 117 73 189.5t190 72.5q118 0 191 -72.5t73 -189.5q0 -119 -73 -192t-191 -73q-117 0 -190 73.5t-73 191.5zM160 1180q0 -79 45 -127.5t117 -48.5q74 0 118.5 48.5t44.5 127.5q0 77 -45 125.5t-118 48.5q-72 0 -117 -48.5t-45 -125.5z" />
<glyph unicode="&#xbb;" horiz-adv-x="962" d="M881 512l-351 -350l-79 80l270 270l-270 270l79 80zM532 512l-350 -350l-80 80l271 270l-271 270l80 80z" />
<glyph unicode="&#xbc;" horiz-adv-x="1298" d="M53 1331v74l205 33v-721h-92v635zM199 0l755 1434h115l-754 -1434h-116zM1073 0v133h-323v43l319 541h92v-504h64v-80h-60v-133h-92zM864 213h213v365z" />
<glyph unicode="&#xbd;" horiz-adv-x="1404" d="M53 1331v74l205 33v-721h-92v635zM199 0l755 1434h115l-754 -1434h-116zM899 78l307 307q39 39 39 111q0 64 -35.5 104.5t-91.5 40.5q-58 0 -93.5 -40t-35.5 -105h-96q0 102 62 165.5t163 63.5q98 0 159.5 -64t61.5 -165q0 -102 -67 -172l-246 -246h313v-78h-440v78z" />
<glyph unicode="&#xbe;" horiz-adv-x="1335" d="M246 1065v78h47q47 0 76.5 30.5t29.5 77.5t-29.5 77t-76.5 30q-46 0 -75.5 -30t-29.5 -77h-96q0 85 56 138t145 53q91 0 147 -53t56 -138q0 -100 -82 -145q108 -49 108 -178q0 -98 -63 -158.5t-166 -60.5q-102 0 -166 60.5t-64 158.5h97q0 -61 37 -99t96 -38 q60 0 97.5 38t37.5 99q0 60 -37.5 98.5t-97.5 38.5h-47zM287 0l753 1434h117l-756 -1434h-114zM1110 0v133h-324v43l320 541h92v-504h64v-80h-60v-133h-92zM901 213h213v365z" />
<glyph unicode="&#xbf;" horiz-adv-x="964" d="M788 -276l101 -101q-163 -151 -395 -151q-129 0 -222 53t-136.5 135.5t-43.5 181.5q0 62 17.5 111t46 82t62.5 61.5t68 57.5t62.5 62t46 82.5t17.5 111.5v116h153v-116q0 -76 -17.5 -137.5t-45 -101.5t-61 -73t-67.5 -59.5t-61.5 -53.5t-45 -62.5t-17.5 -78.5 q0 -42 14.5 -81.5t43 -74.5t78 -56t112.5 -21q79 0 158 31t132 82zM590 834q0 -43 -30 -73t-73 -30t-72.5 30t-29.5 73t29.5 72.5t72.5 29.5t73 -29.5t30 -72.5z" />
<glyph unicode="&#xc0;" horiz-adv-x="1497" d="M1251 0l-170 410h-667l-168 -410h-185l613 1434h149l611 -1434h-183zM750 1231l-279 -678h553zM618 1845l259 -258l-80 -80l-258 258z" />
<glyph unicode="&#xc1;" horiz-adv-x="1497" d="M1251 0l-170 410h-667l-168 -410h-185l613 1434h149l611 -1434h-183zM750 1231l-279 -678h553zM618 1587l259 258l79 -80l-258 -258z" />
<glyph unicode="&#xc2;" horiz-adv-x="1497" d="M1251 0l-170 410h-667l-168 -410h-185l613 1434h149l611 -1434h-183zM750 1231l-279 -678h553zM748 1845l258 -258l-80 -80l-178 179l-179 -179l-80 80z" />
<glyph unicode="&#xc3;" horiz-adv-x="1497" d="M1251 0l-170 410h-667l-168 -410h-185l613 1434h149l611 -1434h-183zM750 1231l-279 -678h553zM551 1563h-88q0 81 48 130.5t124 49.5q41 0 73 -15.5t49.5 -33.5t43.5 -33.5t55 -15.5q37 0 61.5 25.5t24.5 64.5h88q0 -81 -48.5 -131t-125.5 -50q-41 0 -73.5 15.5 t-49.5 34t-42 34t-54 15.5q-37 0 -61.5 -24.5t-24.5 -65.5z" />
<glyph unicode="&#xc4;" horiz-adv-x="1497" d="M1251 0l-170 410h-667l-168 -410h-185l613 1434h149l611 -1434h-183zM750 1231l-279 -678h553zM459 1632q0 41 28 70t68 29q41 0 69.5 -29t28.5 -70q0 -40 -28.5 -68t-69.5 -28q-40 0 -68 28t-28 68zM842 1632q0 41 28.5 70t69.5 29t69.5 -29t28.5 -70q0 -40 -28.5 -68 t-69.5 -28t-69.5 28t-28.5 68z" />
<glyph unicode="&#xc5;" horiz-adv-x="1497" d="M1251 0l-170 410h-667l-168 -410h-185l613 1434h149l611 -1434h-183zM750 1231l-279 -678h553zM569 1679q0 83 50.5 134t130.5 51q82 0 131 -51t49 -134t-49 -133.5t-131 -50.5q-80 0 -130.5 50.5t-50.5 133.5zM643 1677q0 -49 29.5 -78.5t77.5 -29.5t77 29.5t29 78.5 q0 50 -30 80.5t-76 30.5q-48 0 -77.5 -30t-29.5 -81z" />
<glyph unicode="&#xc6;" horiz-adv-x="1601" d="M936 1300v-512h487v-133h-487v-522h563v-133h-721v410h-350l-178 -410h-184l636 1434h787v-134h-553zM485 553h293v678z" />
<glyph unicode="&#xc7;" horiz-adv-x="1452" d="M276 717q0 -263 157 -426.5t409 -163.5q257 0 415 164l103 -101q-189 -195 -494 -204v-107q63 -11 99 -52t36 -106q0 -72 -47.5 -116.5t-122.5 -44.5t-124 49l53 53q29 -29 71 -29t69.5 25.5t27.5 67.5t-33 68t-100 26v166q-308 12 -495 212.5t-187 518.5q0 215 90 381 t254 258t377 92q161 0 295 -53.5t231 -153.5l-103 -102q-160 166 -415 166q-252 0 -409 -163.5t-157 -424.5z" />
<glyph unicode="&#xc8;" horiz-adv-x="1038" d="M322 1300v-512h532v-133h-532v-522h610v-133h-768v1434h758v-134h-600zM414 1845l258 -258l-80 -80l-258 258z" />
<glyph unicode="&#xc9;" horiz-adv-x="1038" d="M322 1300v-512h532v-133h-532v-522h610v-133h-768v1434h758v-134h-600zM416 1587l258 258l80 -80l-258 -258z" />
<glyph unicode="&#xca;" horiz-adv-x="1038" d="M322 1300v-512h532v-133h-532v-522h610v-133h-768v1434h758v-134h-600zM545 1845l258 -258l-80 -80l-178 179l-178 -179l-80 80z" />
<glyph unicode="&#xcb;" horiz-adv-x="1038" d="M322 1300v-512h532v-133h-532v-522h610v-133h-768v1434h758v-134h-600zM254 1632q0 41 28 70t68 29q41 0 70 -29t29 -70q0 -40 -29 -68t-70 -28q-40 0 -68 28t-28 68zM637 1632q0 41 28.5 70t69.5 29t70 -29t29 -70q0 -40 -29 -68t-70 -28t-69.5 28t-28.5 68z" />
<glyph unicode="&#xcc;" horiz-adv-x="475" d="M158 0v1434h159v-1434h-159zM109 1845l258 -258l-80 -80l-258 258z" />
<glyph unicode="&#xcd;" horiz-adv-x="475" d="M158 0v1434h159v-1434h-159zM111 1587l258 258l80 -80l-259 -258z" />
<glyph unicode="&#xce;" horiz-adv-x="475" d="M158 0v1434h159v-1434h-159zM238 1845l258 -258l-80 -80l-178 179l-179 -179l-79 80z" />
<glyph unicode="&#xcf;" horiz-adv-x="475" d="M158 0v1434h159v-1434h-159zM-20 1632q0 41 28 70t68 29q41 0 69.5 -29t28.5 -70q0 -40 -28.5 -68t-69.5 -28q-40 0 -68 28t-28 68zM301 1632q0 41 28.5 70t69.5 29t70 -29t29 -70q0 -40 -29 -68t-70 -28t-69.5 28t-28.5 68z" />
<glyph unicode="&#xd0;" horiz-adv-x="1468" d="M102 655v123h113v656h420q324 0 522.5 -196.5t198.5 -520.5q0 -215 -90.5 -378.5t-253.5 -251t-377 -87.5h-420v655h-113zM1192 717q0 260 -153.5 418.5t-403.5 158.5h-256v-516h328v-123h-328v-518h256q250 0 403.5 159t153.5 421z" />
<glyph unicode="&#xd1;" horiz-adv-x="1478" d="M164 1434h106l887 -1133v1133h158v-1434h-107l-886 1133v-1133h-158v1434zM543 1563h-88q0 81 48 130.5t124 49.5q41 0 73 -15.5t49.5 -33.5t43.5 -33.5t55 -15.5q37 0 61.5 25.5t24.5 64.5h88q0 -81 -48.5 -131t-125.5 -50q-41 0 -73.5 15.5t-49.5 34t-42 34t-54 15.5 q-37 0 -61.5 -24.5t-24.5 -65.5z" />
<glyph unicode="&#xd2;" horiz-adv-x="1650" d="M111 717q0 215 89 381t251.5 258t373.5 92t373.5 -92t252 -258t89.5 -381q0 -327 -198 -530t-517 -203t-516.5 203t-197.5 530zM274 717q0 -262 153 -426t398 -164q246 0 398.5 163.5t152.5 426.5q0 261 -152.5 424.5t-398.5 163.5q-245 0 -398 -163.5t-153 -424.5z M696 1845l258 -258l-80 -80l-258 258z" />
<glyph unicode="&#xd3;" horiz-adv-x="1650" d="M111 717q0 215 89 381t251.5 258t373.5 92t373.5 -92t252 -258t89.5 -381q0 -327 -198 -530t-517 -203t-516.5 203t-197.5 530zM274 717q0 -262 153 -426t398 -164q246 0 398.5 163.5t152.5 426.5q0 261 -152.5 424.5t-398.5 163.5q-245 0 -398 -163.5t-153 -424.5z M696 1587l258 258l80 -80l-258 -258z" />
<glyph unicode="&#xd4;" horiz-adv-x="1650" d="M111 717q0 215 89 381t251.5 258t373.5 92t373.5 -92t252 -258t89.5 -381q0 -327 -198 -530t-517 -203t-516.5 203t-197.5 530zM274 717q0 -262 153 -426t398 -164q246 0 398.5 163.5t152.5 426.5q0 261 -152.5 424.5t-398.5 163.5q-245 0 -398 -163.5t-153 -424.5z M825 1845l258 -258l-79 -80l-179 179l-178 -179l-80 80z" />
<glyph unicode="&#xd5;" horiz-adv-x="1650" d="M111 717q0 215 89 381t251.5 258t373.5 92t373.5 -92t252 -258t89.5 -381q0 -327 -198 -530t-517 -203t-516.5 203t-197.5 530zM274 717q0 -262 153 -426t398 -164q246 0 398.5 163.5t152.5 426.5q0 261 -152.5 424.5t-398.5 163.5q-245 0 -398 -163.5t-153 -424.5z M629 1563h-88q0 81 48 130.5t124 49.5q41 0 73 -15.5t49.5 -33.5t43.5 -33.5t55 -15.5q37 0 61.5 25.5t24.5 64.5h88q0 -81 -48.5 -131t-125.5 -50q-41 0 -73.5 15.5t-49.5 34t-42 34t-54 15.5q-37 0 -61.5 -24.5t-24.5 -65.5z" />
<glyph unicode="&#xd6;" horiz-adv-x="1650" d="M111 717q0 215 89 381t251.5 258t373.5 92t373.5 -92t252 -258t89.5 -381q0 -327 -198 -530t-517 -203t-516.5 203t-197.5 530zM274 717q0 -262 153 -426t398 -164q246 0 398.5 163.5t152.5 426.5q0 261 -152.5 424.5t-398.5 163.5q-245 0 -398 -163.5t-153 -424.5z M537 1632q0 41 28 70t68 29q41 0 69.5 -29t28.5 -70q0 -40 -28.5 -68t-69.5 -28q-40 0 -68 28t-28 68zM920 1632q0 41 28.5 70t69.5 29t69.5 -29t28.5 -70q0 -40 -28.5 -68t-69.5 -28t-69.5 28t-28.5 68z" />
<glyph unicode="&#xd7;" horiz-adv-x="890" d="M205 266l-88 86l241 242l-241 240l88 88l239 -242l242 242l86 -88l-240 -240l240 -242l-86 -86l-242 240z" />
<glyph unicode="&#xd8;" horiz-adv-x="1650" d="M115 -16l182 213q-186 202 -186 520q0 215 89 381t251.5 258t373.5 92q250 0 432 -131l113 131h166l-184 -215q188 -201 188 -516q0 -327 -198 -530t-517 -203q-254 0 -434 129l-110 -129h-166zM274 717q0 -239 127 -398l756 881q-140 105 -332 105q-245 0 -398 -163.5 t-153 -424.5zM1376 717q0 235 -129 395l-753 -881q138 -104 331 -104q246 0 398.5 163.5t152.5 426.5z" />
<glyph unicode="&#xd9;" horiz-adv-x="1396" d="M1073 522v912h160v-912q0 -241 -148.5 -389.5t-388.5 -148.5q-239 0 -385.5 148t-146.5 390v912h158v-912q0 -177 104 -286t270 -109q168 0 272.5 109t104.5 286zM567 1845l258 -258l-80 -80l-258 258z" />
<glyph unicode="&#xda;" horiz-adv-x="1396" d="M1073 522v912h160v-912q0 -241 -148.5 -389.5t-388.5 -148.5q-239 0 -385.5 148t-146.5 390v912h158v-912q0 -177 104 -286t270 -109q168 0 272.5 109t104.5 286zM569 1587l258 258l80 -80l-258 -258z" />
<glyph unicode="&#xdb;" horiz-adv-x="1396" d="M1073 522v912h160v-912q0 -241 -148.5 -389.5t-388.5 -148.5q-239 0 -385.5 148t-146.5 390v912h158v-912q0 -177 104 -286t270 -109q168 0 272.5 109t104.5 286zM698 1845l258 -258l-79 -80l-179 179l-178 -179l-80 80z" />
<glyph unicode="&#xdc;" horiz-adv-x="1396" d="M1073 522v912h160v-912q0 -241 -148.5 -389.5t-388.5 -148.5q-239 0 -385.5 148t-146.5 390v912h158v-912q0 -177 104 -286t270 -109q168 0 272.5 109t104.5 286zM408 1632q0 41 28 70t68 29q41 0 69.5 -29t28.5 -70q0 -40 -28.5 -68t-69.5 -28q-40 0 -68 28t-28 68z M791 1632q0 41 28.5 70t69.5 29t69.5 -29t28.5 -70q0 -40 -28.5 -68t-69.5 -28t-69.5 28t-28.5 68z" />
<glyph unicode="&#xdd;" horiz-adv-x="1386" d="M612 0v616l-546 818h184l442 -660l443 660h184l-547 -820v-614h-160zM565 1587l258 258l80 -80l-258 -258z" />
<glyph unicode="&#xde;" horiz-adv-x="1083" d="M164 0v1434h164v-297h225q188 0 303 -110t115 -294q0 -182 -115 -291.5t-303 -109.5h-225v-332h-164zM807 733q0 120 -70 192t-184 72h-225v-526h225q114 0 184 72t70 190z" />
<glyph unicode="&#xdf;" horiz-adv-x="1228" d="M307 1167v-1167h-160v1167q0 170 112.5 276.5t293.5 106.5t293 -106t112 -277q0 -132 -67.5 -227t-183.5 -127q0 -60 23.5 -104t61 -71t83 -50t91 -48t83 -57t61 -85.5t23.5 -125.5q0 -117 -81 -202.5t-227 -85.5q-89 0 -169 33t-134 92l94 94q36 -41 90 -64.5t109 -23.5 q81 0 122.5 47t41.5 102q0 47 -23.5 82.5t-61 59t-83 45.5t-91 50t-83 63.5t-61 94.5t-23.5 136v127q109 0 177.5 67.5t68.5 175.5q0 109 -68.5 178.5t-177.5 69.5q-108 0 -177 -69t-69 -177z" />
<glyph unicode="&#xe0;" horiz-adv-x="927" d="M856 100v-102q-23 -10 -65 -10q-131 0 -170 104q-111 -108 -265 -108q-129 0 -198.5 77t-69.5 189q0 139 103.5 213t275.5 74q39 0 74 -3.5t50 -7.5l15 -4v123q0 68 -47 116t-145 48q-59 0 -117 -19t-94 -55l-80 80q121 121 303 121q162 0 248 -82.5t86 -208.5v-465 q0 -80 96 -80zM401 113q55 0 110 22.5t95 63.5v215q-47 14 -127 14q-237 0 -237 -162q0 -65 38 -109t121 -44zM297 1384l258 -258l-80 -79l-258 258z" />
<glyph unicode="&#xe1;" horiz-adv-x="927" d="M856 100v-102q-23 -10 -65 -10q-131 0 -170 104q-111 -108 -265 -108q-129 0 -198.5 77t-69.5 189q0 139 103.5 213t275.5 74q39 0 74 -3.5t50 -7.5l15 -4v123q0 68 -47 116t-145 48q-59 0 -117 -19t-94 -55l-80 80q121 121 303 121q162 0 248 -82.5t86 -208.5v-465 q0 -80 96 -80zM401 113q55 0 110 22.5t95 63.5v215q-47 14 -127 14q-237 0 -237 -162q0 -65 38 -109t121 -44zM305 1126l258 258l80 -79l-258 -258z" />
<glyph unicode="&#xe2;" horiz-adv-x="927" d="M856 100v-102q-23 -10 -65 -10q-131 0 -170 104q-111 -108 -265 -108q-129 0 -198.5 77t-69.5 189q0 139 103.5 213t275.5 74q39 0 74 -3.5t50 -7.5l15 -4v123q0 68 -47 116t-145 48q-59 0 -117 -19t-94 -55l-80 80q121 121 303 121q162 0 248 -82.5t86 -208.5v-465 q0 -80 96 -80zM401 113q55 0 110 22.5t95 63.5v215q-47 14 -127 14q-237 0 -237 -162q0 -65 38 -109t121 -44zM438 1384l258 -258l-80 -79l-178 178l-178 -178l-80 79z" />
<glyph unicode="&#xe3;" horiz-adv-x="927" d="M856 100v-102q-23 -10 -65 -10q-131 0 -170 104q-111 -108 -265 -108q-129 0 -198.5 77t-69.5 189q0 139 103.5 213t275.5 74q39 0 74 -3.5t50 -7.5l15 -4v123q0 68 -47 116t-145 48q-59 0 -117 -19t-94 -55l-80 80q121 121 303 121q162 0 248 -82.5t86 -208.5v-465 q0 -80 96 -80zM401 113q55 0 110 22.5t95 63.5v215q-47 14 -127 14q-237 0 -237 -162q0 -65 38 -109t121 -44zM256 1102h-88q0 81 48 130.5t124 49.5q41 0 73.5 -15.5t49.5 -33.5t43 -33.5t55 -15.5q37 0 61.5 25.5t24.5 64.5h88q0 -81 -48.5 -130.5t-125.5 -49.5 q-41 0 -73.5 15.5t-49.5 33.5t-42 33.5t-54 15.5q-37 0 -61.5 -24.5t-24.5 -65.5z" />
<glyph unicode="&#xe4;" horiz-adv-x="927" d="M856 100v-102q-23 -10 -65 -10q-131 0 -170 104q-111 -108 -265 -108q-129 0 -198.5 77t-69.5 189q0 139 103.5 213t275.5 74q39 0 74 -3.5t50 -7.5l15 -4v123q0 68 -47 116t-145 48q-59 0 -117 -19t-94 -55l-80 80q121 121 303 121q162 0 248 -82.5t86 -208.5v-465 q0 -80 96 -80zM401 113q55 0 110 22.5t95 63.5v215q-47 14 -127 14q-237 0 -237 -162q0 -65 38 -109t121 -44zM541 1171q0 41 28.5 70t69.5 29t69.5 -29t28.5 -70q0 -40 -28.5 -68t-69.5 -28t-69.5 28t-28.5 68zM158 1171q0 41 28 70t68 29q41 0 69.5 -29t28.5 -70 q0 -40 -28.5 -68t-69.5 -28q-40 0 -68 28t-28 68z" />
<glyph unicode="&#xe5;" horiz-adv-x="927" d="M856 100v-102q-23 -10 -65 -10q-131 0 -170 104q-111 -108 -265 -108q-129 0 -198.5 77t-69.5 189q0 139 103.5 213t275.5 74q39 0 74 -3.5t50 -7.5l15 -4v123q0 68 -47 116t-145 48q-59 0 -117 -19t-94 -55l-80 80q121 121 303 121q162 0 248 -82.5t86 -208.5v-465 q0 -80 96 -80zM262 1219q0 83 50 133.5t130 50.5q82 0 131.5 -50.5t49.5 -133.5t-49.5 -134t-131.5 -51q-80 0 -130 51t-50 134zM401 113q55 0 110 22.5t95 63.5v215q-47 14 -127 14q-237 0 -237 -162q0 -65 38 -109t121 -44zM336 1217q0 -49 29.5 -79t76.5 -30 q48 0 77.5 30t29.5 79q0 50 -30 80t-77 30q-48 0 -77 -29.5t-29 -80.5z" />
<glyph unicode="&#xe6;" horiz-adv-x="1472" d="M606 532v109q0 66 -47 117t-137 51q-55 0 -114 -21.5t-91 -54.5l-86 86q55 55 135 86t168 31q160 0 244 -105q114 105 289 105q202 0 310.5 -136t108.5 -382h-626v-189q86 -106 250 -106q155 0 243 94l95 -96q-134 -137 -349 -137q-228 0 -354 141q-55 -67 -130 -104 t-159 -37q-128 0 -196 75.5t-68 178.5q0 140 126 219.5t319 79.5q29 0 69 -5zM760 641v-111h471q-12 127 -80 199t-182 72q-136 0 -215 -101q6 -54 6 -59zM606 209v217q-32 4 -61 4q-130 0 -213.5 -48t-83.5 -130q0 -53 36.5 -96t118.5 -43q54 0 108.5 25t94.5 71z" />
<glyph unicode="&#xe7;" horiz-adv-x="976" d="M250 461q0 -151 89 -244.5t232 -93.5q150 0 238 94l96 -96q-125 -128 -317 -137v-105q63 -11 99 -52t36 -106q0 -72 -47.5 -116.5t-122.5 -44.5q-76 0 -125 49l53 53q29 -29 72 -29q42 0 69 25.5t27 67.5t-33 68t-100 26v166q-191 15 -307.5 145t-116.5 330 q0 212 130 343.5t341 131.5q209 0 342 -139l-96 -95q-90 97 -238 97q-143 0 -232 -93.5t-89 -244.5z" />
<glyph unicode="&#xe8;" horiz-adv-x="1040" d="M952 418h-698q11 -135 97.5 -215t226.5 -80q152 0 243 94l92 -96q-134 -137 -346 -137q-213 0 -344 132t-131 349q0 210 122 340.5t323 130.5q202 0 308.5 -138t106.5 -380zM537 801q-116 0 -193 -73.5t-90 -197.5h545q-14 127 -82 199t-180 72zM403 1384l259 -258 l-80 -79l-258 258z" />
<glyph unicode="&#xe9;" horiz-adv-x="1040" d="M952 418h-698q11 -135 97.5 -215t226.5 -80q152 0 243 94l92 -96q-134 -137 -346 -137q-213 0 -344 132t-131 349q0 210 122 340.5t323 130.5q202 0 308.5 -138t106.5 -380zM537 801q-116 0 -193 -73.5t-90 -197.5h545q-14 127 -82 199t-180 72zM403 1126l259 258l79 -79 l-258 -258z" />
<glyph unicode="&#xea;" horiz-adv-x="1040" d="M952 418h-698q11 -135 97.5 -215t226.5 -80q152 0 243 94l92 -96q-134 -137 -346 -137q-213 0 -344 132t-131 349q0 210 122 340.5t323 130.5q202 0 308.5 -138t106.5 -380zM537 801q-116 0 -193 -73.5t-90 -197.5h545q-14 127 -82 199t-180 72zM532 1384l259 -258 l-80 -79l-179 178l-178 -178l-80 79z" />
<glyph unicode="&#xeb;" horiz-adv-x="1040" d="M952 418h-698q11 -135 97.5 -215t226.5 -80q152 0 243 94l92 -96q-134 -137 -346 -137q-213 0 -344 132t-131 349q0 210 122 340.5t323 130.5q202 0 308.5 -138t106.5 -380zM537 801q-116 0 -193 -73.5t-90 -197.5h545q-14 127 -82 199t-180 72zM244 1171q0 41 28 70 t68 29q41 0 69.5 -29t28.5 -70q0 -40 -28.5 -68t-69.5 -28q-40 0 -68 28t-28 68zM627 1171q0 41 28.5 70t69.5 29t69.5 -29t28.5 -70q0 -40 -28.5 -68t-69.5 -28t-69.5 28t-28.5 68z" />
<glyph unicode="&#xec;" d="M94 1384l258 -258l-80 -79l-258 258zM147 0v922h154v-922h-154z" />
<glyph unicode="&#xed;" d="M96 1126l258 258l80 -79l-258 -258zM147 0v922h154v-922h-154z" />
<glyph unicode="&#xee;" d="M147 0v922h154v-922h-154zM225 1384l258 -258l-80 -79l-178 178l-178 -178l-80 79z" />
<glyph unicode="&#xef;" d="M147 0v922h154v-922h-154zM-29 1171q0 41 28.5 70t68.5 29q41 0 69.5 -29t28.5 -70q0 -40 -28.5 -68t-69.5 -28q-40 0 -68.5 28t-28.5 68zM283 1171q0 41 28.5 70t69.5 29t69.5 -29t28.5 -70q0 -40 -28.5 -68t-69.5 -28t-69.5 28t-28.5 68z" />
<glyph unicode="&#xf0;" horiz-adv-x="1136" d="M342 1098l-61 106l176 101l-129 170l137 75l127 -168l188 107l62 -105l-174 -100q90 -134 138.5 -209.5t102 -168t78 -155.5t41 -134t16.5 -142q0 -225 -130.5 -358t-344.5 -133q-215 0 -346 132.5t-131 346.5q0 211 133.5 342t339.5 131q100 0 174 -43q-95 159 -204 315 zM885 461q0 151 -88.5 244.5t-229.5 93.5t-229 -93.5t-88 -244.5t88 -244.5t229 -93.5t229.5 93.5t88.5 244.5z" />
<glyph unicode="&#xf1;" horiz-adv-x="1064" d="M147 922h154v-78q112 92 270 92q156 0 251.5 -105t95.5 -274v-557h-154v557q0 108 -63.5 175t-165.5 67q-145 0 -234 -92v-707h-154v922zM326 1102h-88q0 81 48 130.5t124 49.5q41 0 73.5 -15.5t49.5 -33.5t43 -33.5t55 -15.5q37 0 61.5 25.5t24.5 64.5h88 q0 -81 -48.5 -130.5t-125.5 -49.5q-41 0 -73.5 15.5t-49.5 33.5t-42 33.5t-54 15.5q-37 0 -61.5 -24.5t-24.5 -65.5z" />
<glyph unicode="&#xf2;" horiz-adv-x="1124" d="M90 461q0 212 130 343.5t341 131.5t342 -131.5t131 -343.5q0 -213 -131 -345t-342 -132t-341 131.5t-130 345.5zM248 461q0 -151 86.5 -244.5t226.5 -93.5q138 0 225.5 94t87.5 244t-87.5 244t-225.5 94q-140 0 -226.5 -93.5t-86.5 -244.5zM432 1384l258 -258l-80 -79 l-258 258z" />
<glyph unicode="&#xf3;" horiz-adv-x="1124" d="M90 461q0 212 130 343.5t341 131.5t342 -131.5t131 -343.5q0 -213 -131 -345t-342 -132t-341 131.5t-130 345.5zM248 461q0 -151 86.5 -244.5t226.5 -93.5q138 0 225.5 94t87.5 244t-87.5 244t-225.5 94q-140 0 -226.5 -93.5t-86.5 -244.5zM434 1126l258 258l80 -79 l-258 -258z" />
<glyph unicode="&#xf4;" horiz-adv-x="1124" d="M90 461q0 212 130 343.5t341 131.5t342 -131.5t131 -343.5q0 -213 -131 -345t-342 -132t-341 131.5t-130 345.5zM248 461q0 -151 86.5 -244.5t226.5 -93.5q138 0 225.5 94t87.5 244t-87.5 244t-225.5 94q-140 0 -226.5 -93.5t-86.5 -244.5zM561 1384l258 -258l-80 -79 l-178 178l-178 -178l-80 79z" />
<glyph unicode="&#xf5;" horiz-adv-x="1124" d="M90 461q0 212 130 343.5t341 131.5t342 -131.5t131 -343.5q0 -213 -131 -345t-342 -132t-341 131.5t-130 345.5zM248 461q0 -151 86.5 -244.5t226.5 -93.5q138 0 225.5 94t87.5 244t-87.5 244t-225.5 94q-140 0 -226.5 -93.5t-86.5 -244.5zM365 1102h-89q0 81 48.5 130.5 t124.5 49.5q41 0 73 -15.5t49.5 -33.5t43.5 -33.5t55 -15.5q37 0 61.5 25.5t24.5 64.5h88q0 -81 -48.5 -130.5t-125.5 -49.5q-41 0 -73.5 15.5t-49.5 33.5t-42 33.5t-54 15.5q-37 0 -61.5 -24.5t-24.5 -65.5z" />
<glyph unicode="&#xf6;" horiz-adv-x="1124" d="M90 461q0 212 130 343.5t341 131.5t342 -131.5t131 -343.5q0 -213 -131 -345t-342 -132t-341 131.5t-130 345.5zM248 461q0 -151 86.5 -244.5t226.5 -93.5q138 0 225.5 94t87.5 244t-87.5 244t-225.5 94q-140 0 -226.5 -93.5t-86.5 -244.5zM272 1171q0 41 28.5 70 t68.5 29q41 0 69.5 -29t28.5 -70q0 -40 -28.5 -68t-69.5 -28q-40 0 -68.5 28t-28.5 68zM655 1171q0 41 29 70t70 29t69.5 -29t28.5 -70q0 -40 -28.5 -68t-69.5 -28t-70 28t-29 68z" />
<glyph unicode="&#xf7;" horiz-adv-x="1024" d="M123 485v123h778v-123h-778zM416 209q0 40 28 67t68 27t67 -27t27 -67t-27 -67t-67 -27t-68 27t-28 67zM416 885q0 40 28 67t68 27t67 -27t27 -67t-27 -67t-67 -27t-68 27t-28 67z" />
<glyph unicode="&#xf8;" horiz-adv-x="1124" d="M104 -16l109 139q-123 129 -123 338q0 212 130 343.5t341 131.5q132 0 244 -59l55 69h158l-113 -143q129 -132 129 -342q0 -213 -131 -345t-342 -132q-143 0 -250 61l-47 -61h-160zM885 461q0 131 -70 227l-418 -534q71 -41 164 -41q145 0 234.5 96.5t89.5 251.5z M238 461q0 -137 65 -223l418 532q-70 39 -160 39q-145 0 -234 -96.5t-89 -251.5z" />
<glyph unicode="&#xf9;" horiz-adv-x="1085" d="M938 922v-543q0 -177 -109 -286t-286 -109t-286.5 109t-109.5 286v543h160v-543q0 -114 66.5 -185t173.5 -71q106 0 172.5 71t66.5 185v543h152zM412 1384l258 -258l-80 -79l-258 258z" />
<glyph unicode="&#xfa;" horiz-adv-x="1085" d="M938 922v-543q0 -177 -109 -286t-286 -109t-286.5 109t-109.5 286v543h160v-543q0 -114 66.5 -185t173.5 -71q106 0 172.5 71t66.5 185v543h152zM414 1126l258 258l80 -79l-258 -258z" />
<glyph unicode="&#xfb;" horiz-adv-x="1085" d="M938 922v-543q0 -177 -109 -286t-286 -109t-286.5 109t-109.5 286v543h160v-543q0 -114 66.5 -185t173.5 -71q106 0 172.5 71t66.5 185v543h152zM543 1384l258 -258l-80 -79l-178 178l-178 -178l-80 79z" />
<glyph unicode="&#xfc;" horiz-adv-x="1085" d="M938 922v-543q0 -177 -109 -286t-286 -109t-286.5 109t-109.5 286v543h160v-543q0 -114 66.5 -185t173.5 -71q106 0 172.5 71t66.5 185v543h152zM252 1171q0 41 28 70t68 29q41 0 69.5 -29t28.5 -70q0 -40 -28.5 -68t-69.5 -28q-40 0 -68 28t-28 68zM635 1171 q0 41 28.5 70t69.5 29t69.5 -29t28.5 -70q0 -40 -28.5 -68t-69.5 -28t-69.5 28t-28.5 68z" />
<glyph unicode="&#xfd;" horiz-adv-x="1009" d="M977 922l-631 -1434h-170l256 512l-401 922h172l301 -738l303 738h170zM375 1126l258 258l80 -79l-258 -258z" />
<glyph unicode="&#xfe;" horiz-adv-x="1107" d="M147 1536h154v-692q112 92 272 92q198 0 320.5 -131.5t122.5 -343.5q0 -214 -129 -345.5t-338 -131.5q-142 0 -248 65v-561h-154v2048zM856 461q0 151 -89 244.5t-232 93.5q-145 0 -234 -92v-498q86 -86 234 -86q143 0 232 93.5t89 244.5z" />
<glyph unicode="&#xff;" horiz-adv-x="1009" d="M977 922l-631 -1434h-170l256 512l-401 922h172l301 -738l303 738h170zM215 1171q0 41 28 70t68 29q41 0 70 -29t29 -70q0 -40 -29 -68t-70 -28q-40 0 -68 28t-28 68zM598 1171q0 41 28.5 70t69.5 29t70 -29t29 -70q0 -40 -29 -68t-70 -28t-69.5 28t-28.5 68z" />
<glyph unicode="&#x152;" horiz-adv-x="1814" d="M1149 1300v-512h485v-133h-485v-522h563v-133h-715q-85 -16 -163 -16q-322 0 -521.5 203t-199.5 530q0 215 90 381t254 258t377 92q72 0 161 -14h707v-134h-553zM834 127q80 0 157 25v1130q-81 23 -157 23q-248 0 -403 -163.5t-155 -424.5q0 -262 155 -426t403 -164z" />
<glyph unicode="&#x153;" horiz-adv-x="1699" d="M1614 418h-690q11 -135 96 -215t223 -80q152 0 240 94l92 -96q-131 -137 -342 -137q-206 0 -336 133q-130 -133 -336 -133q-211 0 -341 131.5t-130 345.5q0 212 130 343.5t341 131.5q201 0 330 -129q120 129 309 129q200 0 307 -136t107 -382zM561 123q160 0 248 119 q-47 96 -47 223q0 124 43 217q-89 117 -244 117q-140 0 -226.5 -93.5t-86.5 -244.5t86.5 -244.5t226.5 -93.5zM1202 801q-114 0 -189.5 -73.5t-88.5 -197.5h536q-14 127 -80.5 199t-177.5 72z" />
<glyph unicode="&#x178;" horiz-adv-x="1386" d="M612 0v616l-546 818h184l442 -660l443 660h184l-547 -820v-614h-160zM403 1632q0 41 28.5 70t68.5 29q41 0 69.5 -29t28.5 -70q0 -40 -28.5 -68t-69.5 -28q-40 0 -68.5 28t-28.5 68zM786 1632q0 41 29 70t70 29t69.5 -29t28.5 -70q0 -40 -28.5 -68t-69.5 -28t-70 28 t-29 68z" />
<glyph unicode="&#x2c6;" horiz-adv-x="720" d="M360 1384l258 -258l-79 -79l-179 178l-178 -178l-80 79z" />
<glyph unicode="&#x2dc;" horiz-adv-x="690" d="M150 1102h-89q0 81 48 130.5t124 49.5q41 0 73.5 -15.5t50 -33.5t43.5 -33.5t55 -15.5q37 0 61.5 25.5t24.5 64.5h88q0 -81 -48.5 -130.5t-125.5 -49.5q-41 0 -73.5 15.5t-49.5 33.5t-42 33.5t-54 15.5q-37 0 -61.5 -24.5t-24.5 -65.5z" />
<glyph unicode="&#x2000;" horiz-adv-x="932" />
<glyph unicode="&#x2001;" horiz-adv-x="1864" />
<glyph unicode="&#x2002;" horiz-adv-x="932" />
<glyph unicode="&#x2003;" horiz-adv-x="1864" />
<glyph unicode="&#x2004;" horiz-adv-x="621" />
<glyph unicode="&#x2005;" horiz-adv-x="466" />
<glyph unicode="&#x2006;" horiz-adv-x="310" />
<glyph unicode="&#x2007;" horiz-adv-x="310" />
<glyph unicode="&#x2008;" horiz-adv-x="233" />
<glyph unicode="&#x2009;" horiz-adv-x="372" />
<glyph unicode="&#x200a;" horiz-adv-x="103" />
<glyph unicode="&#x2010;" horiz-adv-x="696" d="M123 481v123h450v-123h-450z" />
<glyph unicode="&#x2011;" horiz-adv-x="696" d="M123 481v123h450v-123h-450z" />
<glyph unicode="&#x2012;" horiz-adv-x="696" d="M123 481v123h450v-123h-450z" />
<glyph unicode="&#x2013;" horiz-adv-x="1024" d="M123 481v123h778v-123h-778z" />
<glyph unicode="&#x2014;" horiz-adv-x="1433" d="M123 481v123h1188v-123h-1188z" />
<glyph unicode="&#x2018;" d="M285 1448l53 -53q-81 -84 -96 -152q37 -6 61.5 -34t24.5 -66q0 -43 -30 -73t-73 -30q-42 0 -72 29.5t-30 89.5q0 131 162 289z" />
<glyph unicode="&#x2019;" d="M166 1040l-53 56q81 84 96 149q-37 6 -61.5 34.5t-24.5 66.5q0 43 29.5 72.5t72.5 29.5q42 0 72.5 -29t30.5 -90q0 -127 -162 -289z" />
<glyph unicode="&#x201a;" d="M166 -219l-53 55q80 84 96 150q-37 6 -61.5 34t-24.5 66q0 43 29.5 72.5t72.5 29.5q42 0 72.5 -28.5t30.5 -89.5q0 -127 -162 -289z" />
<glyph unicode="&#x201c;" horiz-adv-x="727" d="M561 1499l53 -53q-81 -84 -96 -152q37 -6 61.5 -34t24.5 -66q0 -43 -29.5 -72.5t-72.5 -29.5q-42 0 -72.5 29t-30.5 89q0 131 162 289zM285 1499l53 -53q-81 -84 -96 -152q37 -6 61.5 -34t24.5 -66q0 -43 -30 -72.5t-73 -29.5q-42 0 -72 29t-30 89q0 131 162 289z" />
<glyph unicode="&#x201d;" horiz-adv-x="727" d="M166 1092l-53 55q81 84 96 149q-37 6 -61.5 34.5t-24.5 66.5q0 43 29.5 72.5t72.5 29.5q42 0 72.5 -29t30.5 -90q0 -126 -162 -288zM442 1092l-53 55q81 84 96 149q-37 6 -61.5 34.5t-24.5 66.5q0 43 30 72.5t73 29.5q42 0 72 -29t30 -90q0 -126 -162 -288z" />
<glyph unicode="&#x201e;" horiz-adv-x="727" d="M166 -219l-53 55q80 84 96 150q-37 6 -61.5 34t-24.5 66q0 43 29.5 72.5t72.5 29.5q42 0 72.5 -28.5t30.5 -89.5q0 -127 -162 -289zM442 -219l-53 55q80 84 96 150q-37 6 -61.5 34t-24.5 66q0 43 30 72.5t73 29.5q42 0 72 -28.5t30 -89.5q0 -127 -162 -289z" />
<glyph unicode="&#x2022;" horiz-adv-x="530" d="M117 563q0 62 43 105t104 43q63 0 105.5 -43t42.5 -105q0 -63 -42.5 -105t-105.5 -42q-62 0 -104.5 42t-42.5 105z" />
<glyph unicode="&#x2026;" horiz-adv-x="1351" d="M123 86q0 43 29.5 72.5t72.5 29.5t73 -29.5t30 -72.5t-30 -72.5t-73 -29.5t-72.5 29.5t-29.5 72.5zM573 86q0 43 30 72.5t73 29.5t72.5 -29.5t29.5 -72.5t-29.5 -72.5t-72.5 -29.5t-73 29.5t-30 72.5zM1024 86q0 43 29.5 72.5t72.5 29.5t73 -29.5t30 -72.5t-30 -72.5 t-73 -29.5t-72.5 29.5t-29.5 72.5z" />
<glyph unicode="&#x202f;" horiz-adv-x="372" />
<glyph unicode="&#x2039;" horiz-adv-x="614" d="M422 162l-350 350l350 350l80 -80l-271 -270l271 -270z" />
<glyph unicode="&#x203a;" horiz-adv-x="614" d="M532 512l-350 -350l-80 80l271 270l-271 270l80 80z" />
<glyph unicode="&#x205f;" horiz-adv-x="466" />
<glyph unicode="&#x20ac;" horiz-adv-x="1548" d="M92 809v92h135q54 251 243 399t462 148q159 0 293.5 -54t230.5 -153l-102 -102q-75 79 -181.5 122.5t-234.5 43.5q-202 0 -347 -109t-196 -295h547v-92h-563q-6 -47 -6 -92q0 -49 6 -92h563v-93h-547q51 -187 195.5 -296t347.5 -109q258 0 416 164l102 -101 q-96 -99 -230 -152.5t-294 -53.5q-274 0 -462.5 148t-242.5 400h-135v93h121q-4 58 -4 92q0 30 4 92h-121z" />
<glyph unicode="&#x2122;" horiz-adv-x="1400" d="M342 1354v-637h-96v637h-199v80h494v-80h-199zM1225 717v522l-228 -365h-36l-228 365v-522h-96v717h72l270 -422l268 422h74v-717h-96z" />
<glyph unicode="&#x25fc;" horiz-adv-x="921" d="M0 922h922v-922h-922v922z" />
</font>
</defs>
</svg>
