<?xml version="1.0" standalone="no"?>
<!DOCTYPE svg PUBLIC "-//W3C//DTD SVG 1.1//EN" "http://www.w3.org/Graphics/SVG/1.1/DTD/svg11.dtd" >
<svg xmlns="http://www.w3.org/2000/svg">
<metadata></metadata>
<defs>
<font id="futuraef_demiboldregular" horiz-adv-x="1024" >
<font-face units-per-em="2048" ascent="1638" descent="-410" />
<missing-glyph horiz-adv-x="512" />
<glyph horiz-adv-x="0" />
<glyph horiz-adv-x="682" />
<glyph unicode=" "  horiz-adv-x="512" />
<glyph unicode="&#x09;" horiz-adv-x="512" />
<glyph unicode="&#xa0;" horiz-adv-x="512" />
<glyph unicode="!" horiz-adv-x="512" d="M96 133q0 66 47 113t113 47t113 -47t47 -113t-47 -113t-113 -47t-113 47t-47 113zM129 391v975h254v-975h-254z" />
<glyph unicode="&#x22;" horiz-adv-x="821" d="M86 1366h276l-47 -549h-182zM457 1366h276l-47 -549h-182z" />
<glyph unicode="#" horiz-adv-x="1228" d="M20 381l35 223h211l29 184h-209l35 226h209l55 352h254l-57 -352h188l55 352h256l-55 -352h207l-35 -226h-207l-28 -184h208l-34 -223h-209l-62 -381h-256l62 381h-189l-59 -381h-254l61 381h-211zM518 604h189l28 184h-188z" />
<glyph unicode="$" horiz-adv-x="1161" d="M96 244l152 157q129 -180 305 -180q82 0 143.5 49.5t61.5 130.5q0 49 -29 93q-8 12 -21 23.5t-23.5 19t-30 17.5t-28 13.5t-32 13t-27.5 11.5q-156 65 -218 107q-141 95 -153 249q-1 16 -1 33q0 80 33 155.5t91 129.5q78 73 218 96v197h127v-197q102 -12 170 -46 t145 -108l-135 -172q-96 111 -219 111q-67 0 -120.5 -38.5t-53.5 -102.5q0 -45 31.5 -80t82 -59t112 -48t122.5 -56t111.5 -73t82 -109t31.5 -155q0 -164 -98 -274t-262 -148v-207h-127v199q-145 9 -250.5 68.5t-190.5 179.5z" />
<glyph unicode="%" horiz-adv-x="1587" d="M61 1059q0 144 102 233.5t247 89.5q144 0 245 -89.5t101 -231.5q0 -143 -101 -234.5t-245 -91.5q-147 0 -248 89.5t-101 234.5zM231 1059q0 -72 52.5 -124t124.5 -52q74 0 125 51.5t51 124.5t-51 124.5t-125 51.5q-72 0 -124.5 -52t-52.5 -124zM332 6l813 1405l108 -61 l-813 -1407zM834 303q0 144 101.5 233t246.5 89q142 0 243 -89.5t101 -230.5q0 -143 -100 -234t-244 -91q-147 0 -247.5 89t-100.5 234zM1004 303q0 -73 51.5 -125.5t124.5 -52.5q74 0 126 52.5t52 125.5t-52 124.5t-126 51.5q-72 0 -124 -52t-52 -124z" />
<glyph unicode="&#x26;" horiz-adv-x="1454" d="M109 360q0 100 49.5 188.5t134.5 139.5q21 13 69 39.5t72 42.5q-66 75 -101.5 142t-35.5 147q0 104 52.5 182t137 117t187.5 39q151 0 258.5 -91.5t107.5 -238.5q0 -57 -20.5 -108t-58 -92t-77.5 -72t-93 -62l225 -258q113 113 170 189l155 -154q-56 -78 -178 -197 l277 -313h-330l-133 154q-230 -185 -436 -185q-117 0 -214.5 46t-157.5 136.5t-60 208.5zM377 393q0 -78 62 -133t141 -55q65 0 124 31.5t123 85.5l-258 296q-34 -22 -50 -33.5t-48.5 -37.5t-49 -46.5t-30.5 -49.5t-14 -58zM547 1077q0 -19 6.5 -39.5t12.5 -34.5t23 -37.5 t22.5 -30.5t28.5 -33.5t24 -27.5q34 22 54.5 38t47 42t40 55t13.5 62q0 61 -39 98t-100 37q-56 0 -94.5 -36.5t-38.5 -92.5z" />
<glyph unicode="'" horiz-adv-x="450" d="M86 1366h276l-47 -549h-182z" />
<glyph unicode="(" horiz-adv-x="653" d="M137 621q0 249 50 502t153 446l199 -109q-166 -354 -166 -848q0 -220 41 -450t125 -402l-199 -108q-203 389 -203 969z" />
<glyph unicode=")" horiz-adv-x="653" d="M117 -240q164 352 164 848q0 222 -40.5 452t-123.5 400l196 109q106 -196 155.5 -453.5t49.5 -515.5q0 -244 -51.5 -500t-153.5 -448z" />
<glyph unicode="*" horiz-adv-x="1161" d="M236 1214l59 181l233 -119l-43 258h191l-43 -258l233 121l58 -180l-260 -41l188 -185l-154 -110l-118 235l-117 -237l-154 110l187 187z" />
<glyph unicode="+" d="M68 580v229h319v319h250v-319h319v-229h-319v-320h-250v320h-319z" />
<glyph unicode="," horiz-adv-x="512" d="M8 -268l217 551l230 -27l-289 -543z" />
<glyph unicode="-" horiz-adv-x="460" d="M0 367v208h461v-208h-461z" />
<glyph unicode="." horiz-adv-x="512" d="M96 133q0 66 47 113t113 47t113 -47t47 -113t-47 -113t-113 -47t-113 47t-47 113z" />
<glyph unicode="/" horiz-adv-x="952" d="M-59 -281l772 1850l172 -68l-772 -1849z" />
<glyph unicode="0" horiz-adv-x="1161" d="M51 682q0 100 18 198.5t59.5 193.5t101 167t150.5 116t200 44t199.5 -44t150.5 -115.5t101 -166t59 -193t18 -198.5t-18 -198.5t-59 -193.5t-101 -167t-150.5 -116t-199.5 -44t-199.5 44t-150 115.5t-101 166t-60 193t-18.5 198.5zM317 684q0 -53 7 -111.5t26 -127 t47 -122t75.5 -89t107.5 -35.5t107.5 35.5t75.5 89t46.5 122t25.5 127t7 111.5t-7 111.5t-25.5 126t-46.5 120t-75.5 88t-107.5 35.5t-107.5 -35.5t-75.5 -88t-47 -120t-26 -126t-7 -111.5z" />
<glyph unicode="1" horiz-adv-x="1161" d="M268 1133v233h463v-1366h-266v1133h-197z" />
<glyph unicode="2" horiz-adv-x="1161" d="M35 0l403 457q7 8 44 49.5t52.5 59t50.5 59.5t52.5 67.5t43.5 66t38.5 70.5t22.5 66t10 68q0 85 -60.5 143.5t-146.5 58.5q-97 0 -148.5 -63t-54.5 -162h-285q14 209 142.5 335t337.5 126q96 0 183 -31t153.5 -86.5t105.5 -138.5t39 -182q0 -68 -20.5 -134.5t-59 -128.5 t-77 -110t-91.5 -105l-238 -254h496v-231h-993z" />
<glyph unicode="3" horiz-adv-x="1161" d="M49 393h268q12 -93 71.5 -143.5t154.5 -50.5q94 0 156.5 61t62.5 156q0 92 -60.5 154.5t-152.5 62.5q-17 0 -49 -4v192q12 -2 37 -2q86 0 137 51.5t51 137.5q0 80 -51.5 131t-130.5 51q-164 0 -187 -180h-252q29 193 145.5 292t311.5 99q178 0 297 -101t119 -276 q0 -101 -36.5 -170t-121.5 -121q45 -19 73 -38t54 -50q82 -98 82 -248q0 -102 -39.5 -185t-107 -136t-155 -82t-185.5 -29q-128 0 -236.5 51t-178.5 150t-77 227z" />
<glyph unicode="4" horiz-adv-x="1161" d="M43 242v118l678 1031h240v-936h159v-213h-159v-242h-250v242h-668zM358 455h353v542z" />
<glyph unicode="5" horiz-adv-x="1161" d="M53 143l88 230q154 -174 344 -174q110 0 191.5 77.5t81.5 186.5q0 81 -46 144.5t-116.5 95.5t-149.5 32q-140 0 -262 -86h-14l162 717h631v-233h-451l-53 -211q66 8 100 8q202 0 333.5 -137t131.5 -340q0 -150 -73 -262.5t-193.5 -169t-268.5 -56.5q-131 0 -237 43 t-199 135z" />
<glyph unicode="6" horiz-adv-x="1161" d="M61 434q0 197 172 432q17 23 416 557l189 -143l-324 -414q87 33 160 33q122 0 220 -62t151 -164.5t53 -223.5q0 -148 -70.5 -259.5t-188.5 -168t-266 -56.5q-139 0 -254.5 55.5t-186.5 164t-71 249.5zM328 432q0 -107 73.5 -181.5t180.5 -74.5q105 0 177 75.5t72 180.5 t-72 179.5t-177 74.5q-106 0 -180 -74t-74 -180z" />
<glyph unicode="7" horiz-adv-x="1161" d="M94 1133v233h1053l-832 -1405l-213 127l625 1045h-633z" />
<glyph unicode="8" horiz-adv-x="1161" d="M106 373q0 123 63.5 210t180.5 130q-198 100 -198 303q0 118 62.5 207t161 133.5t214.5 44.5q114 0 209.5 -46t154 -135.5t58.5 -205.5q0 -106 -51.5 -179t-151.5 -122q246 -91 246 -336q0 -95 -39 -174.5t-104.5 -130.5t-149.5 -79t-176 -28t-177.5 27t-153 77.5 t-108.5 129t-41 174.5zM373 393q0 -88 59.5 -152.5t147.5 -64.5t148 64t60 153q0 88 -60.5 149.5t-147.5 61.5t-147 -62t-60 -149zM391 1014q0 -78 56.5 -134.5t134.5 -56.5q79 0 134.5 55.5t55.5 135.5t-55.5 136t-134.5 56q-78 0 -134.5 -57t-56.5 -135z" />
<glyph unicode="9" horiz-adv-x="1161" d="M61 918q0 145 71 256.5t189.5 169t262.5 57.5q105 0 198 -32.5t163.5 -91.5t111.5 -148.5t41 -196.5q0 -199 -172 -434q-80 -110 -237 -319t-177 -236l-188 141l323 416q-76 -33 -160 -33q-122 0 -220.5 62.5t-152 165t-53.5 223.5zM328 934q0 -105 73.5 -180.5 t178.5 -75.5q106 0 178.5 75.5t72.5 182.5q0 106 -72 180t-179 74q-105 0 -178.5 -75.5t-73.5 -180.5z" />
<glyph unicode=":" horiz-adv-x="512" d="M96 133q0 66 47 113t113 47t113 -47t47 -113t-47 -113t-113 -47t-113 47t-47 113zM96 758q0 66 47 113t113 47t113 -47t47 -113q0 -67 -46.5 -114.5t-113.5 -47.5q-66 0 -113 48t-47 114z" />
<glyph unicode=";" horiz-adv-x="512" d="M-4 -268l219 551l227 -27l-288 -543zM160 756q0 66 46.5 112.5t112.5 46.5q67 0 114.5 -46t47.5 -113t-47.5 -113.5t-114.5 -46.5q-66 0 -112.5 47t-46.5 113z" />
<glyph unicode="&#x3c;" d="M68 578v210l888 447v-248l-624 -305l622 -305l2 -246z" />
<glyph unicode="=" d="M68 414v217h888v-217h-888zM68 762v219h888v-219h-888z" />
<glyph unicode="&#x3e;" d="M68 131v246l624 307l-622 305l-2 246l888 -449v-208z" />
<glyph unicode="?" horiz-adv-x="1001" d="M88 1001v25q0 107 61.5 193t156 130t200.5 44q169 0 291.5 -109.5t122.5 -275.5q0 -148 -94.5 -244.5t-245.5 -132.5v-174h-252v360q46 -8 71 -8q66 0 122.5 21t96 69t39.5 115q0 68 -44.5 112.5t-112.5 44.5q-62 0 -105 -42t-43 -103q0 -4 1 -12.5t1 -12.5h-266z M297 133q0 66 47 113t113 47q68 0 114.5 -46.5t46.5 -113.5q0 -66 -46.5 -113t-112.5 -47q-67 0 -114.5 46.5t-47.5 113.5z" />
<glyph unicode="@" horiz-adv-x="1501" d="M68 672q0 148 56 281t152 228.5t229 151.5t281 56q131 0 249.5 -43.5t206.5 -121.5t140 -192t52 -248q0 -104 -35 -200q-40 -109 -120.5 -190t-180.5 -81q-56 0 -101.5 31.5t-58.5 83.5q-42 -62 -110 -96.5t-144 -34.5q-129 0 -208 94.5t-79 226.5q0 74 26.5 147 t72.5 131.5t114 95t144 36.5q64 0 118 -27t84 -79l17 86l172 -2l-78 -394q-12 -58 -12 -88q0 -71 51 -71q50 0 96 67q80 112 80 264q0 205 -140 328t-347 123q-156 0 -284.5 -75t-201.5 -205t-73 -285q0 -109 39.5 -213t113.5 -181q144 -147 404 -147q205 0 383 68l38 -156 q-189 -66 -413 -66q-164 0 -289 45q-134 46 -236 146.5t-155 231.5t-53 274zM592 627q0 -66 37 -111t102 -45q57 0 99.5 38.5t61.5 91.5t19 108q0 60 -37 100.5t-96 40.5q-82 0 -134 -69.5t-52 -153.5z" />
<glyph unicode="A" horiz-adv-x="1372" d="M2 0l592 1395h201l575 -1395h-287l-116 289h-557l-125 -289h-283zM494 504h391l-193 491z" />
<glyph unicode="B" horiz-adv-x="1167" d="M158 0v1366h338q233 0 333 -82q60 -50 91.5 -124.5t31.5 -155.5q0 -96 -35 -163.5t-114 -111.5q60 -11 100 -29.5t78 -56.5q48 -48 73 -116t25 -140q0 -99 -37.5 -175t-102.5 -121t-146.5 -68t-176.5 -23h-458zM424 215h115q266 0 266 191q0 54 -22 93t-61 58.5t-81.5 28 t-93.5 8.5h-123v-379zM424 797h76q96 0 151.5 42t55.5 134q0 176 -205 176h-78v-352z" />
<glyph unicode="C" horiz-adv-x="1232" d="M88 676q0 196 97 362t263.5 262.5t362.5 96.5q168 0 334 -84v-316q-153 156 -334 156q-129 0 -232.5 -65.5t-160 -173.5t-56.5 -236q0 -197 128.5 -332t324.5 -135q182 0 330 151v-313q-174 -80 -336 -80q-146 0 -279 55t-230 148.5t-154.5 225t-57.5 278.5z" />
<glyph unicode="D" horiz-adv-x="1370" d="M158 0v1366h389q152 0 286 -47.5t233.5 -134t157.5 -216t58 -284.5q0 -154 -65 -293t-183 -235q-103 -86 -222 -121t-267 -35h-387zM424 231h72q115 0 203.5 22.5t160.5 86.5q71 62 109.5 154.5t38.5 189.5q0 96 -39 186t-109 154q-72 65 -160 88t-204 23h-72v-904z" />
<glyph unicode="E" horiz-adv-x="1013" d="M158 0v1366h755v-231h-489v-304h471v-231h-471v-369h489v-231h-755z" />
<glyph unicode="F" horiz-adv-x="956" d="M158 0v1366h723v-231h-457v-304h428v-231h-428v-600h-266z" />
<glyph unicode="G" horiz-adv-x="1560" d="M88 680q0 205 94.5 369t260 256t370.5 92q189 0 340 -81.5t246 -240.5l-232 -125q-124 203 -356 203q-130 0 -233.5 -64.5t-159.5 -172t-56 -236.5t56 -236t159.5 -170t233.5 -63q138 0 238.5 78t117.5 213h-321v229h627v-33q0 -114 -21 -225q-31 -154 -125 -269.5 t-229 -175t-293 -59.5q-205 0 -368.5 90.5t-256 253t-92.5 367.5z" />
<glyph unicode="H" horiz-adv-x="1423" d="M158 0v1366h266v-528h577v528h267v-1366h-267v608h-577v-608h-266z" />
<glyph unicode="I" horiz-adv-x="579" d="M158 0v1366h266v-1366h-266z" />
<glyph unicode="J" horiz-adv-x="798" d="M-55 96l161 195q52 -76 132 -76q29 0 51.5 8t36.5 22.5t24.5 33.5t15 41t7.5 46.5t2.5 48.5t-0.5 46v24v881h266v-922q0 -100 -14 -177.5t-56 -143.5q-48 -74 -131.5 -115t-175.5 -41q-181 0 -319 129z" />
<glyph unicode="K" horiz-adv-x="1304" d="M158 0v1366h266v-578l502 578h336l-578 -631l608 -735h-350l-487 612l-31 -30v-582h-266z" />
<glyph unicode="L" horiz-adv-x="870" d="M158 0v1366h266v-1135h420v-231h-686z" />
<glyph unicode="M" horiz-adv-x="1777" d="M84 0l254 1391h182l373 -893l389 893h182l228 -1391h-269l-120 842l-377 -860h-74l-363 860l-137 -842h-268z" />
<glyph unicode="N" horiz-adv-x="1595" d="M158 0v1397h184l832 -951v920h266v-1393h-185l-831 951v-924h-266z" />
<glyph unicode="O" horiz-adv-x="1636" d="M88 680q0 201 98 366t266 258t369 93q148 0 282.5 -55t232 -149.5t155 -228t57.5 -282.5q0 -150 -58 -283t-156.5 -227t-233.5 -148.5t-283 -54.5q-200 0 -366.5 91.5t-264.5 255t-98 364.5zM362 684q0 -125 59 -233.5t164.5 -174t231.5 -65.5q127 0 232.5 65t165 173.5 t59.5 234.5t-60 233.5t-165.5 171.5t-231.5 64q-125 0 -230.5 -64.5t-165 -172t-59.5 -232.5z" />
<glyph unicode="P" horiz-adv-x="1095" d="M158 0v1366h397q120 0 204 -20t156 -84q69 -60 104.5 -147.5t35.5 -182.5q0 -185 -111 -305q-28 -30 -60 -52t-72.5 -35t-71 -21t-81.5 -10.5t-77 -3.5q-13 0 -33.5 -0.5t-48.5 0.5q-58 1 -76 1v-506h-266zM424 737h108q248 0 248 197q0 101 -69 158q-53 43 -195 43h-92 v-398z" />
<glyph unicode="Q" horiz-adv-x="1630" d="M88 680q0 151 58 285t157 228.5t234.5 149t285.5 54.5q202 0 370.5 -92t267 -257t98.5 -368q0 -142 -48 -259.5t-145 -227.5l221 -220l-268 -26l-113 125q-173 -103 -379 -103q-202 0 -370.5 90.5t-268.5 254.5t-100 366zM362 678q0 -197 129.5 -332t325.5 -135 q114 0 195 57l-264 258l276 23l152 -156q108 116 108 289q0 196 -134 333.5t-329 137.5q-198 0 -328.5 -138t-130.5 -337z" />
<glyph unicode="R" horiz-adv-x="1177" d="M158 0v1366h395q227 0 348 -98q66 -54 100.5 -136t34.5 -171q0 -64 -21 -132t-57 -118q-75 -106 -233 -136l430 -575h-330l-368 549h-33v-549h-266zM424 737h76q115 0 188.5 48.5t73.5 158.5t-71.5 157.5t-186.5 47.5h-80v-412z" />
<glyph unicode="S" horiz-adv-x="1089" d="M68 227l172 166q43 -86 117 -134t169 -48q90 0 150.5 52t60.5 140q0 45 -20.5 79.5t-55 57.5t-80 42t-95 37t-99 38t-95 49t-80 65.5t-55 93t-20.5 126.5q0 177 124 287.5t302 110.5q228 0 400 -152l-140 -182q-96 110 -221 110q-72 0 -131 -42t-59 -111 q0 -37 20.5 -65.5t55 -48t80 -37t95 -35.5t99 -39.5t95 -54t80 -73.5t55 -103t20.5 -138q0 -205 -134 -328t-341 -123q-152 0 -266.5 65t-202.5 195z" />
<glyph unicode="T" horiz-adv-x="907" d="M14 1135v231h879v-231h-307v-1135h-267v1135h-305z" />
<glyph unicode="U" horiz-adv-x="1411" d="M158 530v836h266v-782q0 -61 1 -88.5t11 -74.5t31 -83q36 -61 101.5 -94t138.5 -33t137 33.5t102 93.5q7 11 12.5 23t10 22.5t7.5 25t5.5 23t4 26t2 24.5t1 26.5t0.5 24.5v26.5v24.5v782h266v-836q0 -235 -100 -364q-75 -97 -195.5 -147t-252.5 -50q-133 0 -254.5 49.5 t-194.5 147.5q-100 132 -100 364z" />
<glyph unicode="V" horiz-adv-x="1318" d="M2 1366h291l364 -917l369 917h289l-590 -1401h-141z" />
<glyph unicode="W" horiz-adv-x="1998" d="M2 1366h283l305 -930l334 942h147l315 -942l328 930h281l-512 -1393h-189l-303 893l-317 -893h-189z" />
<glyph unicode="X" horiz-adv-x="1280" d="M14 0l484 721l-408 645h320l239 -424l252 424h320l-420 -645l467 -721h-314l-307 500l-319 -500h-314z" />
<glyph unicode="Y" horiz-adv-x="1193" d="M-10 1366h313l295 -475l291 475h317l-481 -741v-625h-266v625z" />
<glyph unicode="Z" horiz-adv-x="1196" d="M43 0l668 1135h-564v231h1004l-666 -1135h631v-231h-1073z" />
<glyph unicode="[" horiz-adv-x="710" d="M178 -328v1862h424v-219h-186v-1424h186v-219h-424z" />
<glyph unicode="\" d="M55 1536h244l637 -1706h-244z" />
<glyph unicode="]" horiz-adv-x="710" d="M109 -109h186v1424h-186v219h426v-1862h-426v219z" />
<glyph unicode="^" d="M16 694l332 678h328l332 -678h-260l-236 480l-236 -480h-260z" />
<glyph unicode="_" d="M0 -100h1024v-224h-1024v224z" />
<glyph unicode="`" d="M190 1319l181 115l243 -310l-116 -82z" />
<glyph unicode="a" horiz-adv-x="1165" d="M72 446q0 125 52.5 231.5t152 172t225.5 65.5q172 0 295 -141v113h250v-887h-250v117q-50 -71 -125 -108.5t-164 -37.5q-129 0 -230 66t-153.5 173.5t-52.5 235.5zM328 444q0 -103 72 -176t175 -73t175.5 73t72.5 176t-72.5 175.5t-175.5 72.5t-175 -72.5t-72 -175.5z " />
<glyph unicode="b" horiz-adv-x="1165" d="M119 0v1534h248v-760q70 74 136.5 107.5t160.5 33.5q126 0 226 -65.5t153 -172t53 -231.5q0 -128 -53.5 -235.5t-155 -173.5t-230.5 -66q-174 0 -290 146v-117h-248zM342 444q0 -103 72.5 -176t175.5 -73t175.5 73t72.5 176t-72.5 175.5t-175.5 72.5t-175.5 -72.5 t-72.5 -175.5z" />
<glyph unicode="c" horiz-adv-x="854" d="M72 440q0 134 65 243.5t176.5 170.5t245.5 61q127 0 225 -53v-246q-95 76 -200 76q-108 0 -182 -70t-74 -178t74 -178.5t182 -70.5q107 0 200 75v-243q-109 -56 -229 -56q-203 0 -343 133.5t-140 335.5z" />
<glyph unicode="d" horiz-adv-x="1165" d="M72 446q0 125 52.5 231.5t152 172t225.5 65.5q172 0 295 -141v760h250v-1534h-250v117q-50 -71 -125 -108.5t-164 -37.5q-129 0 -230 66t-153.5 173.5t-52.5 235.5zM328 444q0 -103 72 -176t175 -73t175.5 73t72.5 176t-72.5 175.5t-175.5 72.5t-175 -72.5t-72 -175.5z " />
<glyph unicode="e" horiz-adv-x="1060" d="M72 444q0 213 126 342t339 129q215 0 333.5 -131t118.5 -348v-33h-663q3 -108 57 -172.5t160 -64.5q135 0 211 119l229 -37q-57 -139 -169 -208t-267 -69q-216 0 -345.5 128.5t-129.5 344.5zM334 561h420q-19 85 -73 131.5t-140 46.5q-84 0 -138 -47.5t-69 -130.5z" />
<glyph unicode="f" horiz-adv-x="600" d="M31 674v213h96v284q0 133 39 209q42 82 127.5 130.5t179.5 48.5q55 0 131 -31v-228q-72 33 -112 33q-32 0 -54.5 -13t-34.5 -31.5t-18.5 -48t-8 -52t-1.5 -53.5v-248h229v-213h-229v-674h-248v674h-96z" />
<glyph unicode="g" horiz-adv-x="1161" d="M72 432q0 96 30.5 183t85 154t137.5 106.5t181 39.5q94 0 160.5 -34t126.5 -109v115h249v-854q0 -124 -18 -201.5t-82 -153.5q-67 -79 -165.5 -117t-211.5 -38q-116 0 -217 41.5t-171.5 128t-82.5 203.5h268q40 -162 211 -162q112 0 166 69t54 183v133 q-66 -76 -135.5 -112t-163.5 -36q-127 0 -224.5 63.5t-147.5 167.5t-50 230zM328 444q0 -103 72 -176t175 -73t175.5 73t72.5 176t-72.5 175.5t-175.5 72.5t-175 -72.5t-72 -175.5z" />
<glyph unicode="h" horiz-adv-x="1091" d="M119 0v1534h248v-762q107 143 278 143q162 0 258 -108q43 -51 56.5 -109.5t13.5 -140.5v-557h-248v485q0 50 -6.5 86t-24 68.5t-52.5 49t-87 16.5q-56 0 -94 -20t-58 -56.5t-28 -78t-8 -95.5v-455h-248z" />
<glyph unicode="i" horiz-adv-x="477" d="M90 1262q0 61 44 105t106 44q61 0 104 -43.5t43 -105.5t-43 -106t-104 -44q-62 0 -106 44t-44 106zM115 0v887h247v-887h-247z" />
<glyph unicode="j" horiz-adv-x="477" d="M90 1262q0 61 44 105t106 44q61 0 104 -43.5t43 -105.5t-43 -106t-104 -44q-62 0 -106 44t-44 106zM115 -473v1360h247v-1360h-247z" />
<glyph unicode="k" horiz-adv-x="1058" d="M119 0v1534h248v-971l331 324h336l-416 -389l449 -498h-340l-334 381l-26 -27v-354h-248z" />
<glyph unicode="l" horiz-adv-x="485" d="M119 0v1534h248v-1534h-248z" />
<glyph unicode="m" horiz-adv-x="1617" d="M119 0v887h248v-101q59 66 123 97.5t147 31.5q93 0 159 -39.5t117 -121.5q106 161 291 161q76 0 142.5 -33t105.5 -94q47 -72 47 -215v-573h-248v485q0 36 -2.5 63.5t-11.5 58.5t-24.5 51t-43 33.5t-65.5 13.5q-170 0 -170 -250v-455h-248v471q0 106 -18 147 q-17 40 -53.5 63.5t-79.5 23.5q-42 0 -81 -22t-59 -58q-28 -49 -28 -170v-455h-248z" />
<glyph unicode="n" horiz-adv-x="1091" d="M119 0v887h248v-109q64 74 125 105.5t153 31.5q76 0 144.5 -26.5t113.5 -79.5q43 -51 56.5 -107.5t13.5 -138.5v-563h-248v492q0 50 -6.5 85t-24 66t-52 46.5t-85.5 15.5q-56 0 -94.5 -19t-58.5 -54.5t-28.5 -77t-8.5 -95.5v-459h-248z" />
<glyph unicode="o" horiz-adv-x="1157" d="M72 442q0 145 68.5 253.5t183.5 164t258 55.5q141 0 254.5 -56t181 -164t67.5 -251t-68 -251.5t-182 -165t-255 -56.5q-142 0 -256.5 55.5t-183 163.5t-68.5 252zM328 442q0 -101 74 -174t176 -73q103 0 177 71.5t74 175.5t-73.5 177t-177.5 73q-103 0 -176.5 -73.5 t-73.5 -176.5z" />
<glyph unicode="p" horiz-adv-x="1165" d="M119 -473v1360h248v-113q64 73 131 107t159 34q128 0 229.5 -65.5t155.5 -173t54 -234.5q0 -125 -53 -232t-153 -173t-226 -66q-95 0 -164.5 35.5t-132.5 110.5v-590h-248zM342 444q0 -103 72.5 -176t175.5 -73t175.5 73t72.5 176t-72.5 175.5t-175.5 72.5t-175.5 -72.5 t-72.5 -175.5z" />
<glyph unicode="q" horiz-adv-x="1165" d="M72 442q0 127 53 234.5t154 173t229 65.5q94 0 163 -33.5t126 -107.5v113h250v-1360h-250v590q-118 -146 -295 -146q-126 0 -225.5 66.5t-152 173t-52.5 231.5zM328 444q0 -103 72 -176t175 -73t175.5 73t72.5 176t-72.5 175.5t-175.5 72.5t-175 -72.5t-72 -175.5z" />
<glyph unicode="r" horiz-adv-x="737" d="M119 0v887h248v-133q94 161 258 161q52 0 108 -20l-35 -233q-56 30 -118 30q-117 0 -165 -71.5t-48 -194.5v-426h-248z" />
<glyph unicode="s" horiz-adv-x="829" d="M63 119l132 151q100 -104 208 -104q45 0 79 27t34 71q0 31 -22 53t-56.5 36t-77 28t-84.5 33.5t-76.5 46t-56.5 72t-22 106.5q0 130 92.5 205.5t224.5 75.5q165 0 289 -95l-123 -145q-77 59 -147 59q-36 0 -65.5 -20.5t-29.5 -54.5q0 -26 22.5 -45t59 -33t80 -28t87 -35 t80 -49.5t59 -75.5t22.5 -109q0 -75 -31 -136.5t-83.5 -100.5t-118.5 -60t-138 -21q-95 0 -183.5 38.5t-154.5 109.5z" />
<glyph unicode="t" horiz-adv-x="552" d="M23 674v213h98v303h248v-303h174v-213h-174v-674h-248v674h-98z" />
<glyph unicode="u" horiz-adv-x="1095" d="M119 344v543h248v-502q0 -203 180 -203t180 203v502h250v-543q0 -96 -32.5 -169t-91.5 -117t-135.5 -65.5t-170.5 -21.5q-194 0 -311 92t-117 281z" />
<glyph unicode="v" horiz-adv-x="1028" d="M2 887h279l233 -500l234 500h278l-457 -905h-114z" />
<glyph unicode="w" horiz-adv-x="1622" d="M2 887h279l233 -512l242 536h106l242 -544l239 520h277l-459 -905h-114l-240 540l-236 -540h-114z" />
<glyph unicode="x" horiz-adv-x="1150" d="M2 0l422 483l-340 404h313l183 -230l186 230h315l-348 -404l416 -483h-315l-254 309l-258 -309h-320z" />
<glyph unicode="y" horiz-adv-x="1095" d="M2 887h289l266 -504l254 504h283l-717 -1362h-281l326 608z" />
<glyph unicode="z" horiz-adv-x="993" d="M27 0l503 676h-426v215h863l-502 -676h469v-215h-907z" />
<glyph unicode="{" d="M252 397v209q62 14 87.5 53.5t25.5 106.5v324q0 162 73.5 227t237.5 65q24 0 71 -2t70 -2v-219q-12 0 -39 0.5t-38.5 0.5t-33 -2t-31.5 -6.5t-24 -13.5t-20.5 -22t-11.5 -32.5t-5 -45.5v-290q0 -95 -24 -149.5t-98 -106.5q72 -45 97 -103t25 -153v-297q0 -81 48 -101 q16 -6 38.5 -9t37 -3.5t43.5 0t36 0.5v-219q-23 0 -70 -2t-71 -2q-166 0 -238.5 66.5t-72.5 230.5v319q0 76 -22.5 119t-90.5 59z" />
<glyph unicode="|" d="M387 -512v2048h250v-2048h-250z" />
<glyph unicode="}" d="M250 -174q12 0 38 -0.5t38 -0.5t33.5 2t31.5 6.5t24.5 13t21 21.5t11.5 32.5t5 44.5v293q0 89 24 149q9 24 26 44.5t30.5 31.5t41.5 31q-73 47 -97.5 104.5t-24.5 151.5v294q0 39 -9 65t-38 38q-30 12 -156 12v219q24 0 70 2t69 2q167 0 240 -66t73 -231v-319 q0 -77 23 -121.5t90 -56.5v-209q-62 -14 -87.5 -53.5t-25.5 -106.5v-323q0 -162 -73.5 -227.5t-237.5 -65.5q-23 0 -70 2t-71 2v219z" />
<glyph unicode="~" horiz-adv-x="1366" d="M184 1243q6 11 41 90q92 189 267 189q46 0 102.5 -16.5t100 -37t96.5 -37t94 -16.5q55 0 87.5 27.5t65.5 83.5l142 -82q-23 -48 -43 -82.5t-49.5 -72t-61 -60.5t-74.5 -38t-94 -15q-65 0 -192.5 53t-188.5 53q-31 0 -54.5 -9t-42 -30t-29.5 -39t-27 -51z" />
<glyph unicode="&#xa1;" horiz-adv-x="512" d="M96 905q0 66 47 113t113 47t113 -47t47 -113q0 -67 -46.5 -114.5t-113.5 -47.5q-66 0 -113 48t-47 114zM129 -328v973h254v-973h-254z" />
<glyph unicode="&#xa2;" horiz-adv-x="1161" d="M199 684q0 193 112 315.5t305 155.5v154h129v-160q106 -15 162 -43v-252q-49 47 -91.5 68.5t-102.5 21.5q-110 0 -179 -75.5t-69 -186.5q0 -107 69 -180.5t175 -73.5q117 0 198 90v-254q-82 -32 -162 -41v-172h-129v166q-183 23 -300 153.5t-117 313.5z" />
<glyph unicode="&#xa3;" horiz-adv-x="1161" d="M37 16q21 48 38.5 81.5t44 69.5t55.5 58.5t70 38.5t91 19q22 54 22 108q0 42 -16 92h-242v187h133q-81 145 -81 276q0 135 73.5 240t188.5 158t248 53q218 0 334.5 -127t121.5 -348l-268 -29q4 40 4 59q0 92 -60.5 150.5t-152.5 58.5q-96 0 -158.5 -65.5t-62.5 -161.5 q0 -43 14.5 -93.5t30 -85t41.5 -85.5h303v-187h-246q8 -54 8 -77q0 -63 -24 -140q5 -2 64.5 -23t87.5 -30.5t73 -20t72 -10.5q87 0 121 111l182 -39q-41 -140 -112 -212.5t-204 -72.5q-82 0 -233 52.5t-227 52.5q-53 0 -86.5 -21.5t-55.5 -70.5z" />
<glyph unicode="&#xa4;" horiz-adv-x="1366" d="M49 1262l137 135l209 -211q139 92 289 92q149 0 283 -88l209 205l135 -135l-207 -205q47 -74 70.5 -141t23.5 -146q0 -139 -90 -281l207 -208l-133 -138l-209 209q-136 -94 -289 -94q-141 0 -289 92l-209 -205l-135 133l209 209q-92 131 -92 283q0 146 92 283zM395 768 q0 -120 84.5 -205.5t204.5 -85.5q119 0 203 86t84 205t-84.5 204t-202.5 85q-120 0 -204.5 -84.5t-84.5 -204.5z" />
<glyph unicode="&#xa5;" horiz-adv-x="1161" d="M14 1366h293l275 -475l268 475h297l-264 -436h153v-187h-266l-72 -127h338v-188h-338v-428h-245v428h-328v188h328l-70 127h-258v187h147z" />
<glyph unicode="&#xa6;" d="M387 313h244v-825h-244v825zM387 655v877h244v-877h-244z" />
<glyph unicode="&#xa7;" horiz-adv-x="1161" d="M150 604q0 123 59.5 214.5t173.5 121.5q-182 81 -182 279q0 155 106 243t264 88q108 0 204 -42t147 -126q28 -47 36.5 -89.5t10.5 -110.5h-248q-5 72 -40 119t-103 47q-56 0 -97 -40.5t-41 -95.5q0 -35 19.5 -63t52.5 -49t76 -40t90.5 -39t95 -42.5t90.5 -54t76 -70 t52.5 -94.5t19.5 -123q0 -236 -240 -350q186 -83 186 -277q0 -160 -113.5 -259t-275.5 -99q-181 0 -282 103.5t-109 285.5h252q2 -75 40 -126.5t110 -51.5q63 0 105 43t42 106q0 34 -13 62t-31 46t-49 34.5t-53 25t-58 20.5q-3 1 -5 1.5t-5 1.5t-5 2q-63 22 -97 35.5 t-81.5 41t-81.5 62.5q-98 101 -98 260zM408 612q0 -72 49.5 -125t120.5 -53t121.5 53.5t50.5 124.5q0 73 -49.5 126t-122.5 53q-71 0 -120.5 -53.5t-49.5 -125.5z" />
<glyph unicode="&#xa8;" d="M152 1200q0 60 43.5 104t103.5 44q61 0 104 -43t43 -105t-43 -104.5t-104 -42.5q-60 0 -103.5 43.5t-43.5 103.5zM578 1200q0 62 43 105t104 43t104 -43t43 -105t-43 -104.5t-104 -42.5q-60 0 -103.5 43.5t-43.5 103.5z" />
<glyph unicode="&#xa9;" horiz-adv-x="1556" d="M68 684q0 193 96 357.5t260.5 260t357.5 95.5q192 0 355 -97t257.5 -261.5t94.5 -356.5q0 -144 -56 -276t-150.5 -227.5t-226 -152.5t-276.5 -57q-193 0 -357 96t-259.5 261t-95.5 358zM211 684q0 -117 44 -224.5t119 -187.5t181.5 -128t224.5 -48q156 0 287 81 t205 215.5t74 289.5q0 156 -73.5 290.5t-204.5 215t-288 80.5q-158 0 -289 -79.5t-205.5 -213.5t-74.5 -291zM373 678q0 184 134 308t320 124q115 0 213 -49q1 -1 3.5 -2t3.5 -2v-223q-55 56 -103 82t-117 26q-110 0 -184 -75.5t-74 -186.5t75.5 -183.5t186.5 -72.5 q69 0 115.5 24.5t100.5 79.5v-223q-115 -51 -220 -51q-120 0 -223.5 53t-167 151.5t-63.5 219.5z" />
<glyph unicode="&#xaa;" horiz-adv-x="694" d="M43 1085q0 114 72.5 197.5t185.5 83.5q103 0 176 -86v70h148v-531h-148v70q-70 -88 -174 -88q-116 0 -188 83t-72 201zM63 629v112h560v-112h-560zM197 1083q0 -61 42.5 -104t104.5 -43t105 43t43 104t-43 104.5t-105 43.5q-61 0 -104 -43t-43 -105z" />
<glyph unicode="&#xab;" horiz-adv-x="1050" d="M82 444l319 441l144 -103l-248 -338l250 -329l-146 -105zM483 444l320 441l143 -103l-248 -338l250 -329l-145 -105z" />
<glyph unicode="&#xac;" d="M68 322v225h888v-547h-249v322h-639z" />
<glyph unicode="&#xad;" horiz-adv-x="460" d="M0 367v208h461v-208h-461z" />
<glyph unicode="&#xae;" horiz-adv-x="1073" d="M82 1141q0 187 133.5 320.5t321.5 133.5q187 0 320.5 -133.5t133.5 -320.5q0 -189 -132.5 -322t-321.5 -133q-187 0 -321 134t-134 321zM176 1141q0 -149 106 -255t255 -106t254.5 106t105.5 255t-105.5 254.5t-254.5 105.5t-255 -105.5t-106 -254.5zM383 915v451h139 q78 0 127 -32.5t49 -106.5q0 -50 -29 -83t-77 -44l139 -185h-121l-125 166v-166h-102zM485 1165h19q84 0 84 58q0 55 -82 55h-21v-113z" />
<glyph unicode="&#xaf;" d="M139 1128v164h746v-164h-746z" />
<glyph unicode="&#xb0;" d="M201 1049q0 128 91.5 216.5t219.5 88.5t219.5 -88.5t91.5 -216.5t-91.5 -218t-219.5 -90t-219.5 90t-91.5 218zM350 1049q0 -67 47.5 -113.5t114.5 -46.5q66 0 114 47t48 113q0 67 -47.5 113t-114.5 46t-114.5 -46t-47.5 -113z" />
<glyph unicode="&#xb1;" d="M68 106v232h888v-232h-888zM68 727v229h319v320h250v-320h319v-229h-319v-319h-250v319h-319z" />
<glyph unicode="&#xb2;" horiz-adv-x="792" d="M57 547l248 280q98 112 133 167q47 76 47 130q0 47 -34 83t-80 36q-58 0 -84.5 -40t-26.5 -101h-182q9 134 85 212.5t208 78.5q120 0 204 -76t84 -195q0 -78 -39.5 -147t-107.5 -141l-129 -138h283v-149h-609z" />
<glyph unicode="&#xb3;" horiz-adv-x="792" d="M74 788h172q6 -57 40 -87.5t91 -30.5q53 0 88 35t35 88q0 51 -34.5 86.5t-86.5 35.5q-6 0 -19.5 -1t-19.5 -1v129q8 -2 27 -2q50 0 78 27t28 78q0 41 -28.5 69.5t-69.5 28.5q-51 0 -76 -25.5t-31 -76.5h-162q36 248 273 248q108 0 182 -62t74 -168q0 -115 -86 -176 q117 -54 117 -207q0 -119 -87 -187.5t-210 -68.5q-121 0 -205 74.5t-90 193.5z" />
<glyph unicode="&#xb4;" d="M410 1124l243 310l181 -115l-308 -277z" />
<glyph unicode="&#xb5;" d="M61 -352v1335h248v-524q0 -49 0.5 -69.5t9 -58t25.5 -63.5q27 -44 74 -68t100 -24q106 0 164 92q17 27 26 65t10 63t1 71v516h248v-983h-248v123q-70 -146 -207 -146q-132 0 -203 129v-458h-248z" />
<glyph unicode="&#xb6;" horiz-adv-x="1339" d="M53 1004q0 151 94 249q111 113 377 113h666v-192h-146v-1364h-210v1364h-177v-1364h-211v845h-26q-160 0 -263.5 95.5t-103.5 253.5z" />
<glyph unicode="&#xb7;" horiz-adv-x="374" d="M0 586q0 76 55.5 131t132.5 55t132 -55t55 -131q0 -77 -55.5 -133t-131.5 -56q-78 0 -133 55.5t-55 133.5z" />
<glyph unicode="&#xb8;" d="M358 -365l203 273l160 -90l-238 -254z" />
<glyph unicode="&#xb9;" horiz-adv-x="792" d="M199 1217v149h290v-819h-172v670h-118z" />
<glyph unicode="&#xba;" horiz-adv-x="690" d="M43 1083q0 129 86 206t217 77t216 -77t85 -206q0 -128 -86 -205t-215 -77q-131 0 -217 76.5t-86 205.5zM74 629v112h559v-112h-559zM197 1083q0 -60 43.5 -103.5t103.5 -43.5q62 0 106 43t44 104t-44 104.5t-106 43.5q-60 0 -103.5 -44t-43.5 -104z" />
<glyph unicode="&#xbb;" horiz-adv-x="1050" d="M102 115l252 329l-250 338l144 103l319 -441l-319 -434zM504 115l250 329l-248 338l143 103l320 -441l-320 -434z" />
<glyph unicode="&#xbc;" horiz-adv-x="1861" d="M188 1217v149h291v-819h-172v670h-119zM459 6l813 1405l108 -61l-813 -1407zM1139 141v76l405 617h152v-551h96v-142h-96v-141h-160v141h-397zM1348 283h188v290z" />
<glyph unicode="&#xbd;" horiz-adv-x="1826" d="M188 1217v149h291v-819h-172v670h-119zM459 6l813 1405l108 -61l-813 -1407zM1106 0l248 281q100 114 135 171q45 73 45 123q0 46 -34 82.5t-81 36.5q-57 0 -83.5 -39.5t-26.5 -99.5h-183q9 132 85.5 210.5t207.5 78.5q119 0 204 -76t85 -193q0 -80 -39 -148t-108 -140 l-129 -137h282v-150h-608z" />
<glyph unicode="&#xbe;" horiz-adv-x="1855" d="M61 788h172q6 -57 40.5 -87.5t91.5 -30.5q52 0 87 35t35 88q0 52 -34 87t-86 35q-6 0 -19.5 -1t-19.5 -1v129q8 -2 26 -2q50 0 78.5 27.5t28.5 77.5q0 41 -29 69.5t-70 28.5q-51 0 -75.5 -25t-30.5 -77h-162q36 248 273 248q108 0 182 -62t74 -168q0 -115 -86 -176 q116 -54 116 -207q0 -119 -87 -187.5t-210 -68.5q-121 0 -205 74.5t-90 193.5zM453 6l813 1405l108 -61l-813 -1407zM1133 141v76l405 617h152v-551h96v-142h-96v-141h-160v141h-397zM1341 283h189v290z" />
<glyph unicode="&#xbf;" horiz-adv-x="1001" d="M82 29q0 148 93.5 245.5t244.5 133.5v174h254v-361q-46 8 -72 8q-102 0 -180 -53.5t-78 -150.5q0 -67 45 -112.5t113 -45.5q62 0 103.5 41.5t41.5 103.5v25h264v-27q0 -107 -61.5 -192t-156 -128.5t-199.5 -43.5q-109 0 -202.5 47.5t-151.5 136.5t-58 199zM383 905 q0 66 47 113t113 47q67 0 114.5 -46.5t47.5 -113.5t-47.5 -114.5t-114.5 -47.5t-113.5 47.5t-46.5 114.5z" />
<glyph unicode="&#xc0;" horiz-adv-x="1372" d="M2 0l592 1395h201l575 -1395h-287l-116 289h-557l-125 -289h-283zM365 1724l170 140l282 -273l-110 -100zM494 504h391l-193 491z" />
<glyph unicode="&#xc1;" horiz-adv-x="1372" d="M2 0l592 1395h201l575 -1395h-287l-116 289h-557l-125 -289h-283zM494 504h391l-193 491zM584 1591l280 273l170 -140l-342 -233z" />
<glyph unicode="&#xc2;" horiz-adv-x="1372" d="M2 0l592 1395h201l575 -1395h-287l-116 289h-557l-125 -289h-283zM352 1622l346 283l353 -283l-129 -123l-224 189l-223 -189zM494 504h391l-193 491z" />
<glyph unicode="&#xc3;" horiz-adv-x="1372" d="M2 0l592 1395h201l575 -1395h-287l-116 289h-557l-125 -289h-283zM315 1520q6 47 22 90.5t42 82t66.5 62t89.5 23.5q55 0 154 -40t140 -40q33 0 51 19.5t35 56.5h144q-10 -49 -29 -92.5t-47.5 -82t-71.5 -61t-94 -22.5q-50 0 -140.5 38.5t-139.5 38.5q-56 0 -82 -73h-140 zM494 504h391l-193 491z" />
<glyph unicode="&#xc4;" horiz-adv-x="1372" d="M2 0l592 1395h201l575 -1395h-287l-116 289h-557l-125 -289h-283zM309 1663q0 61 43.5 103t104.5 42t104 -42t43 -103t-43 -104t-104 -43q-60 0 -104 43.5t-44 103.5zM494 504h391l-193 491zM768 1663q0 61 43 103t104 42t104.5 -42t43.5 -103t-43 -104t-105 -43 q-60 0 -103.5 43.5t-43.5 103.5z" />
<glyph unicode="&#xc5;" horiz-adv-x="1372" d="M2 0l592 1395h201l575 -1395h-287l-116 289h-557l-125 -289h-283zM494 504h391l-193 491zM496 1690q0 78 56 133t134 55t134.5 -55t56.5 -133t-56.5 -134.5t-134.5 -56.5t-134 56.5t-56 134.5zM608 1690q0 -32 23 -55t55 -23t55 23t23 55t-23 54.5t-55 22.5t-55 -22.5 t-23 -54.5z" />
<glyph unicode="&#xc6;" horiz-adv-x="1884" d="M14 0l588 1366h721l90 -231h-502l123 -306h494l94 -229h-496l150 -369h504l90 -231h-780l-119 289h-555l-119 -289h-283zM502 504h389l-189 465z" />
<glyph unicode="&#xc7;" horiz-adv-x="1232" d="M88 674q0 198 97 363.5t263.5 260.5t364.5 95q167 0 332 -80v-316q-146 152 -336 152q-128 0 -231 -64.5t-159.5 -172t-56.5 -234.5q0 -126 57 -233t160 -170.5t230 -63.5q188 0 336 151v-313q-96 -41 -172.5 -60.5t-165.5 -19.5q-194 0 -359 92.5t-262.5 255 t-97.5 357.5zM537 -371l206 283l172 -102l-247 -265z" />
<glyph unicode="&#xc8;" horiz-adv-x="1013" d="M158 0v1366h755v-231h-489v-304h471v-231h-471v-369h489v-231h-755zM199 1724l170 140l280 -273l-108 -100z" />
<glyph unicode="&#xc9;" horiz-adv-x="1013" d="M158 0v1366h755v-231h-489v-304h471v-231h-471v-369h489v-231h-755zM418 1591l280 273l170 -140l-342 -233z" />
<glyph unicode="&#xca;" horiz-adv-x="1013" d="M158 0v1366h755v-231h-489v-304h471v-231h-471v-369h489v-231h-755zM186 1622l346 283l353 -283l-129 -123l-224 189l-223 -189z" />
<glyph unicode="&#xcb;" horiz-adv-x="1013" d="M145 1663q0 61 43.5 103t104.5 42t104 -42t43 -103q0 -60 -43.5 -103.5t-103.5 -43.5q-62 0 -105 43t-43 104zM158 0v1366h755v-231h-489v-304h471v-231h-471v-369h489v-231h-755zM604 1663q0 61 43.5 103t104.5 42t104 -42t43 -103q0 -60 -43.5 -103.5t-103.5 -43.5 q-62 0 -105 43t-43 104z" />
<glyph unicode="&#xcc;" horiz-adv-x="579" d="M-18 1724l172 140l280 -273l-110 -100zM158 0v1366h266v-1366h-266z" />
<glyph unicode="&#xcd;" horiz-adv-x="579" d="M147 1591l281 273l170 -140l-342 -233zM158 0v1366h266v-1366h-266z" />
<glyph unicode="&#xce;" horiz-adv-x="579" d="M-8 1630l297 254l301 -254l-111 -110l-190 166l-191 -166zM158 0v1366h266v-1366h-266z" />
<glyph unicode="&#xcf;" horiz-adv-x="579" d="M8 1671q0 50 35.5 84.5t85.5 34.5q49 0 84 -35t35 -84q0 -50 -34.5 -85.5t-84.5 -35.5q-49 0 -85 36t-36 85zM158 0v1366h266v-1366h-266zM332 1671q0 50 35.5 84.5t85.5 34.5q49 0 83.5 -34.5t34.5 -84.5t-34.5 -85.5t-83.5 -35.5t-85 36t-36 85z" />
<glyph unicode="&#xd0;" horiz-adv-x="1370" d="M43 580v204h115v582h391q299 0 489 -158q117 -96 180.5 -235t63.5 -293q0 -150 -66 -288t-182 -234q-104 -87 -221.5 -122.5t-265.5 -35.5h-389v580h-115zM424 231h72q243 0 364 109q70 64 109 155t39 187q0 98 -38.5 188t-109.5 154q-72 65 -159.5 88t-204.5 23h-72 v-351h291v-204h-291v-349z" />
<glyph unicode="&#xd1;" horiz-adv-x="1595" d="M158 0v1397h184l832 -951v920h266v-1393h-185l-831 951v-924h-266zM428 1520q6 47 22 90.5t41.5 82t66 62t89.5 23.5q55 0 155 -40t140 -40q33 0 51 19.5t35 56.5h143q-10 -49 -28.5 -92.5t-47 -82t-71.5 -61t-94 -22.5q-50 0 -141 38.5t-140 38.5q-56 0 -82 -73h-139z " />
<glyph unicode="&#xd2;" horiz-adv-x="1636" d="M88 680q0 201 98 366t266 258t369 93q148 0 282.5 -55t232 -149.5t155 -228t57.5 -282.5q0 -150 -58 -283t-156.5 -227t-233.5 -148.5t-283 -54.5q-200 0 -366.5 91.5t-264.5 255t-98 364.5zM362 684q0 -125 59 -233.5t164.5 -174t231.5 -65.5q127 0 232.5 65t165 173.5 t59.5 234.5t-60 233.5t-165.5 171.5t-231.5 64q-125 0 -230.5 -64.5t-165 -172t-59.5 -232.5zM510 1724l170 140l281 -273l-109 -100z" />
<glyph unicode="&#xd3;" horiz-adv-x="1636" d="M88 680q0 201 98 366t266 258t369 93q148 0 282.5 -55t232 -149.5t155 -228t57.5 -282.5q0 -150 -58 -283t-156.5 -227t-233.5 -148.5t-283 -54.5q-200 0 -366.5 91.5t-264.5 255t-98 364.5zM362 684q0 -125 59 -233.5t164.5 -174t231.5 -65.5q127 0 232.5 65t165 173.5 t59.5 234.5t-60 233.5t-165.5 171.5t-231.5 64q-125 0 -230.5 -64.5t-165 -172t-59.5 -232.5zM674 1591l282 273l170 -140l-342 -233z" />
<glyph unicode="&#xd4;" horiz-adv-x="1636" d="M88 680q0 201 98 366t266 258t369 93q148 0 282.5 -55t232 -149.5t155 -228t57.5 -282.5q0 -150 -58 -283t-156.5 -227t-233.5 -148.5t-283 -54.5q-200 0 -366.5 91.5t-264.5 255t-98 364.5zM362 684q0 -125 59 -233.5t164.5 -174t231.5 -65.5q127 0 232.5 65t165 173.5 t59.5 234.5t-60 233.5t-165.5 171.5t-231.5 64q-125 0 -230.5 -64.5t-165 -172t-59.5 -232.5zM469 1622l346 283l352 -283l-129 -123l-223 189l-223 -189z" />
<glyph unicode="&#xd5;" horiz-adv-x="1636" d="M88 680q0 201 98 366t266 258t369 93q148 0 282.5 -55t232 -149.5t155 -228t57.5 -282.5q0 -150 -58 -283t-156.5 -227t-233.5 -148.5t-283 -54.5q-200 0 -366.5 91.5t-264.5 255t-98 364.5zM362 684q0 -125 59 -233.5t164.5 -174t231.5 -65.5q127 0 232.5 65t165 173.5 t59.5 234.5t-60 233.5t-165.5 171.5t-231.5 64q-125 0 -230.5 -64.5t-165 -172t-59.5 -232.5zM446 1520q6 47 22 90.5t42 82t66.5 62t89.5 23.5q56 0 155 -40t140 -40q33 0 51 19.5t35 56.5h143q-10 -49 -29 -92.5t-47.5 -82t-71.5 -61t-94 -22.5q-50 0 -140.5 38.5 t-139.5 38.5q-56 0 -82 -73h-140z" />
<glyph unicode="&#xd6;" horiz-adv-x="1636" d="M88 680q0 201 98 366t266 258t369 93q148 0 282.5 -55t232 -149.5t155 -228t57.5 -282.5q0 -150 -58 -283t-156.5 -227t-233.5 -148.5t-283 -54.5q-200 0 -366.5 91.5t-264.5 255t-98 364.5zM362 684q0 -125 59 -233.5t164.5 -174t231.5 -65.5q127 0 232.5 65t165 173.5 t59.5 234.5t-60 233.5t-165.5 171.5t-231.5 64q-125 0 -230.5 -64.5t-165 -172t-59.5 -232.5zM440 1663q0 60 44 102.5t104 42.5q61 0 104 -42t43 -103t-42.5 -104t-104.5 -43q-60 0 -104 43.5t-44 103.5zM899 1663q0 60 44 102.5t104 42.5q61 0 104 -42t43 -103t-43 -104 t-104 -43q-60 0 -104 43.5t-44 103.5z" />
<glyph unicode="&#xd7;" d="M68 580v229h329v330h230v-330h329v-229h-329v-330h-230v330h-329z" />
<glyph unicode="&#xd8;" horiz-adv-x="1648" d="M94 680q0 152 58 285.5t156 228t233.5 149t285.5 54.5q197 0 373 -99l156 185l164 -137l-152 -183q184 -205 184 -481q0 -150 -58 -283t-156.5 -227t-233.5 -148.5t-283 -54.5q-195 0 -375 97l-155 -185l-164 137l152 181q-185 206 -185 481zM369 684q0 -146 84 -276 l581 692q-106 53 -211 53q-125 0 -230 -64.5t-164.5 -172t-59.5 -232.5zM612 264q103 -53 209 -53q126 0 231.5 64.5t165.5 172.5t60 234q0 153 -84 274z" />
<glyph unicode="&#xd9;" horiz-adv-x="1411" d="M158 530v836h266v-782q0 -61 1 -88.5t11 -74.5t31 -83q36 -61 101.5 -94t138.5 -33t137 33.5t102 93.5q7 11 12.5 23t10 22.5t7.5 25t5.5 23t4 26t2 24.5t1 26.5t0.5 24.5v26.5v24.5v782h266v-836q0 -235 -100 -364q-75 -97 -195.5 -147t-252.5 -50q-133 0 -254.5 49.5 t-194.5 147.5q-100 132 -100 364zM397 1724l172 140l281 -273l-111 -100z" />
<glyph unicode="&#xda;" horiz-adv-x="1411" d="M158 530v836h266v-782q0 -61 1 -88.5t11 -74.5t31 -83q36 -61 101.5 -94t138.5 -33t137 33.5t102 93.5q7 11 12.5 23t10 22.5t7.5 25t5.5 23t4 26t2 24.5t1 26.5t0.5 24.5v26.5v24.5v782h266v-836q0 -235 -100 -364q-75 -97 -195.5 -147t-252.5 -50q-133 0 -254.5 49.5 t-194.5 147.5q-100 132 -100 364zM563 1591l281 273l170 -140l-342 -233z" />
<glyph unicode="&#xdb;" horiz-adv-x="1411" d="M158 530v836h266v-782q0 -61 1 -88.5t11 -74.5t31 -83q36 -61 101.5 -94t138.5 -33t137 33.5t102 93.5q7 11 12.5 23t10 22.5t7.5 25t5.5 23t4 26t2 24.5t1 26.5t0.5 24.5v26.5v24.5v782h266v-836q0 -235 -100 -364q-75 -97 -195.5 -147t-252.5 -50q-133 0 -254.5 49.5 t-194.5 147.5q-100 132 -100 364zM358 1622l347 283l352 -283l-129 -123l-223 189l-224 -189z" />
<glyph unicode="&#xdc;" horiz-adv-x="1411" d="M158 530v836h266v-782q0 -61 1 -88.5t11 -74.5t31 -83q36 -61 101.5 -94t138.5 -33t137 33.5t102 93.5q7 11 12.5 23t10 22.5t7.5 25t5.5 23t4 26t2 24.5t1 26.5t0.5 24.5v26.5v24.5v782h266v-836q0 -235 -100 -364q-75 -97 -195.5 -147t-252.5 -50q-133 0 -254.5 49.5 t-194.5 147.5q-100 132 -100 364zM330 1663q0 61 43 103t104 42t104.5 -42t43.5 -103q0 -60 -44 -103.5t-104 -43.5q-61 0 -104 43t-43 104zM788 1663q0 61 43.5 103t104.5 42t104 -42t43 -103q0 -60 -43.5 -103.5t-103.5 -43.5q-62 0 -105 43t-43 104z" />
<glyph unicode="&#xdd;" horiz-adv-x="1193" d="M-10 1366h315l295 -475l289 475h317l-479 -739v-627h-266v627zM455 1591l280 273l170 -140l-342 -233z" />
<glyph unicode="&#xde;" horiz-adv-x="1099" d="M158 0v1366h266v-192q9 0 69.5 0.5t80 0t70.5 -4t79 -9.5t67 -18.5t70 -30.5q97 -55 148 -154t51 -215q0 -115 -49 -216.5t-142 -159.5q-37 -23 -78.5 -37t-96 -19.5t-85 -7t-99.5 0t-85 1.5v-305h-266zM424 553h100q41 0 64.5 1.5t57 12t56.5 31.5q60 54 60 145 q0 185 -240 185h-98v-375z" />
<glyph unicode="&#xdf;" horiz-adv-x="1159" d="M119 0v1114q0 213 112 329t324 116q184 0 304 -109t120 -291q0 -95 -42 -163.5t-126 -127.5q55 -24 89.5 -44t68.5 -54q118 -118 118 -313q0 -105 -39.5 -202t-113.5 -163q-81 -72 -179 -96.5t-229 -24.5v224q132 5 218.5 76t86.5 200q0 73 -33.5 133t-95.5 96t-176 43 v215q97 3 155 52t58 143q0 81 -52.5 130.5t-133.5 49.5q-39 0 -69 -10.5t-49.5 -25.5t-33 -43t-20 -49t-10 -59.5t-4 -59.5t-0.5 -62v-14v-1010h-248z" />
<glyph unicode="&#xe0;" horiz-adv-x="1165" d="M72 446q0 125 52.5 231.5t152 172t225.5 65.5q172 0 295 -141v113h250v-887h-250v117q-50 -71 -125 -108.5t-164 -37.5q-129 0 -230 66t-153.5 173.5t-52.5 235.5zM233 1319l181 115l243 -310l-116 -82zM328 444q0 -103 72 -176t175 -73t175.5 73t72.5 176t-72.5 175.5 t-175.5 72.5t-175 -72.5t-72 -175.5z" />
<glyph unicode="&#xe1;" horiz-adv-x="1165" d="M72 446q0 125 52.5 231.5t152 172t225.5 65.5q172 0 295 -141v113h250v-887h-250v117q-50 -71 -125 -108.5t-164 -37.5q-129 0 -230 66t-153.5 173.5t-52.5 235.5zM328 444q0 -103 72 -176t175 -73t175.5 73t72.5 176t-72.5 175.5t-175.5 72.5t-175 -72.5t-72 -175.5z M479 1124l244 310l180 -115l-307 -277z" />
<glyph unicode="&#xe2;" horiz-adv-x="1165" d="M72 446q0 125 52.5 231.5t152 172t225.5 65.5q172 0 295 -141v113h250v-887h-250v117q-50 -71 -125 -108.5t-164 -37.5q-129 0 -230 66t-153.5 173.5t-52.5 235.5zM233 1165l347 283l352 -283l-129 -123l-223 189l-224 -189zM328 444q0 -103 72 -176t175 -73t175.5 73 t72.5 176t-72.5 175.5t-175.5 72.5t-175 -72.5t-72 -175.5z" />
<glyph unicode="&#xe3;" horiz-adv-x="1165" d="M72 446q0 125 52.5 231.5t152 172t225.5 65.5q172 0 295 -141v113h250v-887h-250v117q-50 -71 -125 -108.5t-164 -37.5q-129 0 -230 66t-153.5 173.5t-52.5 235.5zM211 1071q6 47 22 90.5t41.5 82t66 62t89.5 23.5q56 0 155 -40t140 -40q33 0 51 19.5t35 56.5h143 q-10 -49 -28.5 -92.5t-47 -82t-71.5 -61t-94 -22.5q-50 0 -141 39t-140 39q-55 0 -82 -74h-139zM328 444q0 -103 72 -176t175 -73t175.5 73t72.5 176t-72.5 175.5t-175.5 72.5t-175 -72.5t-72 -175.5z" />
<glyph unicode="&#xe4;" horiz-adv-x="1165" d="M72 446q0 125 52.5 231.5t152 172t225.5 65.5q172 0 295 -141v113h250v-887h-250v117q-50 -71 -125 -108.5t-164 -37.5q-129 0 -230 66t-153.5 173.5t-52.5 235.5zM221 1200q0 60 44 104t104 44q61 0 104 -43t43 -105t-43 -104.5t-104 -42.5q-60 0 -104 43.5t-44 103.5z M328 444q0 -103 72 -176t175 -73t175.5 73t72.5 176t-72.5 175.5t-175.5 72.5t-175 -72.5t-72 -175.5zM647 1200q0 62 43.5 105t104.5 43t104 -43t43 -105t-43 -104.5t-104 -42.5q-60 0 -104 43.5t-44 103.5z" />
<glyph unicode="&#xe5;" horiz-adv-x="1165" d="M72 446q0 125 52.5 231.5t152 172t225.5 65.5q172 0 295 -141v113h250v-887h-250v117q-50 -71 -125 -108.5t-164 -37.5q-129 0 -230 66t-153.5 173.5t-52.5 235.5zM328 444q0 -103 72 -176t175 -73t175.5 73t72.5 176t-72.5 175.5t-175.5 72.5t-175 -72.5t-72 -175.5z M356 1227q0 75 55 129.5t130 54.5q77 0 130.5 -53.5t53.5 -130.5t-54 -131t-130 -54q-75 0 -130 55t-55 130zM469 1227q0 -29 21.5 -50.5t50.5 -21.5t50 21.5t21 50.5q0 31 -20 51t-51 20q-29 0 -50.5 -21t-21.5 -50z" />
<glyph unicode="&#xe6;" horiz-adv-x="1652" d="M72 262q0 98 52.5 166t131 97.5t174.5 29.5q136 0 244 -61q2 14 2 43q0 95 -63 140.5t-162 45.5q-122 0 -244 -39v199q131 32 252 32q114 0 195 -32t137 -117q118 149 335 149q216 0 335.5 -130.5t119.5 -348.5v-33h-668q6 -107 64.5 -173t163.5 -66q66 0 118.5 32 t81.5 91l232 -39q-20 -49 -40.5 -81.5t-55.5 -66.5q-66 -63 -155.5 -96t-184.5 -33q-230 0 -346 168q-127 -168 -359 -168q-69 0 -132 17.5t-114.5 52t-82.5 91.5t-31 130zM311 270q0 -61 54.5 -90.5t121.5 -29.5q40 0 81 12t73.5 41.5t32.5 70.5q0 30 -20.5 51.5t-52 32.5 t-61.5 16t-57 5q-39 0 -75.5 -8.5t-66.5 -34.5t-30 -66zM922 563h419q-43 176 -208 176q-161 0 -211 -176z" />
<glyph unicode="&#xe7;" horiz-adv-x="854" d="M72 440q0 134 65 243.5t176.5 170.5t245.5 61q127 0 225 -53v-246q-95 76 -200 76q-108 0 -182 -70t-74 -178t74 -178.5t182 -70.5q107 0 200 75v-243q-109 -56 -229 -56q-203 0 -343 133.5t-140 335.5zM301 -365l203 273l160 -90l-238 -254z" />
<glyph unicode="&#xe8;" horiz-adv-x="1060" d="M72 444q0 213 126 342t339 129q215 0 333.5 -131t118.5 -348v-33h-663q3 -108 57 -172.5t160 -64.5q135 0 211 119l229 -37q-57 -139 -169 -208t-267 -69q-216 0 -345.5 128.5t-129.5 344.5zM209 1319l180 115l244 -310l-117 -82zM334 561h420q-19 85 -73 131.5 t-140 46.5q-84 0 -138 -47.5t-69 -130.5z" />
<glyph unicode="&#xe9;" horiz-adv-x="1060" d="M72 444q0 213 126 342t339 129q215 0 333.5 -131t118.5 -348v-33h-663q3 -108 57 -172.5t160 -64.5q135 0 211 119l229 -37q-57 -139 -169 -208t-267 -69q-216 0 -345.5 128.5t-129.5 344.5zM334 561h420q-19 85 -73 131.5t-140 46.5q-84 0 -138 -47.5t-69 -130.5z M428 1124l244 310l180 -115l-307 -277z" />
<glyph unicode="&#xea;" horiz-adv-x="1060" d="M72 444q0 213 126 342t339 129q215 0 333.5 -131t118.5 -348v-33h-663q3 -108 57 -172.5t160 -64.5q135 0 211 119l229 -37q-57 -139 -169 -208t-267 -69q-216 0 -345.5 128.5t-129.5 344.5zM182 1165l346 283l353 -283l-129 -123l-224 189l-223 -189zM334 561h420 q-19 85 -73 131.5t-140 46.5q-84 0 -138 -47.5t-69 -130.5z" />
<glyph unicode="&#xeb;" horiz-adv-x="1060" d="M72 444q0 213 126 342t339 129q215 0 333.5 -131t118.5 -348v-33h-663q3 -108 57 -172.5t160 -64.5q135 0 211 119l229 -37q-57 -139 -169 -208t-267 -69q-216 0 -345.5 128.5t-129.5 344.5zM170 1200q0 60 43.5 104t103.5 44q61 0 104.5 -43t43.5 -105q0 -61 -43 -104 t-105 -43q-60 0 -103.5 43.5t-43.5 103.5zM334 561h420q-19 85 -73 131.5t-140 46.5q-84 0 -138 -47.5t-69 -130.5zM596 1200q0 62 43 105t104 43t104.5 -43t43.5 -105q0 -61 -43 -104t-105 -43q-60 0 -103.5 43.5t-43.5 103.5z" />
<glyph unicode="&#xec;" horiz-adv-x="479" d="M0 1370l205 66l155 -363l-135 -47zM117 0v889h248v-889h-248z" />
<glyph unicode="&#xed;" horiz-adv-x="479" d="M117 0v889h248v-889h-248zM119 1073l155 363l205 -66l-225 -344z" />
<glyph unicode="&#xee;" horiz-adv-x="479" d="M-14 1174l252 253l258 -253l-103 -101l-155 160l-154 -160zM117 0v889h248v-889h-248z" />
<glyph unicode="&#xef;" horiz-adv-x="479" d="M-2 1200q0 44 31 75.5t75 31.5t76.5 -31.5t32.5 -75.5t-32 -75t-77 -31q-44 0 -75 31t-31 75zM117 0v889h248v-889h-248zM268 1200q0 44 31.5 75.5t75.5 31.5t76 -31.5t32 -75.5t-32 -75t-76 -31q-43 0 -75 31.5t-32 74.5z" />
<glyph unicode="&#xf0;" horiz-adv-x="1157" d="M72 449q0 100 45 196.5t121 159.5q134 110 356 110q23 0 35 -2q-65 125 -160 236l-190 -96l-80 164l147 75q-19 15 -44 30t-39.5 22.5t-50.5 24t-44 20.5l74 147q168 -64 278 -152l232 115l84 -168l-152 -78q178 -163 289.5 -370.5t111.5 -423.5q0 -222 -138 -355 t-361 -133q-144 0 -260 56t-185 166t-69 256zM328 442q0 -102 74.5 -174.5t177.5 -72.5t176 72t73 175q0 106 -71.5 178t-177.5 72q-103 0 -177.5 -73t-74.5 -177z" />
<glyph unicode="&#xf1;" horiz-adv-x="1091" d="M119 0v887h248v-109q64 74 125 105.5t153 31.5q76 0 144.5 -26.5t113.5 -79.5q43 -51 56.5 -107.5t13.5 -138.5v-563h-248v492q0 50 -6.5 85t-24 66t-52 46.5t-85.5 15.5q-56 0 -94.5 -19t-58.5 -54.5t-28.5 -77t-8.5 -95.5v-459h-248zM176 1071q6 47 22 90.5t41.5 82 t66 62t89.5 23.5q56 0 155.5 -40t139.5 -40q33 0 51 19.5t35 56.5h144q-10 -49 -29 -92.5t-47.5 -82t-71.5 -61t-94 -22.5q-50 0 -141 39t-140 39q-55 0 -82 -74h-139z" />
<glyph unicode="&#xf2;" horiz-adv-x="1157" d="M72 442q0 145 68.5 253.5t183.5 164t258 55.5q141 0 254.5 -56t181 -164t67.5 -251t-68 -251.5t-182 -165t-255 -56.5q-142 0 -256.5 55.5t-183 163.5t-68.5 252zM256 1319l180 115l244 -310l-117 -82zM328 442q0 -101 74 -174t176 -73q103 0 177 71.5t74 175.5 t-73.5 177t-177.5 73q-103 0 -176.5 -73.5t-73.5 -176.5z" />
<glyph unicode="&#xf3;" horiz-adv-x="1157" d="M72 442q0 145 68.5 253.5t183.5 164t258 55.5q141 0 254.5 -56t181 -164t67.5 -251t-68 -251.5t-182 -165t-255 -56.5q-142 0 -256.5 55.5t-183 163.5t-68.5 252zM328 442q0 -101 74 -174t176 -73q103 0 177 71.5t74 175.5t-73.5 177t-177.5 73q-103 0 -176.5 -73.5 t-73.5 -176.5zM475 1124l244 310l180 -115l-307 -277z" />
<glyph unicode="&#xf4;" horiz-adv-x="1157" d="M72 442q0 145 68.5 253.5t183.5 164t258 55.5q141 0 254.5 -56t181 -164t67.5 -251t-68 -251.5t-182 -165t-255 -56.5q-142 0 -256.5 55.5t-183 163.5t-68.5 252zM229 1165l346 283l353 -283l-129 -123l-224 189l-223 -189zM328 442q0 -101 74 -174t176 -73 q103 0 177 71.5t74 175.5t-73.5 177t-177.5 73q-103 0 -176.5 -73.5t-73.5 -176.5z" />
<glyph unicode="&#xf5;" horiz-adv-x="1157" d="M72 442q0 145 68.5 253.5t183.5 164t258 55.5q141 0 254.5 -56t181 -164t67.5 -251t-68 -251.5t-182 -165t-255 -56.5q-142 0 -256.5 55.5t-183 163.5t-68.5 252zM207 1071q6 47 22 90.5t41.5 82t66 62t89.5 23.5q56 0 155 -40t140 -40q33 0 51 19.5t35 56.5h143 q-10 -49 -28.5 -92.5t-47 -82t-71.5 -61t-94 -22.5q-50 0 -141 39t-140 39q-55 0 -82 -74h-139zM328 442q0 -101 74 -174t176 -73q103 0 177 71.5t74 175.5t-73.5 177t-177.5 73q-103 0 -176.5 -73.5t-73.5 -176.5z" />
<glyph unicode="&#xf6;" horiz-adv-x="1157" d="M72 442q0 145 68.5 253.5t183.5 164t258 55.5q141 0 254.5 -56t181 -164t67.5 -251t-68 -251.5t-182 -165t-255 -56.5q-142 0 -256.5 55.5t-183 163.5t-68.5 252zM217 1200q0 60 44 104t104 44q61 0 104 -43t43 -105t-43 -104.5t-104 -42.5q-60 0 -104 43.5t-44 103.5z M328 442q0 -101 74 -174t176 -73q103 0 177 71.5t74 175.5t-73.5 177t-177.5 73q-103 0 -176.5 -73.5t-73.5 -176.5zM643 1200q0 62 43.5 105t104.5 43t104 -43t43 -105t-43 -104.5t-104 -42.5q-60 0 -104 43.5t-44 103.5z" />
<glyph unicode="&#xf7;" d="M68 580v229h888v-229h-888zM367 342q0 60 42.5 102.5t102.5 42.5t101.5 -42.5t41.5 -102.5t-41.5 -102.5t-101.5 -42.5t-102.5 42.5t-42.5 102.5zM367 1044q0 60 42.5 103t102.5 43t101.5 -43t41.5 -103q0 -58 -42.5 -100.5t-100.5 -42.5q-59 0 -102 42.5t-43 100.5z" />
<glyph unicode="&#xf8;" horiz-adv-x="1159" d="M72 446q0 142 68.5 250t183 163.5t254.5 55.5t256 -55l129 154l110 -94l-119 -144q131 -137 131 -334q0 -106 -39.5 -195t-107.5 -149t-160 -93.5t-196 -33.5q-134 0 -258 56l-127 -154l-113 94l119 144q-131 134 -131 335zM328 442q0 -64 41 -135l307 367q-46 18 -98 18 q-103 0 -176.5 -73.5t-73.5 -176.5zM481 215q52 -20 97 -20q104 0 177.5 72.5t73.5 176.5q0 65 -41 136z" />
<glyph unicode="&#xf9;" horiz-adv-x="1095" d="M119 344v543h248v-502q0 -203 180 -203t180 203v502h250v-543q0 -96 -32.5 -169t-91.5 -117t-135.5 -65.5t-170.5 -21.5q-194 0 -311 92t-117 281zM225 1319l181 115l243 -310l-117 -82z" />
<glyph unicode="&#xfa;" horiz-adv-x="1095" d="M119 344v543h248v-502q0 -203 180 -203t180 203v502h250v-543q0 -96 -32.5 -169t-91.5 -117t-135.5 -65.5t-170.5 -21.5q-194 0 -311 92t-117 281zM444 1124l244 310l180 -115l-307 -277z" />
<glyph unicode="&#xfb;" horiz-adv-x="1095" d="M119 344v543h248v-502q0 -203 180 -203t180 203v502h250v-543q0 -96 -32.5 -169t-91.5 -117t-135.5 -65.5t-170.5 -21.5q-194 0 -311 92t-117 281zM199 1165l346 283l352 -283l-129 -123l-223 189l-223 -189z" />
<glyph unicode="&#xfc;" horiz-adv-x="1095" d="M119 344v543h248v-502q0 -203 180 -203t180 203v502h250v-543q0 -96 -32.5 -169t-91.5 -117t-135.5 -65.5t-170.5 -21.5q-194 0 -311 92t-117 281zM186 1200q0 60 44 104t104 44q61 0 104 -43t43 -105t-42.5 -104.5t-104.5 -42.5q-60 0 -104 43.5t-44 103.5zM612 1200 q0 62 43 105t105 43q61 0 104 -43t43 -105t-42.5 -104.5t-104.5 -42.5q-60 0 -104 43.5t-44 103.5z" />
<glyph unicode="&#xfd;" horiz-adv-x="1095" d="M2 887h289l266 -504l252 504h285l-717 -1360h-281l326 608zM418 1124l244 310l180 -115l-307 -277z" />
<glyph unicode="&#xfe;" horiz-adv-x="1161" d="M119 -467v1960h256v-698q60 63 125 93t149 30q100 0 184 -38t139.5 -103t86.5 -152t31 -185q0 -93 -32 -178t-88.5 -149t-139 -102t-177.5 -38q-84 0 -149.5 28.5t-128.5 90.5v-559h-256zM365 442q0 -106 61.5 -175.5t165.5 -69.5q100 0 161.5 71.5t61.5 173.5 q0 104 -60.5 175t-162.5 71q-104 0 -165.5 -70t-61.5 -176z" />
<glyph unicode="&#xff;" horiz-adv-x="1095" d="M2 887h289l266 -504l254 504h283l-717 -1362h-281l326 608zM188 1200q0 60 44 104t104 44q61 0 104 -43t43 -105t-42.5 -104.5t-104.5 -42.5q-60 0 -104 43.5t-44 103.5zM614 1200q0 62 43 105t105 43q61 0 104 -43t43 -105t-42.5 -104.5t-104.5 -42.5q-60 0 -104 43.5 t-44 103.5z" />
<glyph unicode="&#x152;" horiz-adv-x="2123" d="M88 682q0 145 56.5 277t152 228t227.5 153t277 57q148 0 264 -52.5t217 -162.5v184h743v-231h-479v-306h457v-229h-457v-369h479v-231h-743v184q-97 -110 -212.5 -162.5t-262.5 -52.5q-197 0 -362 94t-261 258t-96 361zM362 684q0 -124 54.5 -232t156.5 -174.5t228 -66.5 q128 0 233 64t163 172t58 235q0 125 -60 233t-165.5 173t-230.5 65q-123 0 -224.5 -66t-157 -173t-55.5 -230z" />
<glyph unicode="&#x153;" horiz-adv-x="1810" d="M70 442q0 138 66.5 247t179 167.5t249.5 58.5q230 0 369 -161q118 161 346 161q119 0 208 -37t143.5 -106t81 -161t26.5 -208h-676q8 -106 66 -172.5t161 -66.5q138 0 207 123l229 -39q-55 -140 -170 -208.5t-270 -68.5q-231 0 -350 172q-79 -92 -166 -132t-209 -40 q-210 0 -350.5 131t-140.5 340zM328 446q0 -104 68.5 -177.5t172.5 -73.5q103 0 171.5 74t68.5 177q0 104 -68.5 175t-171.5 71t-172 -71t-69 -175zM1073 563h426q-46 176 -211 176q-166 0 -215 -176z" />
<glyph unicode="&#x178;" horiz-adv-x="1193" d="M-10 1366h313l295 -475l291 475h317l-481 -741v-625h-266v625zM221 1663q0 61 43.5 103t104.5 42t104 -42t43 -103q0 -60 -43.5 -103.5t-103.5 -43.5q-62 0 -105 43t-43 104zM680 1663q0 61 43 103t104 42t104.5 -42t43.5 -103q0 -60 -44 -103.5t-104 -43.5 q-61 0 -104 43t-43 104z" />
<glyph unicode="&#x2c6;" d="M164 1165l346 283l352 -283l-129 -123l-223 189l-223 -189z" />
<glyph unicode="&#x2dc;" d="M141 1071q6 47 22 90.5t41.5 82t66 62t89.5 23.5q56 0 155 -40t140 -40q33 0 51 19.5t35 56.5h144q-10 -49 -29 -92.5t-47.5 -82t-71.5 -61t-94 -22.5q-50 0 -141 39t-140 39q-54 0 -81 -74h-140z" />
<glyph unicode="&#x2000;" horiz-adv-x="952" />
<glyph unicode="&#x2001;" horiz-adv-x="1905" />
<glyph unicode="&#x2002;" horiz-adv-x="952" />
<glyph unicode="&#x2003;" horiz-adv-x="1905" />
<glyph unicode="&#x2004;" horiz-adv-x="635" />
<glyph unicode="&#x2005;" horiz-adv-x="476" />
<glyph unicode="&#x2006;" horiz-adv-x="317" />
<glyph unicode="&#x2007;" horiz-adv-x="317" />
<glyph unicode="&#x2008;" horiz-adv-x="238" />
<glyph unicode="&#x2009;" horiz-adv-x="381" />
<glyph unicode="&#x200a;" horiz-adv-x="105" />
<glyph unicode="&#x2010;" horiz-adv-x="460" d="M0 367v208h461v-208h-461z" />
<glyph unicode="&#x2011;" horiz-adv-x="460" d="M0 367v208h461v-208h-461z" />
<glyph unicode="&#x2012;" horiz-adv-x="460" d="M0 367v208h461v-208h-461z" />
<glyph unicode="&#x2013;" d="M68 580v229h888v-229h-888z" />
<glyph unicode="&#x2014;" horiz-adv-x="1378" d="M0 367v208h1378v-208h-1378z" />
<glyph unicode="&#x2018;" horiz-adv-x="624" d="M88 848l289 545l158 -21l-218 -551z" />
<glyph unicode="&#x2019;" horiz-adv-x="595" d="M47 842l219 551l228 -27l-289 -545z" />
<glyph unicode="&#x201a;" horiz-adv-x="595" d="M47 -268l219 551l228 -27l-289 -543z" />
<glyph unicode="&#x201c;" horiz-adv-x="1009" d="M88 848l289 545l158 -21l-218 -551zM473 848l289 545l158 -21l-218 -551z" />
<glyph unicode="&#x201d;" horiz-adv-x="1009" d="M88 842l219 551l228 -27l-289 -545zM473 842l219 551l228 -27l-289 -545z" />
<glyph unicode="&#x201e;" horiz-adv-x="1009" d="M88 -268l219 551l228 -27l-289 -543zM473 -268l219 551l228 -27l-289 -543z" />
<glyph unicode="&#x2022;" horiz-adv-x="1366" d="M401 696q0 118 82.5 202.5t200.5 84.5q116 0 198.5 -85.5t82.5 -201.5t-82.5 -201t-198.5 -85q-118 0 -200.5 84t-82.5 202z" />
<glyph unicode="&#x2026;" horiz-adv-x="1738" d="M129 131q0 67 46.5 114.5t113.5 47.5t114.5 -47.5t47.5 -114.5t-47.5 -113.5t-114.5 -46.5q-66 0 -113 47t-47 113zM709 131q0 67 46 114.5t113 47.5t113.5 -47.5t46.5 -114.5q0 -66 -47 -113t-113 -47t-112.5 47t-46.5 113zM1288 131q0 67 46.5 114.5t113.5 47.5 q68 0 115 -47.5t47 -114.5t-47.5 -113.5t-114.5 -46.5q-66 0 -113 47t-47 113z" />
<glyph unicode="&#x202f;" horiz-adv-x="381" />
<glyph unicode="&#x2039;" horiz-adv-x="649" d="M82 444l319 441l144 -103l-248 -338l250 -329l-146 -105z" />
<glyph unicode="&#x203a;" horiz-adv-x="649" d="M102 115l252 329l-250 338l144 103l319 -441l-319 -434z" />
<glyph unicode="&#x205f;" horiz-adv-x="476" />
<glyph unicode="&#x2122;" horiz-adv-x="1476" d="M-6 1210v156h510v-156h-168v-622h-174v622h-168zM532 588l140 792h127l190 -473l201 473h127l125 -792h-174l-60 428l-186 -438h-68l-180 438l-67 -428h-175z" />
<glyph unicode="&#x25fc;" horiz-adv-x="890" d="M0 0v891h891v-891h-891z" />
<glyph unicode="&#xfb01;" horiz-adv-x="1077" d="M31 674v213h96v284q0 133 39 209q42 82 127.5 130.5t179.5 48.5q55 0 131 -31v-228q-72 33 -112 33q-32 0 -54.5 -13t-34.5 -31.5t-18.5 -48t-8 -52t-1.5 -53.5v-248h229v-213h-229v-674h-248v674h-96zM690 1262q0 61 44 105t106 44q61 0 104 -43.5t43 -105.5t-43 -106 t-104 -44q-62 0 -106 44t-44 106zM715 0v887h248v-887h-248z" />
<glyph unicode="&#xfb02;" horiz-adv-x="1085" d="M31 674v213h96v284q0 133 39 209q42 82 127.5 130.5t179.5 48.5q55 0 131 -31v-228q-72 33 -112 33q-32 0 -54.5 -13t-34.5 -31.5t-18.5 -48t-8 -52t-1.5 -53.5v-248h229v-213h-229v-674h-248v674h-96zM719 0v1534h248v-1534h-248z" />
</font>
</defs>
</svg>
